G04 #@! TF.GenerationSoftware,KiCad,Pcbnew,(5.1.5)-3*
G04 #@! TF.CreationDate,2020-03-04T17:17:07-08:00*
G04 #@! TF.ProjectId,tail,7461696c-2e6b-4696-9361-645f70636258,rev?*
G04 #@! TF.SameCoordinates,Original*
G04 #@! TF.FileFunction,Legend,Top*
G04 #@! TF.FilePolarity,Positive*
%FSLAX46Y46*%
G04 Gerber Fmt 4.6, Leading zero omitted, Abs format (unit mm)*
G04 Created by KiCad (PCBNEW (5.1.5)-3) date 2020-03-04 17:17:07*
%MOMM*%
%LPD*%
G04 APERTURE LIST*
%ADD10C,0.150000*%
%ADD11C,0.508000*%
%ADD12C,0.120000*%
%ADD13C,0.152400*%
G04 APERTURE END LIST*
D10*
X166298571Y-124824952D02*
X166346190Y-124682095D01*
X166393809Y-124634476D01*
X166489047Y-124586857D01*
X166631904Y-124586857D01*
X166727142Y-124634476D01*
X166774761Y-124682095D01*
X166822380Y-124777333D01*
X166822380Y-125158285D01*
X165822380Y-125158285D01*
X165822380Y-124824952D01*
X165870000Y-124729714D01*
X165917619Y-124682095D01*
X166012857Y-124634476D01*
X166108095Y-124634476D01*
X166203333Y-124682095D01*
X166250952Y-124729714D01*
X166298571Y-124824952D01*
X166298571Y-125158285D01*
X165822380Y-123967809D02*
X165822380Y-123777333D01*
X165870000Y-123682095D01*
X165965238Y-123586857D01*
X166155714Y-123539238D01*
X166489047Y-123539238D01*
X166679523Y-123586857D01*
X166774761Y-123682095D01*
X166822380Y-123777333D01*
X166822380Y-123967809D01*
X166774761Y-124063047D01*
X166679523Y-124158285D01*
X166489047Y-124205904D01*
X166155714Y-124205904D01*
X165965238Y-124158285D01*
X165870000Y-124063047D01*
X165822380Y-123967809D01*
X166822380Y-123110666D02*
X165822380Y-123110666D01*
X165822380Y-122872571D01*
X165870000Y-122729714D01*
X165965238Y-122634476D01*
X166060476Y-122586857D01*
X166250952Y-122539238D01*
X166393809Y-122539238D01*
X166584285Y-122586857D01*
X166679523Y-122634476D01*
X166774761Y-122729714D01*
X166822380Y-122872571D01*
X166822380Y-123110666D01*
X166346190Y-121920190D02*
X166822380Y-121920190D01*
X165822380Y-122253523D02*
X166346190Y-121920190D01*
X165822380Y-121586857D01*
D11*
X76200000Y-63500000D02*
X76200000Y-127000000D01*
X203200000Y-63500000D02*
X76200000Y-63500000D01*
X203200000Y-127000000D02*
X203200000Y-63500000D01*
X76200000Y-127000000D02*
X203200000Y-127000000D01*
D12*
X197993000Y-84328000D02*
X196469000Y-85852000D01*
X196469000Y-84328000D02*
X202133200Y-84328000D01*
X196469000Y-91652000D02*
X202133200Y-91652000D01*
X196469000Y-84328000D02*
X196469000Y-91652000D01*
X202133200Y-91652000D02*
X202133200Y-84328000D01*
X197993000Y-99187000D02*
X196469000Y-100711000D01*
X196469000Y-99187000D02*
X202133200Y-99187000D01*
X196469000Y-106511000D02*
X202133200Y-106511000D01*
X196469000Y-99187000D02*
X196469000Y-106511000D01*
X202133200Y-106511000D02*
X202133200Y-99187000D01*
X176043000Y-120617064D02*
X176043000Y-119412936D01*
X174223000Y-120617064D02*
X174223000Y-119412936D01*
X169640000Y-125178000D02*
X170140000Y-125178000D01*
X169890000Y-125428000D02*
X169890000Y-124928000D01*
X172645563Y-124688000D02*
X173710000Y-123623563D01*
X170254437Y-124688000D02*
X169190000Y-123623563D01*
X170254437Y-124688000D02*
X170390000Y-124688000D01*
X172645563Y-124688000D02*
X172510000Y-124688000D01*
X173710000Y-123623563D02*
X173710000Y-120168000D01*
X169190000Y-123623563D02*
X169190000Y-120168000D01*
X169190000Y-120168000D02*
X170390000Y-120168000D01*
X173710000Y-120168000D02*
X172510000Y-120168000D01*
X127990000Y-72797936D02*
X127990000Y-74002064D01*
X130710000Y-72797936D02*
X130710000Y-74002064D01*
X128040000Y-119920936D02*
X128040000Y-121125064D01*
X130760000Y-119920936D02*
X130760000Y-121125064D01*
X189312000Y-73147936D02*
X189312000Y-74352064D01*
X192032000Y-73147936D02*
X192032000Y-74352064D01*
X104870000Y-119937936D02*
X104870000Y-121142064D01*
X107590000Y-119937936D02*
X107590000Y-121142064D01*
X143150000Y-95200000D02*
X143650000Y-94700000D01*
X143150000Y-94200000D02*
X143150000Y-95200000D01*
X143650000Y-94700000D02*
X143150000Y-94200000D01*
X144050000Y-93900000D02*
X147450000Y-93900000D01*
X147450000Y-97500000D02*
X144050000Y-97500000D01*
X141550000Y-93150000D02*
X142050000Y-93650000D01*
X142550000Y-93150000D02*
X141550000Y-93150000D01*
X142050000Y-93650000D02*
X142550000Y-93150000D01*
X142850000Y-94050000D02*
X142850000Y-97450000D01*
X139250000Y-97450000D02*
X139250000Y-94050000D01*
X183218248Y-123852000D02*
X183582000Y-123852000D01*
X180045752Y-123852000D02*
X179682000Y-123852000D01*
X183218248Y-118732000D02*
X183582000Y-118732000D01*
X180045752Y-118732000D02*
X178182000Y-118732000D01*
X151892000Y-117602000D02*
X152908000Y-118872000D01*
X169062400Y-118948200D02*
X169062400Y-113258600D01*
X151790400Y-118948200D02*
X169062400Y-118948200D01*
X151790400Y-118948200D02*
X151790400Y-113284000D01*
X151790400Y-113284000D02*
X169062400Y-113258600D01*
X155702000Y-124714000D02*
X157226000Y-126238000D01*
X155702000Y-126238000D02*
X155702000Y-120573800D01*
X165455600Y-126238000D02*
X165455600Y-120573800D01*
X155702000Y-126238000D02*
X165455600Y-126238000D01*
X165455600Y-120573800D02*
X155702000Y-120573800D01*
X142120936Y-92610000D02*
X143325064Y-92610000D01*
X142120936Y-89890000D02*
X143325064Y-89890000D01*
X142170936Y-84998000D02*
X143375064Y-84998000D01*
X142170936Y-82278000D02*
X143375064Y-82278000D01*
X183300000Y-106700000D02*
G75*
G03X183300000Y-106700000I-700000J0D01*
G01*
X179560000Y-105880000D02*
X178100000Y-105880000D01*
X179560000Y-102720000D02*
X177400000Y-102720000D01*
X179560000Y-102720000D02*
X179560000Y-103650000D01*
X179560000Y-105880000D02*
X179560000Y-104950000D01*
X191200000Y-96440000D02*
X187750000Y-96440000D01*
X191200000Y-96440000D02*
X193150000Y-96440000D01*
X191200000Y-101560000D02*
X189250000Y-101560000D01*
X191200000Y-101560000D02*
X193150000Y-101560000D01*
X89980000Y-77774000D02*
G75*
G03X89980000Y-77774000I-1200000J0D01*
G01*
X102106000Y-71211221D02*
X102106000Y-71536779D01*
X103126000Y-71211221D02*
X103126000Y-71536779D01*
X95132000Y-71100000D02*
X97562000Y-71100000D01*
X96892000Y-68030000D02*
X95132000Y-68030000D01*
X99102000Y-65757221D02*
X99102000Y-66082779D01*
X100122000Y-65757221D02*
X100122000Y-66082779D01*
X98472000Y-66082779D02*
X98472000Y-65757221D01*
X97452000Y-66082779D02*
X97452000Y-65757221D01*
X93412000Y-72720000D02*
X89562000Y-72720000D01*
X93412000Y-70720000D02*
X89562000Y-70720000D01*
X93412000Y-72720000D02*
X93412000Y-70720000D01*
X90837936Y-69980000D02*
X92042064Y-69980000D01*
X90837936Y-68160000D02*
X92042064Y-68160000D01*
X94396779Y-64810000D02*
X94071221Y-64810000D01*
X94396779Y-65830000D02*
X94071221Y-65830000D01*
X91531221Y-75948000D02*
X91856779Y-75948000D01*
X91531221Y-74928000D02*
X91856779Y-74928000D01*
X191200000Y-89040000D02*
X187750000Y-89040000D01*
X191200000Y-89040000D02*
X193150000Y-89040000D01*
X191200000Y-94160000D02*
X189250000Y-94160000D01*
X191200000Y-94160000D02*
X193150000Y-94160000D01*
X191200000Y-103940000D02*
X187750000Y-103940000D01*
X191200000Y-103940000D02*
X193150000Y-103940000D01*
X191200000Y-109060000D02*
X189250000Y-109060000D01*
X191200000Y-109060000D02*
X193150000Y-109060000D01*
X191200000Y-81540000D02*
X187750000Y-81540000D01*
X191200000Y-81540000D02*
X193150000Y-81540000D01*
X191200000Y-86660000D02*
X189250000Y-86660000D01*
X191200000Y-86660000D02*
X193150000Y-86660000D01*
X183300000Y-91800000D02*
G75*
G03X183300000Y-91800000I-700000J0D01*
G01*
X183300000Y-84300000D02*
G75*
G03X183300000Y-84300000I-700000J0D01*
G01*
X183300000Y-99100000D02*
G75*
G03X183300000Y-99100000I-700000J0D01*
G01*
X176510000Y-89662779D02*
X176510000Y-89337221D01*
X175490000Y-89662779D02*
X175490000Y-89337221D01*
X176510000Y-104562779D02*
X176510000Y-104237221D01*
X175490000Y-104562779D02*
X175490000Y-104237221D01*
X185710000Y-90262779D02*
X185710000Y-89937221D01*
X184690000Y-90262779D02*
X184690000Y-89937221D01*
X184690000Y-93137221D02*
X184690000Y-93462779D01*
X185710000Y-93137221D02*
X185710000Y-93462779D01*
X185710000Y-105162779D02*
X185710000Y-104837221D01*
X184690000Y-105162779D02*
X184690000Y-104837221D01*
X184690000Y-108037221D02*
X184690000Y-108362779D01*
X185710000Y-108037221D02*
X185710000Y-108362779D01*
X184690000Y-82437221D02*
X184690000Y-82762779D01*
X185710000Y-82437221D02*
X185710000Y-82762779D01*
X185710000Y-85962779D02*
X185710000Y-85637221D01*
X184690000Y-85962779D02*
X184690000Y-85637221D01*
X184690000Y-97337221D02*
X184690000Y-97662779D01*
X185710000Y-97337221D02*
X185710000Y-97662779D01*
X185710000Y-100862779D02*
X185710000Y-100537221D01*
X184690000Y-100862779D02*
X184690000Y-100537221D01*
X176510000Y-82162779D02*
X176510000Y-81837221D01*
X175490000Y-82162779D02*
X175490000Y-81837221D01*
X176510000Y-97062779D02*
X176510000Y-96737221D01*
X175490000Y-97062779D02*
X175490000Y-96737221D01*
X176580000Y-92240000D02*
X176580000Y-93700000D01*
X173420000Y-92240000D02*
X173420000Y-94400000D01*
X173420000Y-92240000D02*
X174350000Y-92240000D01*
X176580000Y-92240000D02*
X175650000Y-92240000D01*
X176580000Y-107140000D02*
X176580000Y-108600000D01*
X173420000Y-107140000D02*
X173420000Y-109300000D01*
X173420000Y-107140000D02*
X174350000Y-107140000D01*
X176580000Y-107140000D02*
X175650000Y-107140000D01*
X179560000Y-94580000D02*
X178100000Y-94580000D01*
X179560000Y-91420000D02*
X177400000Y-91420000D01*
X179560000Y-91420000D02*
X179560000Y-92350000D01*
X179560000Y-94580000D02*
X179560000Y-93650000D01*
X179560000Y-90980000D02*
X178100000Y-90980000D01*
X179560000Y-87820000D02*
X177400000Y-87820000D01*
X179560000Y-87820000D02*
X179560000Y-88750000D01*
X179560000Y-90980000D02*
X179560000Y-90050000D01*
X179560000Y-109480000D02*
X178100000Y-109480000D01*
X179560000Y-106320000D02*
X177400000Y-106320000D01*
X179560000Y-106320000D02*
X179560000Y-107250000D01*
X179560000Y-109480000D02*
X179560000Y-108550000D01*
X179560000Y-87080000D02*
X178100000Y-87080000D01*
X179560000Y-83920000D02*
X177400000Y-83920000D01*
X179560000Y-83920000D02*
X179560000Y-84850000D01*
X179560000Y-87080000D02*
X179560000Y-86150000D01*
X179560000Y-83480000D02*
X178100000Y-83480000D01*
X179560000Y-80320000D02*
X177400000Y-80320000D01*
X179560000Y-80320000D02*
X179560000Y-81250000D01*
X179560000Y-83480000D02*
X179560000Y-82550000D01*
X179560000Y-101980000D02*
X178100000Y-101980000D01*
X179560000Y-98820000D02*
X177400000Y-98820000D01*
X179560000Y-98820000D02*
X179560000Y-99750000D01*
X179560000Y-101980000D02*
X179560000Y-101050000D01*
X179560000Y-98380000D02*
X178100000Y-98380000D01*
X179560000Y-95220000D02*
X177400000Y-95220000D01*
X179560000Y-95220000D02*
X179560000Y-96150000D01*
X179560000Y-98380000D02*
X179560000Y-97450000D01*
X176580000Y-84740000D02*
X176580000Y-86200000D01*
X173420000Y-84740000D02*
X173420000Y-86900000D01*
X173420000Y-84740000D02*
X174350000Y-84740000D01*
X176580000Y-84740000D02*
X175650000Y-84740000D01*
X176580000Y-99640000D02*
X176580000Y-101100000D01*
X173420000Y-99640000D02*
X173420000Y-101800000D01*
X173420000Y-99640000D02*
X174350000Y-99640000D01*
X176580000Y-99640000D02*
X175650000Y-99640000D01*
X120974000Y-85090000D02*
X120974000Y-86420000D01*
X120974000Y-86420000D02*
X119644000Y-86420000D01*
X118374000Y-86420000D02*
X85294000Y-86420000D01*
X85294000Y-83760000D02*
X85294000Y-86420000D01*
X118374000Y-83760000D02*
X85294000Y-83760000D01*
X118374000Y-83760000D02*
X118374000Y-86420000D01*
X174734000Y-112542000D02*
G75*
G03X174734000Y-112542000I-1200000J0D01*
G01*
X130740000Y-82513000D02*
G75*
G03X130740000Y-82513000I-1200000J0D01*
G01*
X113300000Y-77774000D02*
G75*
G03X113300000Y-77774000I-1200000J0D01*
G01*
X113354000Y-125020000D02*
G75*
G03X113354000Y-125020000I-1200000J0D01*
G01*
X174734000Y-77824000D02*
G75*
G03X174734000Y-77824000I-1200000J0D01*
G01*
X90274000Y-125060000D02*
G75*
G03X90274000Y-125060000I-1200000J0D01*
G01*
X150250000Y-82513000D02*
G75*
G03X150250000Y-82513000I-1200000J0D01*
G01*
X184084779Y-124532000D02*
X183759221Y-124532000D01*
X184084779Y-125552000D02*
X183759221Y-125552000D01*
X187059221Y-125552000D02*
X187384779Y-125552000D01*
X187059221Y-124532000D02*
X187384779Y-124532000D01*
X176946779Y-124532000D02*
X176621221Y-124532000D01*
X176946779Y-125552000D02*
X176621221Y-125552000D01*
X120175721Y-74108000D02*
X120501279Y-74108000D01*
X120175721Y-73088000D02*
X120501279Y-73088000D01*
X120112000Y-76300779D02*
X120112000Y-75975221D01*
X119092000Y-76300779D02*
X119092000Y-75975221D01*
X121979221Y-77664000D02*
X122304779Y-77664000D01*
X121979221Y-76644000D02*
X122304779Y-76644000D01*
X124114779Y-73088000D02*
X123789221Y-73088000D01*
X124114779Y-74108000D02*
X123789221Y-74108000D01*
X117240000Y-74197221D02*
X117240000Y-74522779D01*
X118260000Y-74197221D02*
X118260000Y-74522779D01*
X120233221Y-121414000D02*
X120558779Y-121414000D01*
X120233221Y-120394000D02*
X120558779Y-120394000D01*
X120144000Y-123606779D02*
X120144000Y-123281221D01*
X119124000Y-123606779D02*
X119124000Y-123281221D01*
X122011221Y-124970000D02*
X122336779Y-124970000D01*
X122011221Y-123950000D02*
X122336779Y-123950000D01*
X124368779Y-120584000D02*
X124043221Y-120584000D01*
X124368779Y-121604000D02*
X124043221Y-121604000D01*
X117346000Y-121437221D02*
X117346000Y-121762779D01*
X118366000Y-121437221D02*
X118366000Y-121762779D01*
X181549221Y-74466000D02*
X181874779Y-74466000D01*
X181549221Y-73446000D02*
X181874779Y-73446000D01*
X181612000Y-76743779D02*
X181612000Y-76418221D01*
X180592000Y-76743779D02*
X180592000Y-76418221D01*
X183327221Y-78022000D02*
X183652779Y-78022000D01*
X183327221Y-77002000D02*
X183652779Y-77002000D01*
X185582779Y-73446000D02*
X185257221Y-73446000D01*
X185582779Y-74466000D02*
X185257221Y-74466000D01*
X178814000Y-74237221D02*
X178814000Y-74562779D01*
X179834000Y-74237221D02*
X179834000Y-74562779D01*
X97187221Y-121560000D02*
X97512779Y-121560000D01*
X97187221Y-120540000D02*
X97512779Y-120540000D01*
X97098000Y-123952779D02*
X97098000Y-123627221D01*
X96078000Y-123952779D02*
X96078000Y-123627221D01*
X98965221Y-125100000D02*
X99290779Y-125100000D01*
X98965221Y-124080000D02*
X99290779Y-124080000D01*
X101254779Y-120540000D02*
X100929221Y-120540000D01*
X101254779Y-121560000D02*
X100929221Y-121560000D01*
X94232000Y-121503221D02*
X94232000Y-121828779D01*
X95252000Y-121503221D02*
X95252000Y-121828779D01*
X152810000Y-78521779D02*
X152810000Y-78196221D01*
X151790000Y-78521779D02*
X151790000Y-78196221D01*
X184504000Y-117682000D02*
X184504000Y-116737000D01*
X179224000Y-117682000D02*
X184504000Y-117682000D01*
X179224000Y-116737000D02*
X179224000Y-117682000D01*
X184504000Y-112402000D02*
X184504000Y-113347000D01*
X179224000Y-112402000D02*
X184504000Y-112402000D01*
X179224000Y-113347000D02*
X179224000Y-112402000D01*
X123344000Y-65178000D02*
X123344000Y-66123000D01*
X128624000Y-65178000D02*
X123344000Y-65178000D01*
X128624000Y-66123000D02*
X128624000Y-65178000D01*
X123344000Y-70458000D02*
X123344000Y-69513000D01*
X128624000Y-70458000D02*
X123344000Y-70458000D01*
X128624000Y-69513000D02*
X128624000Y-70458000D01*
X123344000Y-112422000D02*
X123344000Y-113367000D01*
X128624000Y-112422000D02*
X123344000Y-112422000D01*
X128624000Y-113367000D02*
X128624000Y-112422000D01*
X123344000Y-117702000D02*
X123344000Y-116757000D01*
X128624000Y-117702000D02*
X123344000Y-117702000D01*
X128624000Y-116757000D02*
X128624000Y-117702000D01*
X185182000Y-65559000D02*
X185182000Y-66504000D01*
X190462000Y-65559000D02*
X185182000Y-65559000D01*
X190462000Y-66504000D02*
X190462000Y-65559000D01*
X185182000Y-70839000D02*
X185182000Y-69894000D01*
X190462000Y-70839000D02*
X185182000Y-70839000D01*
X190462000Y-69894000D02*
X190462000Y-70839000D01*
X100198000Y-112422000D02*
X100198000Y-113367000D01*
X105478000Y-112422000D02*
X100198000Y-112422000D01*
X105478000Y-113367000D02*
X105478000Y-112422000D01*
X100198000Y-117702000D02*
X100198000Y-116757000D01*
X105478000Y-117702000D02*
X100198000Y-117702000D01*
X105478000Y-116757000D02*
X105478000Y-117702000D01*
X177675000Y-116904779D02*
X177675000Y-116579221D01*
X176655000Y-116904779D02*
X176655000Y-116579221D01*
X173572000Y-117188064D02*
X173572000Y-115983936D01*
X170852000Y-117188064D02*
X170852000Y-115983936D01*
X187384779Y-122882000D02*
X187059221Y-122882000D01*
X187384779Y-123902000D02*
X187059221Y-123902000D01*
X186012000Y-119179221D02*
X186012000Y-119504779D01*
X187032000Y-119179221D02*
X187032000Y-119504779D01*
X187059221Y-122252000D02*
X187384779Y-122252000D01*
X187059221Y-121232000D02*
X187384779Y-121232000D01*
X132902064Y-90909000D02*
X131697936Y-90909000D01*
X132902064Y-93629000D02*
X131697936Y-93629000D01*
X132902064Y-94840000D02*
X131697936Y-94840000D01*
X132902064Y-97560000D02*
X131697936Y-97560000D01*
X142120936Y-88829000D02*
X143325064Y-88829000D01*
X142120936Y-86109000D02*
X143325064Y-86109000D01*
X122304779Y-74866000D02*
X121979221Y-74866000D01*
X122304779Y-75886000D02*
X121979221Y-75886000D01*
X120540000Y-65637221D02*
X120540000Y-65962779D01*
X121560000Y-65637221D02*
X121560000Y-65962779D01*
X115544000Y-68671221D02*
X115544000Y-68996779D01*
X116564000Y-68671221D02*
X116564000Y-68996779D01*
X113947500Y-65687500D02*
X113322500Y-65687500D01*
X113635000Y-65375000D02*
X113635000Y-66000000D01*
X110254437Y-66240000D02*
X109190000Y-67304437D01*
X113645563Y-66240000D02*
X114710000Y-67304437D01*
X113645563Y-66240000D02*
X113010000Y-66240000D01*
X110254437Y-66240000D02*
X110890000Y-66240000D01*
X109190000Y-67304437D02*
X109190000Y-71760000D01*
X114710000Y-67304437D02*
X114710000Y-71760000D01*
X114710000Y-71760000D02*
X113010000Y-71760000D01*
X109190000Y-71760000D02*
X110890000Y-71760000D01*
X122336779Y-122172000D02*
X122011221Y-122172000D01*
X122336779Y-123192000D02*
X122011221Y-123192000D01*
X120775000Y-112740221D02*
X120775000Y-113065779D01*
X121795000Y-112740221D02*
X121795000Y-113065779D01*
X115695000Y-115915221D02*
X115695000Y-116240779D01*
X116715000Y-115915221D02*
X116715000Y-116240779D01*
X114138500Y-112917500D02*
X113513500Y-112917500D01*
X113826000Y-112605000D02*
X113826000Y-113230000D01*
X110445437Y-113470000D02*
X109381000Y-114534437D01*
X113836563Y-113470000D02*
X114901000Y-114534437D01*
X113836563Y-113470000D02*
X113201000Y-113470000D01*
X110445437Y-113470000D02*
X111081000Y-113470000D01*
X109381000Y-114534437D02*
X109381000Y-118990000D01*
X114901000Y-114534437D02*
X114901000Y-118990000D01*
X114901000Y-118990000D02*
X113201000Y-118990000D01*
X109381000Y-118990000D02*
X111081000Y-118990000D01*
X183652779Y-75309000D02*
X183327221Y-75309000D01*
X183652779Y-76329000D02*
X183327221Y-76329000D01*
X182018000Y-65523221D02*
X182018000Y-65848779D01*
X183038000Y-65523221D02*
X183038000Y-65848779D01*
X176684000Y-68925221D02*
X176684000Y-69250779D01*
X177704000Y-68925221D02*
X177704000Y-69250779D01*
X175352500Y-65887500D02*
X174727500Y-65887500D01*
X175040000Y-65575000D02*
X175040000Y-66200000D01*
X171659437Y-66440000D02*
X170595000Y-67504437D01*
X175050563Y-66440000D02*
X176115000Y-67504437D01*
X175050563Y-66440000D02*
X174415000Y-66440000D01*
X171659437Y-66440000D02*
X172295000Y-66440000D01*
X170595000Y-67504437D02*
X170595000Y-71960000D01*
X176115000Y-67504437D02*
X176115000Y-71960000D01*
X176115000Y-71960000D02*
X174415000Y-71960000D01*
X170595000Y-71960000D02*
X172295000Y-71960000D01*
X99290779Y-122318000D02*
X98965221Y-122318000D01*
X99290779Y-123338000D02*
X98965221Y-123338000D01*
X97570000Y-112947221D02*
X97570000Y-113272779D01*
X98590000Y-112947221D02*
X98590000Y-113272779D01*
X92422000Y-116042221D02*
X92422000Y-116367779D01*
X93442000Y-116042221D02*
X93442000Y-116367779D01*
X90865500Y-112935500D02*
X90240500Y-112935500D01*
X90553000Y-112623000D02*
X90553000Y-113248000D01*
X87172437Y-113488000D02*
X86108000Y-114552437D01*
X90563563Y-113488000D02*
X91628000Y-114552437D01*
X90563563Y-113488000D02*
X89928000Y-113488000D01*
X87172437Y-113488000D02*
X87808000Y-113488000D01*
X86108000Y-114552437D02*
X86108000Y-119008000D01*
X91628000Y-114552437D02*
X91628000Y-119008000D01*
X91628000Y-119008000D02*
X89928000Y-119008000D01*
X86108000Y-119008000D02*
X87808000Y-119008000D01*
X120964000Y-105410000D02*
X120964000Y-106740000D01*
X120964000Y-106740000D02*
X119634000Y-106740000D01*
X118364000Y-106740000D02*
X77664000Y-106740000D01*
X77664000Y-104080000D02*
X77664000Y-106740000D01*
X118364000Y-104080000D02*
X77664000Y-104080000D01*
X118364000Y-104080000D02*
X118364000Y-106740000D01*
D13*
X151053800Y-108300000D02*
X149783800Y-108300000D01*
X150037800Y-107665000D02*
X150037800Y-108935000D01*
X150037800Y-108300000D02*
X150799800Y-107665000D01*
X150037800Y-108300000D02*
X150799800Y-107792000D01*
X150037800Y-108300000D02*
X150799800Y-107919000D01*
X150037800Y-108300000D02*
X150799800Y-108046000D01*
X150037800Y-108300000D02*
X150799800Y-108173000D01*
X150037800Y-108300000D02*
X150799800Y-108935000D01*
X150037800Y-108300000D02*
X150799800Y-108808000D01*
X150037800Y-108300000D02*
X150799800Y-108681000D01*
X150037800Y-108300000D02*
X150799800Y-108554000D01*
X150037800Y-108300000D02*
X150799800Y-108427000D01*
X150799800Y-107665000D02*
X150799800Y-108935000D01*
X151434800Y-111538500D02*
X159816800Y-111538500D01*
X159816800Y-111538500D02*
X159816800Y-110232940D01*
X159816800Y-105061500D02*
X151434800Y-105061500D01*
X151434800Y-105061500D02*
X151434800Y-106367060D01*
X151434800Y-110232940D02*
X151434800Y-111538500D01*
X159816800Y-106367060D02*
X159816800Y-105061500D01*
D12*
X121206000Y-68196000D02*
X121206000Y-67896000D01*
X120906000Y-67896000D02*
X121206000Y-67896000D01*
X120906000Y-71096000D02*
X121206000Y-71096000D01*
X121206000Y-70796000D02*
X121206000Y-71096000D01*
X118306000Y-67896000D02*
X118006000Y-67896000D01*
X118006000Y-68196000D02*
X118006000Y-67896000D01*
X118306000Y-71096000D02*
X118006000Y-71096000D01*
X118006000Y-70796000D02*
X118006000Y-71096000D01*
X121330000Y-115438000D02*
X121330000Y-115138000D01*
X121030000Y-115138000D02*
X121330000Y-115138000D01*
X121030000Y-118338000D02*
X121330000Y-118338000D01*
X121330000Y-118038000D02*
X121330000Y-118338000D01*
X118430000Y-115138000D02*
X118130000Y-115138000D01*
X118130000Y-115438000D02*
X118130000Y-115138000D01*
X118430000Y-118338000D02*
X118130000Y-118338000D01*
X118130000Y-118038000D02*
X118130000Y-118338000D01*
X182604000Y-68450000D02*
X182604000Y-68150000D01*
X182304000Y-68150000D02*
X182604000Y-68150000D01*
X182304000Y-71350000D02*
X182604000Y-71350000D01*
X182604000Y-71050000D02*
X182604000Y-71350000D01*
X179704000Y-68150000D02*
X179404000Y-68150000D01*
X179404000Y-68450000D02*
X179404000Y-68150000D01*
X179704000Y-71350000D02*
X179404000Y-71350000D01*
X179404000Y-71050000D02*
X179404000Y-71350000D01*
X98088000Y-115456000D02*
X98088000Y-115156000D01*
X97788000Y-115156000D02*
X98088000Y-115156000D01*
X97788000Y-118356000D02*
X98088000Y-118356000D01*
X98088000Y-118056000D02*
X98088000Y-118356000D01*
X95188000Y-115156000D02*
X94888000Y-115156000D01*
X94888000Y-115456000D02*
X94888000Y-115156000D01*
X95188000Y-118356000D02*
X94888000Y-118356000D01*
X94888000Y-118056000D02*
X94888000Y-118356000D01*
X101512000Y-78230000D02*
X95312000Y-78230000D01*
X101512000Y-71630000D02*
X95312000Y-71630000D01*
X101512000Y-71630000D02*
X101512000Y-78230000D01*
X95312000Y-71630000D02*
X95312000Y-78230000D01*
X130969000Y-98490000D02*
X130969000Y-99990000D01*
X130969000Y-98490000D02*
X132469000Y-98490000D01*
X142589000Y-98490000D02*
X141089000Y-98490000D01*
X142589000Y-98490000D02*
X142589000Y-99990000D01*
X142589000Y-109110000D02*
X142589000Y-107610000D01*
X130969000Y-109110000D02*
X130969000Y-107610000D01*
X142589000Y-109110000D02*
X141089000Y-109110000D01*
X130969000Y-109110000D02*
X132469000Y-109110000D01*
X160130000Y-83930000D02*
X160130000Y-82905000D01*
X160130000Y-83930000D02*
X159105000Y-83930000D01*
X154830000Y-83930000D02*
X155855000Y-83930000D01*
X154830000Y-83930000D02*
X154830000Y-82905000D01*
X154830000Y-78630000D02*
X154830000Y-79655000D01*
X160130000Y-78630000D02*
X160130000Y-79655000D01*
X154830000Y-78630000D02*
X155855000Y-78630000D01*
X160130000Y-78630000D02*
X159105000Y-78630000D01*
X160260000Y-67210000D02*
X157210000Y-67210000D01*
X151740000Y-67210000D02*
X154790000Y-67210000D01*
X151740000Y-74665563D02*
X151740000Y-67210000D01*
X160260000Y-74665563D02*
X160260000Y-67210000D01*
X159195563Y-75730000D02*
X157210000Y-75730000D01*
X152804437Y-75730000D02*
X154790000Y-75730000D01*
X152804437Y-75730000D02*
X151740000Y-74665563D01*
X159195563Y-75730000D02*
X160260000Y-74665563D01*
X153790000Y-76970000D02*
X153790000Y-75970000D01*
X153290000Y-76470000D02*
X154290000Y-76470000D01*
X169614000Y-67210000D02*
X166564000Y-67210000D01*
X161094000Y-67210000D02*
X164144000Y-67210000D01*
X161094000Y-74665563D02*
X161094000Y-67210000D01*
X169614000Y-74665563D02*
X169614000Y-67210000D01*
X168549563Y-75730000D02*
X166564000Y-75730000D01*
X162158437Y-75730000D02*
X164144000Y-75730000D01*
X162158437Y-75730000D02*
X161094000Y-74665563D01*
X168549563Y-75730000D02*
X169614000Y-74665563D01*
X163144000Y-76970000D02*
X163144000Y-75970000D01*
X162644000Y-76470000D02*
X163644000Y-76470000D01*
X154600000Y-86149000D02*
X154600000Y-89021000D01*
X154600000Y-90779000D02*
X154600000Y-103850000D01*
X151400000Y-86149000D02*
X151400000Y-99222000D01*
X151400000Y-100979000D02*
X151400000Y-103850000D01*
X154600000Y-86149000D02*
X151400000Y-86149000D01*
X154600000Y-103850000D02*
X151400000Y-103850000D01*
D10*
X198707476Y-82764380D02*
X198707476Y-83478666D01*
X198659857Y-83621523D01*
X198564619Y-83716761D01*
X198421761Y-83764380D01*
X198326523Y-83764380D01*
X199707476Y-83764380D02*
X199136047Y-83764380D01*
X199421761Y-83764380D02*
X199421761Y-82764380D01*
X199326523Y-82907238D01*
X199231285Y-83002476D01*
X199136047Y-83050095D01*
X200326523Y-82764380D02*
X200421761Y-82764380D01*
X200517000Y-82812000D01*
X200564619Y-82859619D01*
X200612238Y-82954857D01*
X200659857Y-83145333D01*
X200659857Y-83383428D01*
X200612238Y-83573904D01*
X200564619Y-83669142D01*
X200517000Y-83716761D01*
X200421761Y-83764380D01*
X200326523Y-83764380D01*
X200231285Y-83716761D01*
X200183666Y-83669142D01*
X200136047Y-83573904D01*
X200088428Y-83383428D01*
X200088428Y-83145333D01*
X200136047Y-82954857D01*
X200183666Y-82859619D01*
X200231285Y-82812000D01*
X200326523Y-82764380D01*
X199183666Y-97623380D02*
X199183666Y-98337666D01*
X199136047Y-98480523D01*
X199040809Y-98575761D01*
X198897952Y-98623380D01*
X198802714Y-98623380D01*
X200088428Y-97623380D02*
X199897952Y-97623380D01*
X199802714Y-97671000D01*
X199755095Y-97718619D01*
X199659857Y-97861476D01*
X199612238Y-98051952D01*
X199612238Y-98432904D01*
X199659857Y-98528142D01*
X199707476Y-98575761D01*
X199802714Y-98623380D01*
X199993190Y-98623380D01*
X200088428Y-98575761D01*
X200136047Y-98528142D01*
X200183666Y-98432904D01*
X200183666Y-98194809D01*
X200136047Y-98099571D01*
X200088428Y-98051952D01*
X199993190Y-98004333D01*
X199802714Y-98004333D01*
X199707476Y-98051952D01*
X199659857Y-98099571D01*
X199612238Y-98194809D01*
X197048571Y-113498571D02*
X196715238Y-113498571D01*
X196715238Y-114022380D02*
X196715238Y-113022380D01*
X197191428Y-113022380D01*
X197572380Y-114022380D02*
X197572380Y-113022380D01*
X198048571Y-114022380D02*
X198048571Y-113022380D01*
X198286666Y-113022380D01*
X198429523Y-113070000D01*
X198524761Y-113165238D01*
X198572380Y-113260476D01*
X198620000Y-113450952D01*
X198620000Y-113593809D01*
X198572380Y-113784285D01*
X198524761Y-113879523D01*
X198429523Y-113974761D01*
X198286666Y-114022380D01*
X198048571Y-114022380D01*
X198953333Y-113022380D02*
X199572380Y-113022380D01*
X199239047Y-113403333D01*
X199381904Y-113403333D01*
X199477142Y-113450952D01*
X199524761Y-113498571D01*
X199572380Y-113593809D01*
X199572380Y-113831904D01*
X199524761Y-113927142D01*
X199477142Y-113974761D01*
X199381904Y-114022380D01*
X199096190Y-114022380D01*
X199000952Y-113974761D01*
X198953333Y-113927142D01*
X197048571Y-72858571D02*
X196715238Y-72858571D01*
X196715238Y-73382380D02*
X196715238Y-72382380D01*
X197191428Y-72382380D01*
X197572380Y-73382380D02*
X197572380Y-72382380D01*
X198048571Y-73382380D02*
X198048571Y-72382380D01*
X198286666Y-72382380D01*
X198429523Y-72430000D01*
X198524761Y-72525238D01*
X198572380Y-72620476D01*
X198620000Y-72810952D01*
X198620000Y-72953809D01*
X198572380Y-73144285D01*
X198524761Y-73239523D01*
X198429523Y-73334761D01*
X198286666Y-73382380D01*
X198048571Y-73382380D01*
X199000952Y-72477619D02*
X199048571Y-72430000D01*
X199143809Y-72382380D01*
X199381904Y-72382380D01*
X199477142Y-72430000D01*
X199524761Y-72477619D01*
X199572380Y-72572857D01*
X199572380Y-72668095D01*
X199524761Y-72810952D01*
X198953333Y-73382380D01*
X199572380Y-73382380D01*
X80208571Y-72858571D02*
X79875238Y-72858571D01*
X79875238Y-73382380D02*
X79875238Y-72382380D01*
X80351428Y-72382380D01*
X80732380Y-73382380D02*
X80732380Y-72382380D01*
X81208571Y-73382380D02*
X81208571Y-72382380D01*
X81446666Y-72382380D01*
X81589523Y-72430000D01*
X81684761Y-72525238D01*
X81732380Y-72620476D01*
X81780000Y-72810952D01*
X81780000Y-72953809D01*
X81732380Y-73144285D01*
X81684761Y-73239523D01*
X81589523Y-73334761D01*
X81446666Y-73382380D01*
X81208571Y-73382380D01*
X82732380Y-73382380D02*
X82160952Y-73382380D01*
X82446666Y-73382380D02*
X82446666Y-72382380D01*
X82351428Y-72525238D01*
X82256190Y-72620476D01*
X82160952Y-72668095D01*
X177395142Y-120784857D02*
X177442761Y-120832476D01*
X177490380Y-120975333D01*
X177490380Y-121070571D01*
X177442761Y-121213428D01*
X177347523Y-121308666D01*
X177252285Y-121356285D01*
X177061809Y-121403904D01*
X176918952Y-121403904D01*
X176728476Y-121356285D01*
X176633238Y-121308666D01*
X176538000Y-121213428D01*
X176490380Y-121070571D01*
X176490380Y-120975333D01*
X176538000Y-120832476D01*
X176585619Y-120784857D01*
X176490380Y-120451523D02*
X176490380Y-119832476D01*
X176871333Y-120165809D01*
X176871333Y-120022952D01*
X176918952Y-119927714D01*
X176966571Y-119880095D01*
X177061809Y-119832476D01*
X177299904Y-119832476D01*
X177395142Y-119880095D01*
X177442761Y-119927714D01*
X177490380Y-120022952D01*
X177490380Y-120308666D01*
X177442761Y-120403904D01*
X177395142Y-120451523D01*
X177490380Y-119356285D02*
X177490380Y-119165809D01*
X177442761Y-119070571D01*
X177395142Y-119022952D01*
X177252285Y-118927714D01*
X177061809Y-118880095D01*
X176680857Y-118880095D01*
X176585619Y-118927714D01*
X176538000Y-118975333D01*
X176490380Y-119070571D01*
X176490380Y-119261047D01*
X176538000Y-119356285D01*
X176585619Y-119403904D01*
X176680857Y-119451523D01*
X176918952Y-119451523D01*
X177014190Y-119403904D01*
X177061809Y-119356285D01*
X177109428Y-119261047D01*
X177109428Y-119070571D01*
X177061809Y-118975333D01*
X177014190Y-118927714D01*
X176918952Y-118880095D01*
X168251142Y-122943857D02*
X168298761Y-122991476D01*
X168346380Y-123134333D01*
X168346380Y-123229571D01*
X168298761Y-123372428D01*
X168203523Y-123467666D01*
X168108285Y-123515285D01*
X167917809Y-123562904D01*
X167774952Y-123562904D01*
X167584476Y-123515285D01*
X167489238Y-123467666D01*
X167394000Y-123372428D01*
X167346380Y-123229571D01*
X167346380Y-123134333D01*
X167394000Y-122991476D01*
X167441619Y-122943857D01*
X167346380Y-122610523D02*
X167346380Y-121991476D01*
X167727333Y-122324809D01*
X167727333Y-122181952D01*
X167774952Y-122086714D01*
X167822571Y-122039095D01*
X167917809Y-121991476D01*
X168155904Y-121991476D01*
X168251142Y-122039095D01*
X168298761Y-122086714D01*
X168346380Y-122181952D01*
X168346380Y-122467666D01*
X168298761Y-122562904D01*
X168251142Y-122610523D01*
X167774952Y-121420047D02*
X167727333Y-121515285D01*
X167679714Y-121562904D01*
X167584476Y-121610523D01*
X167536857Y-121610523D01*
X167441619Y-121562904D01*
X167394000Y-121515285D01*
X167346380Y-121420047D01*
X167346380Y-121229571D01*
X167394000Y-121134333D01*
X167441619Y-121086714D01*
X167536857Y-121039095D01*
X167584476Y-121039095D01*
X167679714Y-121086714D01*
X167727333Y-121134333D01*
X167774952Y-121229571D01*
X167774952Y-121420047D01*
X167822571Y-121515285D01*
X167870190Y-121562904D01*
X167965428Y-121610523D01*
X168155904Y-121610523D01*
X168251142Y-121562904D01*
X168298761Y-121515285D01*
X168346380Y-121420047D01*
X168346380Y-121229571D01*
X168298761Y-121134333D01*
X168251142Y-121086714D01*
X168155904Y-121039095D01*
X167965428Y-121039095D01*
X167870190Y-121086714D01*
X167822571Y-121134333D01*
X167774952Y-121229571D01*
X128643142Y-77573142D02*
X128595523Y-77620761D01*
X128452666Y-77668380D01*
X128357428Y-77668380D01*
X128214571Y-77620761D01*
X128119333Y-77525523D01*
X128071714Y-77430285D01*
X128024095Y-77239809D01*
X128024095Y-77096952D01*
X128071714Y-76906476D01*
X128119333Y-76811238D01*
X128214571Y-76716000D01*
X128357428Y-76668380D01*
X128452666Y-76668380D01*
X128595523Y-76716000D01*
X128643142Y-76763619D01*
X128976476Y-76668380D02*
X129595523Y-76668380D01*
X129262190Y-77049333D01*
X129405047Y-77049333D01*
X129500285Y-77096952D01*
X129547904Y-77144571D01*
X129595523Y-77239809D01*
X129595523Y-77477904D01*
X129547904Y-77573142D01*
X129500285Y-77620761D01*
X129405047Y-77668380D01*
X129119333Y-77668380D01*
X129024095Y-77620761D01*
X128976476Y-77573142D01*
X129928857Y-76668380D02*
X130595523Y-76668380D01*
X130166952Y-77668380D01*
X128643142Y-124817142D02*
X128595523Y-124864761D01*
X128452666Y-124912380D01*
X128357428Y-124912380D01*
X128214571Y-124864761D01*
X128119333Y-124769523D01*
X128071714Y-124674285D01*
X128024095Y-124483809D01*
X128024095Y-124340952D01*
X128071714Y-124150476D01*
X128119333Y-124055238D01*
X128214571Y-123960000D01*
X128357428Y-123912380D01*
X128452666Y-123912380D01*
X128595523Y-123960000D01*
X128643142Y-124007619D01*
X128976476Y-123912380D02*
X129595523Y-123912380D01*
X129262190Y-124293333D01*
X129405047Y-124293333D01*
X129500285Y-124340952D01*
X129547904Y-124388571D01*
X129595523Y-124483809D01*
X129595523Y-124721904D01*
X129547904Y-124817142D01*
X129500285Y-124864761D01*
X129405047Y-124912380D01*
X129119333Y-124912380D01*
X129024095Y-124864761D01*
X128976476Y-124817142D01*
X129976476Y-124007619D02*
X130024095Y-123960000D01*
X130119333Y-123912380D01*
X130357428Y-123912380D01*
X130452666Y-123960000D01*
X130500285Y-124007619D01*
X130547904Y-124102857D01*
X130547904Y-124198095D01*
X130500285Y-124340952D01*
X129928857Y-124912380D01*
X130547904Y-124912380D01*
X190111142Y-77827142D02*
X190063523Y-77874761D01*
X189920666Y-77922380D01*
X189825428Y-77922380D01*
X189682571Y-77874761D01*
X189587333Y-77779523D01*
X189539714Y-77684285D01*
X189492095Y-77493809D01*
X189492095Y-77350952D01*
X189539714Y-77160476D01*
X189587333Y-77065238D01*
X189682571Y-76970000D01*
X189825428Y-76922380D01*
X189920666Y-76922380D01*
X190063523Y-76970000D01*
X190111142Y-77017619D01*
X190492095Y-77017619D02*
X190539714Y-76970000D01*
X190634952Y-76922380D01*
X190873047Y-76922380D01*
X190968285Y-76970000D01*
X191015904Y-77017619D01*
X191063523Y-77112857D01*
X191063523Y-77208095D01*
X191015904Y-77350952D01*
X190444476Y-77922380D01*
X191063523Y-77922380D01*
X191396857Y-76922380D02*
X192063523Y-76922380D01*
X191634952Y-77922380D01*
X105529142Y-124817142D02*
X105481523Y-124864761D01*
X105338666Y-124912380D01*
X105243428Y-124912380D01*
X105100571Y-124864761D01*
X105005333Y-124769523D01*
X104957714Y-124674285D01*
X104910095Y-124483809D01*
X104910095Y-124340952D01*
X104957714Y-124150476D01*
X105005333Y-124055238D01*
X105100571Y-123960000D01*
X105243428Y-123912380D01*
X105338666Y-123912380D01*
X105481523Y-123960000D01*
X105529142Y-124007619D01*
X105910095Y-124007619D02*
X105957714Y-123960000D01*
X106052952Y-123912380D01*
X106291047Y-123912380D01*
X106386285Y-123960000D01*
X106433904Y-124007619D01*
X106481523Y-124102857D01*
X106481523Y-124198095D01*
X106433904Y-124340952D01*
X105862476Y-124912380D01*
X106481523Y-124912380D01*
X106862476Y-124007619D02*
X106910095Y-123960000D01*
X107005333Y-123912380D01*
X107243428Y-123912380D01*
X107338666Y-123960000D01*
X107386285Y-124007619D01*
X107433904Y-124102857D01*
X107433904Y-124198095D01*
X107386285Y-124340952D01*
X106814857Y-124912380D01*
X107433904Y-124912380D01*
X149102380Y-96459523D02*
X148102380Y-96459523D01*
X148816666Y-96126190D01*
X148102380Y-95792857D01*
X149102380Y-95792857D01*
X149102380Y-94792857D02*
X149102380Y-95364285D01*
X149102380Y-95078571D02*
X148102380Y-95078571D01*
X148245238Y-95173809D01*
X148340476Y-95269047D01*
X148388095Y-95364285D01*
X138802380Y-96559523D02*
X137802380Y-96559523D01*
X138516666Y-96226190D01*
X137802380Y-95892857D01*
X138802380Y-95892857D01*
X137897619Y-95464285D02*
X137850000Y-95416666D01*
X137802380Y-95321428D01*
X137802380Y-95083333D01*
X137850000Y-94988095D01*
X137897619Y-94940476D01*
X137992857Y-94892857D01*
X138088095Y-94892857D01*
X138230952Y-94940476D01*
X138802380Y-95511904D01*
X138802380Y-94892857D01*
X175037904Y-122642380D02*
X175037904Y-123451904D01*
X175085523Y-123547142D01*
X175133142Y-123594761D01*
X175228380Y-123642380D01*
X175418857Y-123642380D01*
X175514095Y-123594761D01*
X175561714Y-123547142D01*
X175609333Y-123451904D01*
X175609333Y-122642380D01*
X176609333Y-123642380D02*
X176037904Y-123642380D01*
X176323619Y-123642380D02*
X176323619Y-122642380D01*
X176228380Y-122785238D01*
X176133142Y-122880476D01*
X176037904Y-122928095D01*
X177228380Y-122642380D02*
X177323619Y-122642380D01*
X177418857Y-122690000D01*
X177466476Y-122737619D01*
X177514095Y-122832857D01*
X177561714Y-123023333D01*
X177561714Y-123261428D01*
X177514095Y-123451904D01*
X177466476Y-123547142D01*
X177418857Y-123594761D01*
X177323619Y-123642380D01*
X177228380Y-123642380D01*
X177133142Y-123594761D01*
X177085523Y-123547142D01*
X177037904Y-123451904D01*
X176990285Y-123261428D01*
X176990285Y-123023333D01*
X177037904Y-122832857D01*
X177085523Y-122737619D01*
X177133142Y-122690000D01*
X177228380Y-122642380D01*
X152098476Y-119340380D02*
X152098476Y-120054666D01*
X152050857Y-120197523D01*
X151955619Y-120292761D01*
X151812761Y-120340380D01*
X151717523Y-120340380D01*
X153098476Y-120340380D02*
X152527047Y-120340380D01*
X152812761Y-120340380D02*
X152812761Y-119340380D01*
X152717523Y-119483238D01*
X152622285Y-119578476D01*
X152527047Y-119626095D01*
X153431809Y-119340380D02*
X154050857Y-119340380D01*
X153717523Y-119721333D01*
X153860380Y-119721333D01*
X153955619Y-119768952D01*
X154003238Y-119816571D01*
X154050857Y-119911809D01*
X154050857Y-120149904D01*
X154003238Y-120245142D01*
X153955619Y-120292761D01*
X153860380Y-120340380D01*
X153574666Y-120340380D01*
X153479428Y-120292761D01*
X153431809Y-120245142D01*
X154262666Y-125182380D02*
X154262666Y-125896666D01*
X154215047Y-126039523D01*
X154119809Y-126134761D01*
X153976952Y-126182380D01*
X153881714Y-126182380D01*
X154643619Y-125182380D02*
X155262666Y-125182380D01*
X154929333Y-125563333D01*
X155072190Y-125563333D01*
X155167428Y-125610952D01*
X155215047Y-125658571D01*
X155262666Y-125753809D01*
X155262666Y-125991904D01*
X155215047Y-126087142D01*
X155167428Y-126134761D01*
X155072190Y-126182380D01*
X154786476Y-126182380D01*
X154691238Y-126134761D01*
X154643619Y-126087142D01*
X146180142Y-91366666D02*
X146227761Y-91414285D01*
X146275380Y-91557142D01*
X146275380Y-91652380D01*
X146227761Y-91795238D01*
X146132523Y-91890476D01*
X146037285Y-91938095D01*
X145846809Y-91985714D01*
X145703952Y-91985714D01*
X145513476Y-91938095D01*
X145418238Y-91890476D01*
X145323000Y-91795238D01*
X145275380Y-91652380D01*
X145275380Y-91557142D01*
X145323000Y-91414285D01*
X145370619Y-91366666D01*
X145275380Y-91033333D02*
X145275380Y-90414285D01*
X145656333Y-90747619D01*
X145656333Y-90604761D01*
X145703952Y-90509523D01*
X145751571Y-90461904D01*
X145846809Y-90414285D01*
X146084904Y-90414285D01*
X146180142Y-90461904D01*
X146227761Y-90509523D01*
X146275380Y-90604761D01*
X146275380Y-90890476D01*
X146227761Y-90985714D01*
X146180142Y-91033333D01*
X146230142Y-83804666D02*
X146277761Y-83852285D01*
X146325380Y-83995142D01*
X146325380Y-84090380D01*
X146277761Y-84233238D01*
X146182523Y-84328476D01*
X146087285Y-84376095D01*
X145896809Y-84423714D01*
X145753952Y-84423714D01*
X145563476Y-84376095D01*
X145468238Y-84328476D01*
X145373000Y-84233238D01*
X145325380Y-84090380D01*
X145325380Y-83995142D01*
X145373000Y-83852285D01*
X145420619Y-83804666D01*
X145325380Y-82899904D02*
X145325380Y-83376095D01*
X145801571Y-83423714D01*
X145753952Y-83376095D01*
X145706333Y-83280857D01*
X145706333Y-83042761D01*
X145753952Y-82947523D01*
X145801571Y-82899904D01*
X145896809Y-82852285D01*
X146134904Y-82852285D01*
X146230142Y-82899904D01*
X146277761Y-82947523D01*
X146325380Y-83042761D01*
X146325380Y-83280857D01*
X146277761Y-83376095D01*
X146230142Y-83423714D01*
X180861904Y-104704380D02*
X181433333Y-104704380D01*
X181147619Y-105704380D02*
X181147619Y-104704380D01*
X181766666Y-105704380D02*
X181766666Y-104704380D01*
X182147619Y-104704380D01*
X182242857Y-104752000D01*
X182290476Y-104799619D01*
X182338095Y-104894857D01*
X182338095Y-105037714D01*
X182290476Y-105132952D01*
X182242857Y-105180571D01*
X182147619Y-105228190D01*
X181766666Y-105228190D01*
X183290476Y-105704380D02*
X182719047Y-105704380D01*
X183004761Y-105704380D02*
X183004761Y-104704380D01*
X182909523Y-104847238D01*
X182814285Y-104942476D01*
X182719047Y-104990095D01*
X183909523Y-104704380D02*
X184004761Y-104704380D01*
X184100000Y-104752000D01*
X184147619Y-104799619D01*
X184195238Y-104894857D01*
X184242857Y-105085333D01*
X184242857Y-105323428D01*
X184195238Y-105513904D01*
X184147619Y-105609142D01*
X184100000Y-105656761D01*
X184004761Y-105704380D01*
X183909523Y-105704380D01*
X183814285Y-105656761D01*
X183766666Y-105609142D01*
X183719047Y-105513904D01*
X183671428Y-105323428D01*
X183671428Y-105085333D01*
X183719047Y-104894857D01*
X183766666Y-104799619D01*
X183814285Y-104752000D01*
X183909523Y-104704380D01*
X181578571Y-103747619D02*
X181483333Y-103700000D01*
X181388095Y-103604761D01*
X181245238Y-103461904D01*
X181150000Y-103414285D01*
X181054761Y-103414285D01*
X181102380Y-103652380D02*
X181007142Y-103604761D01*
X180911904Y-103509523D01*
X180864285Y-103319047D01*
X180864285Y-102985714D01*
X180911904Y-102795238D01*
X181007142Y-102700000D01*
X181102380Y-102652380D01*
X181292857Y-102652380D01*
X181388095Y-102700000D01*
X181483333Y-102795238D01*
X181530952Y-102985714D01*
X181530952Y-103319047D01*
X181483333Y-103509523D01*
X181388095Y-103604761D01*
X181292857Y-103652380D01*
X181102380Y-103652380D01*
X182483333Y-103652380D02*
X181911904Y-103652380D01*
X182197619Y-103652380D02*
X182197619Y-102652380D01*
X182102380Y-102795238D01*
X182007142Y-102890476D01*
X181911904Y-102938095D01*
X182816666Y-102652380D02*
X183435714Y-102652380D01*
X183102380Y-103033333D01*
X183245238Y-103033333D01*
X183340476Y-103080952D01*
X183388095Y-103128571D01*
X183435714Y-103223809D01*
X183435714Y-103461904D01*
X183388095Y-103557142D01*
X183340476Y-103604761D01*
X183245238Y-103652380D01*
X182959523Y-103652380D01*
X182864285Y-103604761D01*
X182816666Y-103557142D01*
X190438095Y-95052380D02*
X190438095Y-95861904D01*
X190485714Y-95957142D01*
X190533333Y-96004761D01*
X190628571Y-96052380D01*
X190819047Y-96052380D01*
X190914285Y-96004761D01*
X190961904Y-95957142D01*
X191009523Y-95861904D01*
X191009523Y-95052380D01*
X191390476Y-95052380D02*
X192057142Y-95052380D01*
X191628571Y-96052380D01*
X87518095Y-75228380D02*
X88089523Y-75228380D01*
X87803809Y-76228380D02*
X87803809Y-75228380D01*
X88422857Y-76228380D02*
X88422857Y-75228380D01*
X88803809Y-75228380D01*
X88899047Y-75276000D01*
X88946666Y-75323619D01*
X88994285Y-75418857D01*
X88994285Y-75561714D01*
X88946666Y-75656952D01*
X88899047Y-75704571D01*
X88803809Y-75752190D01*
X88422857Y-75752190D01*
X89327619Y-75228380D02*
X89994285Y-75228380D01*
X89565714Y-76228380D01*
X102973142Y-68968857D02*
X103020761Y-69016476D01*
X103068380Y-69159333D01*
X103068380Y-69254571D01*
X103020761Y-69397428D01*
X102925523Y-69492666D01*
X102830285Y-69540285D01*
X102639809Y-69587904D01*
X102496952Y-69587904D01*
X102306476Y-69540285D01*
X102211238Y-69492666D01*
X102116000Y-69397428D01*
X102068380Y-69254571D01*
X102068380Y-69159333D01*
X102116000Y-69016476D01*
X102163619Y-68968857D01*
X102401714Y-68111714D02*
X103068380Y-68111714D01*
X102020761Y-68349809D02*
X102735047Y-68587904D01*
X102735047Y-67968857D01*
X102068380Y-67683142D02*
X102068380Y-67016476D01*
X103068380Y-67445047D01*
X196786666Y-118172380D02*
X196786666Y-117172380D01*
X197120000Y-117886666D01*
X197453333Y-117172380D01*
X197453333Y-118172380D01*
X197929523Y-118172380D02*
X197929523Y-117172380D01*
X197929523Y-117648571D02*
X198500952Y-117648571D01*
X198500952Y-118172380D02*
X198500952Y-117172380D01*
X199405714Y-117505714D02*
X199405714Y-118172380D01*
X199167619Y-117124761D02*
X198929523Y-117839047D01*
X199548571Y-117839047D01*
X79946666Y-118172380D02*
X79946666Y-117172380D01*
X80280000Y-117886666D01*
X80613333Y-117172380D01*
X80613333Y-118172380D01*
X81089523Y-118172380D02*
X81089523Y-117172380D01*
X81089523Y-117648571D02*
X81660952Y-117648571D01*
X81660952Y-118172380D02*
X81660952Y-117172380D01*
X82041904Y-117172380D02*
X82660952Y-117172380D01*
X82327619Y-117553333D01*
X82470476Y-117553333D01*
X82565714Y-117600952D01*
X82613333Y-117648571D01*
X82660952Y-117743809D01*
X82660952Y-117981904D01*
X82613333Y-118077142D01*
X82565714Y-118124761D01*
X82470476Y-118172380D01*
X82184761Y-118172380D01*
X82089523Y-118124761D01*
X82041904Y-118077142D01*
X196786666Y-64832380D02*
X196786666Y-63832380D01*
X197120000Y-64546666D01*
X197453333Y-63832380D01*
X197453333Y-64832380D01*
X197929523Y-64832380D02*
X197929523Y-63832380D01*
X197929523Y-64308571D02*
X198500952Y-64308571D01*
X198500952Y-64832380D02*
X198500952Y-63832380D01*
X198929523Y-63927619D02*
X198977142Y-63880000D01*
X199072380Y-63832380D01*
X199310476Y-63832380D01*
X199405714Y-63880000D01*
X199453333Y-63927619D01*
X199500952Y-64022857D01*
X199500952Y-64118095D01*
X199453333Y-64260952D01*
X198881904Y-64832380D01*
X199500952Y-64832380D01*
X79946666Y-64832380D02*
X79946666Y-63832380D01*
X80280000Y-64546666D01*
X80613333Y-63832380D01*
X80613333Y-64832380D01*
X81089523Y-64832380D02*
X81089523Y-63832380D01*
X81089523Y-64308571D02*
X81660952Y-64308571D01*
X81660952Y-64832380D02*
X81660952Y-63832380D01*
X82660952Y-64832380D02*
X82089523Y-64832380D01*
X82375238Y-64832380D02*
X82375238Y-63832380D01*
X82280000Y-63975238D01*
X82184761Y-64070476D01*
X82089523Y-64118095D01*
X93223904Y-66622380D02*
X93223904Y-67431904D01*
X93271523Y-67527142D01*
X93319142Y-67574761D01*
X93414380Y-67622380D01*
X93604857Y-67622380D01*
X93700095Y-67574761D01*
X93747714Y-67527142D01*
X93795333Y-67431904D01*
X93795333Y-66622380D01*
X94795333Y-67622380D02*
X94223904Y-67622380D01*
X94509619Y-67622380D02*
X94509619Y-66622380D01*
X94414380Y-66765238D01*
X94319142Y-66860476D01*
X94223904Y-66908095D01*
X95747714Y-67622380D02*
X95176285Y-67622380D01*
X95462000Y-67622380D02*
X95462000Y-66622380D01*
X95366761Y-66765238D01*
X95271523Y-66860476D01*
X95176285Y-66908095D01*
X101494380Y-66562857D02*
X101018190Y-66896190D01*
X101494380Y-67134285D02*
X100494380Y-67134285D01*
X100494380Y-66753333D01*
X100542000Y-66658095D01*
X100589619Y-66610476D01*
X100684857Y-66562857D01*
X100827714Y-66562857D01*
X100922952Y-66610476D01*
X100970571Y-66658095D01*
X101018190Y-66753333D01*
X101018190Y-67134285D01*
X100494380Y-65658095D02*
X100494380Y-66134285D01*
X100970571Y-66181904D01*
X100922952Y-66134285D01*
X100875333Y-66039047D01*
X100875333Y-65800952D01*
X100922952Y-65705714D01*
X100970571Y-65658095D01*
X101065809Y-65610476D01*
X101303904Y-65610476D01*
X101399142Y-65658095D01*
X101446761Y-65705714D01*
X101494380Y-65800952D01*
X101494380Y-66039047D01*
X101446761Y-66134285D01*
X101399142Y-66181904D01*
X101494380Y-65134285D02*
X101494380Y-64943809D01*
X101446761Y-64848571D01*
X101399142Y-64800952D01*
X101256285Y-64705714D01*
X101065809Y-64658095D01*
X100684857Y-64658095D01*
X100589619Y-64705714D01*
X100542000Y-64753333D01*
X100494380Y-64848571D01*
X100494380Y-65039047D01*
X100542000Y-65134285D01*
X100589619Y-65181904D01*
X100684857Y-65229523D01*
X100922952Y-65229523D01*
X101018190Y-65181904D01*
X101065809Y-65134285D01*
X101113428Y-65039047D01*
X101113428Y-64848571D01*
X101065809Y-64753333D01*
X101018190Y-64705714D01*
X100922952Y-64658095D01*
X96984380Y-66562857D02*
X96508190Y-66896190D01*
X96984380Y-67134285D02*
X95984380Y-67134285D01*
X95984380Y-66753333D01*
X96032000Y-66658095D01*
X96079619Y-66610476D01*
X96174857Y-66562857D01*
X96317714Y-66562857D01*
X96412952Y-66610476D01*
X96460571Y-66658095D01*
X96508190Y-66753333D01*
X96508190Y-67134285D01*
X95984380Y-65658095D02*
X95984380Y-66134285D01*
X96460571Y-66181904D01*
X96412952Y-66134285D01*
X96365333Y-66039047D01*
X96365333Y-65800952D01*
X96412952Y-65705714D01*
X96460571Y-65658095D01*
X96555809Y-65610476D01*
X96793904Y-65610476D01*
X96889142Y-65658095D01*
X96936761Y-65705714D01*
X96984380Y-65800952D01*
X96984380Y-66039047D01*
X96936761Y-66134285D01*
X96889142Y-66181904D01*
X96412952Y-65039047D02*
X96365333Y-65134285D01*
X96317714Y-65181904D01*
X96222476Y-65229523D01*
X96174857Y-65229523D01*
X96079619Y-65181904D01*
X96032000Y-65134285D01*
X95984380Y-65039047D01*
X95984380Y-64848571D01*
X96032000Y-64753333D01*
X96079619Y-64705714D01*
X96174857Y-64658095D01*
X96222476Y-64658095D01*
X96317714Y-64705714D01*
X96365333Y-64753333D01*
X96412952Y-64848571D01*
X96412952Y-65039047D01*
X96460571Y-65134285D01*
X96508190Y-65181904D01*
X96603428Y-65229523D01*
X96793904Y-65229523D01*
X96889142Y-65181904D01*
X96936761Y-65134285D01*
X96984380Y-65039047D01*
X96984380Y-64848571D01*
X96936761Y-64753333D01*
X96889142Y-64705714D01*
X96793904Y-64658095D01*
X96603428Y-64658095D01*
X96508190Y-64705714D01*
X96460571Y-64753333D01*
X96412952Y-64848571D01*
X87023904Y-72222380D02*
X87023904Y-71222380D01*
X87262000Y-71222380D01*
X87404857Y-71270000D01*
X87500095Y-71365238D01*
X87547714Y-71460476D01*
X87595333Y-71650952D01*
X87595333Y-71793809D01*
X87547714Y-71984285D01*
X87500095Y-72079523D01*
X87404857Y-72174761D01*
X87262000Y-72222380D01*
X87023904Y-72222380D01*
X87976285Y-71317619D02*
X88023904Y-71270000D01*
X88119142Y-71222380D01*
X88357238Y-71222380D01*
X88452476Y-71270000D01*
X88500095Y-71317619D01*
X88547714Y-71412857D01*
X88547714Y-71508095D01*
X88500095Y-71650952D01*
X87928666Y-72222380D01*
X88547714Y-72222380D01*
X90797142Y-67607142D02*
X90749523Y-67654761D01*
X90606666Y-67702380D01*
X90511428Y-67702380D01*
X90368571Y-67654761D01*
X90273333Y-67559523D01*
X90225714Y-67464285D01*
X90178095Y-67273809D01*
X90178095Y-67130952D01*
X90225714Y-66940476D01*
X90273333Y-66845238D01*
X90368571Y-66750000D01*
X90511428Y-66702380D01*
X90606666Y-66702380D01*
X90749523Y-66750000D01*
X90797142Y-66797619D01*
X91654285Y-67035714D02*
X91654285Y-67702380D01*
X91416190Y-66654761D02*
X91178095Y-67369047D01*
X91797142Y-67369047D01*
X92654285Y-66702380D02*
X92178095Y-66702380D01*
X92130476Y-67178571D01*
X92178095Y-67130952D01*
X92273333Y-67083333D01*
X92511428Y-67083333D01*
X92606666Y-67130952D01*
X92654285Y-67178571D01*
X92701904Y-67273809D01*
X92701904Y-67511904D01*
X92654285Y-67607142D01*
X92606666Y-67654761D01*
X92511428Y-67702380D01*
X92273333Y-67702380D01*
X92178095Y-67654761D01*
X92130476Y-67607142D01*
X89908142Y-65857380D02*
X89574809Y-65381190D01*
X89336714Y-65857380D02*
X89336714Y-64857380D01*
X89717666Y-64857380D01*
X89812904Y-64905000D01*
X89860523Y-64952619D01*
X89908142Y-65047857D01*
X89908142Y-65190714D01*
X89860523Y-65285952D01*
X89812904Y-65333571D01*
X89717666Y-65381190D01*
X89336714Y-65381190D01*
X90241476Y-64857380D02*
X90860523Y-64857380D01*
X90527190Y-65238333D01*
X90670047Y-65238333D01*
X90765285Y-65285952D01*
X90812904Y-65333571D01*
X90860523Y-65428809D01*
X90860523Y-65666904D01*
X90812904Y-65762142D01*
X90765285Y-65809761D01*
X90670047Y-65857380D01*
X90384333Y-65857380D01*
X90289095Y-65809761D01*
X90241476Y-65762142D01*
X91193857Y-64857380D02*
X91812904Y-64857380D01*
X91479571Y-65238333D01*
X91622428Y-65238333D01*
X91717666Y-65285952D01*
X91765285Y-65333571D01*
X91812904Y-65428809D01*
X91812904Y-65666904D01*
X91765285Y-65762142D01*
X91717666Y-65809761D01*
X91622428Y-65857380D01*
X91336714Y-65857380D01*
X91241476Y-65809761D01*
X91193857Y-65762142D01*
X91051142Y-74525142D02*
X91003523Y-74572761D01*
X90860666Y-74620380D01*
X90765428Y-74620380D01*
X90622571Y-74572761D01*
X90527333Y-74477523D01*
X90479714Y-74382285D01*
X90432095Y-74191809D01*
X90432095Y-74048952D01*
X90479714Y-73858476D01*
X90527333Y-73763238D01*
X90622571Y-73668000D01*
X90765428Y-73620380D01*
X90860666Y-73620380D01*
X91003523Y-73668000D01*
X91051142Y-73715619D01*
X91908285Y-73953714D02*
X91908285Y-74620380D01*
X91670190Y-73572761D02*
X91432095Y-74287047D01*
X92051142Y-74287047D01*
X92860666Y-73620380D02*
X92670190Y-73620380D01*
X92574952Y-73668000D01*
X92527333Y-73715619D01*
X92432095Y-73858476D01*
X92384476Y-74048952D01*
X92384476Y-74429904D01*
X92432095Y-74525142D01*
X92479714Y-74572761D01*
X92574952Y-74620380D01*
X92765428Y-74620380D01*
X92860666Y-74572761D01*
X92908285Y-74525142D01*
X92955904Y-74429904D01*
X92955904Y-74191809D01*
X92908285Y-74096571D01*
X92860666Y-74048952D01*
X92765428Y-74001333D01*
X92574952Y-74001333D01*
X92479714Y-74048952D01*
X92432095Y-74096571D01*
X92384476Y-74191809D01*
X190438095Y-87652380D02*
X190438095Y-88461904D01*
X190485714Y-88557142D01*
X190533333Y-88604761D01*
X190628571Y-88652380D01*
X190819047Y-88652380D01*
X190914285Y-88604761D01*
X190961904Y-88557142D01*
X191009523Y-88461904D01*
X191009523Y-87652380D01*
X191533333Y-88652380D02*
X191723809Y-88652380D01*
X191819047Y-88604761D01*
X191866666Y-88557142D01*
X191961904Y-88414285D01*
X192009523Y-88223809D01*
X192009523Y-87842857D01*
X191961904Y-87747619D01*
X191914285Y-87700000D01*
X191819047Y-87652380D01*
X191628571Y-87652380D01*
X191533333Y-87700000D01*
X191485714Y-87747619D01*
X191438095Y-87842857D01*
X191438095Y-88080952D01*
X191485714Y-88176190D01*
X191533333Y-88223809D01*
X191628571Y-88271428D01*
X191819047Y-88271428D01*
X191914285Y-88223809D01*
X191961904Y-88176190D01*
X192009523Y-88080952D01*
X190438095Y-102552380D02*
X190438095Y-103361904D01*
X190485714Y-103457142D01*
X190533333Y-103504761D01*
X190628571Y-103552380D01*
X190819047Y-103552380D01*
X190914285Y-103504761D01*
X190961904Y-103457142D01*
X191009523Y-103361904D01*
X191009523Y-102552380D01*
X191628571Y-102980952D02*
X191533333Y-102933333D01*
X191485714Y-102885714D01*
X191438095Y-102790476D01*
X191438095Y-102742857D01*
X191485714Y-102647619D01*
X191533333Y-102600000D01*
X191628571Y-102552380D01*
X191819047Y-102552380D01*
X191914285Y-102600000D01*
X191961904Y-102647619D01*
X192009523Y-102742857D01*
X192009523Y-102790476D01*
X191961904Y-102885714D01*
X191914285Y-102933333D01*
X191819047Y-102980952D01*
X191628571Y-102980952D01*
X191533333Y-103028571D01*
X191485714Y-103076190D01*
X191438095Y-103171428D01*
X191438095Y-103361904D01*
X191485714Y-103457142D01*
X191533333Y-103504761D01*
X191628571Y-103552380D01*
X191819047Y-103552380D01*
X191914285Y-103504761D01*
X191961904Y-103457142D01*
X192009523Y-103361904D01*
X192009523Y-103171428D01*
X191961904Y-103076190D01*
X191914285Y-103028571D01*
X191819047Y-102980952D01*
X190438095Y-80152380D02*
X190438095Y-80961904D01*
X190485714Y-81057142D01*
X190533333Y-81104761D01*
X190628571Y-81152380D01*
X190819047Y-81152380D01*
X190914285Y-81104761D01*
X190961904Y-81057142D01*
X191009523Y-80961904D01*
X191009523Y-80152380D01*
X191914285Y-80152380D02*
X191723809Y-80152380D01*
X191628571Y-80200000D01*
X191580952Y-80247619D01*
X191485714Y-80390476D01*
X191438095Y-80580952D01*
X191438095Y-80961904D01*
X191485714Y-81057142D01*
X191533333Y-81104761D01*
X191628571Y-81152380D01*
X191819047Y-81152380D01*
X191914285Y-81104761D01*
X191961904Y-81057142D01*
X192009523Y-80961904D01*
X192009523Y-80723809D01*
X191961904Y-80628571D01*
X191914285Y-80580952D01*
X191819047Y-80533333D01*
X191628571Y-80533333D01*
X191533333Y-80580952D01*
X191485714Y-80628571D01*
X191438095Y-80723809D01*
X180861904Y-89804380D02*
X181433333Y-89804380D01*
X181147619Y-90804380D02*
X181147619Y-89804380D01*
X181766666Y-90804380D02*
X181766666Y-89804380D01*
X182147619Y-89804380D01*
X182242857Y-89852000D01*
X182290476Y-89899619D01*
X182338095Y-89994857D01*
X182338095Y-90137714D01*
X182290476Y-90232952D01*
X182242857Y-90280571D01*
X182147619Y-90328190D01*
X181766666Y-90328190D01*
X183290476Y-90804380D02*
X182719047Y-90804380D01*
X183004761Y-90804380D02*
X183004761Y-89804380D01*
X182909523Y-89947238D01*
X182814285Y-90042476D01*
X182719047Y-90090095D01*
X183623809Y-89804380D02*
X184242857Y-89804380D01*
X183909523Y-90185333D01*
X184052380Y-90185333D01*
X184147619Y-90232952D01*
X184195238Y-90280571D01*
X184242857Y-90375809D01*
X184242857Y-90613904D01*
X184195238Y-90709142D01*
X184147619Y-90756761D01*
X184052380Y-90804380D01*
X183766666Y-90804380D01*
X183671428Y-90756761D01*
X183623809Y-90709142D01*
X181338095Y-82304380D02*
X181909523Y-82304380D01*
X181623809Y-83304380D02*
X181623809Y-82304380D01*
X182242857Y-83304380D02*
X182242857Y-82304380D01*
X182623809Y-82304380D01*
X182719047Y-82352000D01*
X182766666Y-82399619D01*
X182814285Y-82494857D01*
X182814285Y-82637714D01*
X182766666Y-82732952D01*
X182719047Y-82780571D01*
X182623809Y-82828190D01*
X182242857Y-82828190D01*
X183385714Y-82732952D02*
X183290476Y-82685333D01*
X183242857Y-82637714D01*
X183195238Y-82542476D01*
X183195238Y-82494857D01*
X183242857Y-82399619D01*
X183290476Y-82352000D01*
X183385714Y-82304380D01*
X183576190Y-82304380D01*
X183671428Y-82352000D01*
X183719047Y-82399619D01*
X183766666Y-82494857D01*
X183766666Y-82542476D01*
X183719047Y-82637714D01*
X183671428Y-82685333D01*
X183576190Y-82732952D01*
X183385714Y-82732952D01*
X183290476Y-82780571D01*
X183242857Y-82828190D01*
X183195238Y-82923428D01*
X183195238Y-83113904D01*
X183242857Y-83209142D01*
X183290476Y-83256761D01*
X183385714Y-83304380D01*
X183576190Y-83304380D01*
X183671428Y-83256761D01*
X183719047Y-83209142D01*
X183766666Y-83113904D01*
X183766666Y-82923428D01*
X183719047Y-82828190D01*
X183671428Y-82780571D01*
X183576190Y-82732952D01*
X181338095Y-97104380D02*
X181909523Y-97104380D01*
X181623809Y-98104380D02*
X181623809Y-97104380D01*
X182242857Y-98104380D02*
X182242857Y-97104380D01*
X182623809Y-97104380D01*
X182719047Y-97152000D01*
X182766666Y-97199619D01*
X182814285Y-97294857D01*
X182814285Y-97437714D01*
X182766666Y-97532952D01*
X182719047Y-97580571D01*
X182623809Y-97628190D01*
X182242857Y-97628190D01*
X183671428Y-97104380D02*
X183480952Y-97104380D01*
X183385714Y-97152000D01*
X183338095Y-97199619D01*
X183242857Y-97342476D01*
X183195238Y-97532952D01*
X183195238Y-97913904D01*
X183242857Y-98009142D01*
X183290476Y-98056761D01*
X183385714Y-98104380D01*
X183576190Y-98104380D01*
X183671428Y-98056761D01*
X183719047Y-98009142D01*
X183766666Y-97913904D01*
X183766666Y-97675809D01*
X183719047Y-97580571D01*
X183671428Y-97532952D01*
X183576190Y-97485333D01*
X183385714Y-97485333D01*
X183290476Y-97532952D01*
X183242857Y-97580571D01*
X183195238Y-97675809D01*
X175022380Y-90142857D02*
X174546190Y-90476190D01*
X175022380Y-90714285D02*
X174022380Y-90714285D01*
X174022380Y-90333333D01*
X174070000Y-90238095D01*
X174117619Y-90190476D01*
X174212857Y-90142857D01*
X174355714Y-90142857D01*
X174450952Y-90190476D01*
X174498571Y-90238095D01*
X174546190Y-90333333D01*
X174546190Y-90714285D01*
X174355714Y-89285714D02*
X175022380Y-89285714D01*
X173974761Y-89523809D02*
X174689047Y-89761904D01*
X174689047Y-89142857D01*
X175022380Y-88714285D02*
X175022380Y-88523809D01*
X174974761Y-88428571D01*
X174927142Y-88380952D01*
X174784285Y-88285714D01*
X174593809Y-88238095D01*
X174212857Y-88238095D01*
X174117619Y-88285714D01*
X174070000Y-88333333D01*
X174022380Y-88428571D01*
X174022380Y-88619047D01*
X174070000Y-88714285D01*
X174117619Y-88761904D01*
X174212857Y-88809523D01*
X174450952Y-88809523D01*
X174546190Y-88761904D01*
X174593809Y-88714285D01*
X174641428Y-88619047D01*
X174641428Y-88428571D01*
X174593809Y-88333333D01*
X174546190Y-88285714D01*
X174450952Y-88238095D01*
X175022380Y-105042857D02*
X174546190Y-105376190D01*
X175022380Y-105614285D02*
X174022380Y-105614285D01*
X174022380Y-105233333D01*
X174070000Y-105138095D01*
X174117619Y-105090476D01*
X174212857Y-105042857D01*
X174355714Y-105042857D01*
X174450952Y-105090476D01*
X174498571Y-105138095D01*
X174546190Y-105233333D01*
X174546190Y-105614285D01*
X174355714Y-104185714D02*
X175022380Y-104185714D01*
X173974761Y-104423809D02*
X174689047Y-104661904D01*
X174689047Y-104042857D01*
X174022380Y-103757142D02*
X174022380Y-103090476D01*
X175022380Y-103519047D01*
X187152380Y-90842857D02*
X186676190Y-91176190D01*
X187152380Y-91414285D02*
X186152380Y-91414285D01*
X186152380Y-91033333D01*
X186200000Y-90938095D01*
X186247619Y-90890476D01*
X186342857Y-90842857D01*
X186485714Y-90842857D01*
X186580952Y-90890476D01*
X186628571Y-90938095D01*
X186676190Y-91033333D01*
X186676190Y-91414285D01*
X186485714Y-89985714D02*
X187152380Y-89985714D01*
X186104761Y-90223809D02*
X186819047Y-90461904D01*
X186819047Y-89842857D01*
X186152380Y-89033333D02*
X186152380Y-89223809D01*
X186200000Y-89319047D01*
X186247619Y-89366666D01*
X186390476Y-89461904D01*
X186580952Y-89509523D01*
X186961904Y-89509523D01*
X187057142Y-89461904D01*
X187104761Y-89414285D01*
X187152380Y-89319047D01*
X187152380Y-89128571D01*
X187104761Y-89033333D01*
X187057142Y-88985714D01*
X186961904Y-88938095D01*
X186723809Y-88938095D01*
X186628571Y-88985714D01*
X186580952Y-89033333D01*
X186533333Y-89128571D01*
X186533333Y-89319047D01*
X186580952Y-89414285D01*
X186628571Y-89461904D01*
X186723809Y-89509523D01*
X187152380Y-93942857D02*
X186676190Y-94276190D01*
X187152380Y-94514285D02*
X186152380Y-94514285D01*
X186152380Y-94133333D01*
X186200000Y-94038095D01*
X186247619Y-93990476D01*
X186342857Y-93942857D01*
X186485714Y-93942857D01*
X186580952Y-93990476D01*
X186628571Y-94038095D01*
X186676190Y-94133333D01*
X186676190Y-94514285D01*
X186485714Y-93085714D02*
X187152380Y-93085714D01*
X186104761Y-93323809D02*
X186819047Y-93561904D01*
X186819047Y-92942857D01*
X186152380Y-92085714D02*
X186152380Y-92561904D01*
X186628571Y-92609523D01*
X186580952Y-92561904D01*
X186533333Y-92466666D01*
X186533333Y-92228571D01*
X186580952Y-92133333D01*
X186628571Y-92085714D01*
X186723809Y-92038095D01*
X186961904Y-92038095D01*
X187057142Y-92085714D01*
X187104761Y-92133333D01*
X187152380Y-92228571D01*
X187152380Y-92466666D01*
X187104761Y-92561904D01*
X187057142Y-92609523D01*
X187202380Y-105792857D02*
X186726190Y-106126190D01*
X187202380Y-106364285D02*
X186202380Y-106364285D01*
X186202380Y-105983333D01*
X186250000Y-105888095D01*
X186297619Y-105840476D01*
X186392857Y-105792857D01*
X186535714Y-105792857D01*
X186630952Y-105840476D01*
X186678571Y-105888095D01*
X186726190Y-105983333D01*
X186726190Y-106364285D01*
X186535714Y-104935714D02*
X187202380Y-104935714D01*
X186154761Y-105173809D02*
X186869047Y-105411904D01*
X186869047Y-104792857D01*
X186535714Y-103983333D02*
X187202380Y-103983333D01*
X186154761Y-104221428D02*
X186869047Y-104459523D01*
X186869047Y-103840476D01*
X187202380Y-108792857D02*
X186726190Y-109126190D01*
X187202380Y-109364285D02*
X186202380Y-109364285D01*
X186202380Y-108983333D01*
X186250000Y-108888095D01*
X186297619Y-108840476D01*
X186392857Y-108792857D01*
X186535714Y-108792857D01*
X186630952Y-108840476D01*
X186678571Y-108888095D01*
X186726190Y-108983333D01*
X186726190Y-109364285D01*
X186535714Y-107935714D02*
X187202380Y-107935714D01*
X186154761Y-108173809D02*
X186869047Y-108411904D01*
X186869047Y-107792857D01*
X186202380Y-107507142D02*
X186202380Y-106888095D01*
X186583333Y-107221428D01*
X186583333Y-107078571D01*
X186630952Y-106983333D01*
X186678571Y-106935714D01*
X186773809Y-106888095D01*
X187011904Y-106888095D01*
X187107142Y-106935714D01*
X187154761Y-106983333D01*
X187202380Y-107078571D01*
X187202380Y-107364285D01*
X187154761Y-107459523D01*
X187107142Y-107507142D01*
X187175380Y-83242857D02*
X186699190Y-83576190D01*
X187175380Y-83814285D02*
X186175380Y-83814285D01*
X186175380Y-83433333D01*
X186223000Y-83338095D01*
X186270619Y-83290476D01*
X186365857Y-83242857D01*
X186508714Y-83242857D01*
X186603952Y-83290476D01*
X186651571Y-83338095D01*
X186699190Y-83433333D01*
X186699190Y-83814285D01*
X186508714Y-82385714D02*
X187175380Y-82385714D01*
X186127761Y-82623809D02*
X186842047Y-82861904D01*
X186842047Y-82242857D01*
X186270619Y-81909523D02*
X186223000Y-81861904D01*
X186175380Y-81766666D01*
X186175380Y-81528571D01*
X186223000Y-81433333D01*
X186270619Y-81385714D01*
X186365857Y-81338095D01*
X186461095Y-81338095D01*
X186603952Y-81385714D01*
X187175380Y-81957142D01*
X187175380Y-81338095D01*
X187252380Y-86342857D02*
X186776190Y-86676190D01*
X187252380Y-86914285D02*
X186252380Y-86914285D01*
X186252380Y-86533333D01*
X186300000Y-86438095D01*
X186347619Y-86390476D01*
X186442857Y-86342857D01*
X186585714Y-86342857D01*
X186680952Y-86390476D01*
X186728571Y-86438095D01*
X186776190Y-86533333D01*
X186776190Y-86914285D01*
X186585714Y-85485714D02*
X187252380Y-85485714D01*
X186204761Y-85723809D02*
X186919047Y-85961904D01*
X186919047Y-85342857D01*
X187252380Y-84438095D02*
X187252380Y-85009523D01*
X187252380Y-84723809D02*
X186252380Y-84723809D01*
X186395238Y-84819047D01*
X186490476Y-84914285D01*
X186538095Y-85009523D01*
X187152380Y-98142857D02*
X186676190Y-98476190D01*
X187152380Y-98714285D02*
X186152380Y-98714285D01*
X186152380Y-98333333D01*
X186200000Y-98238095D01*
X186247619Y-98190476D01*
X186342857Y-98142857D01*
X186485714Y-98142857D01*
X186580952Y-98190476D01*
X186628571Y-98238095D01*
X186676190Y-98333333D01*
X186676190Y-98714285D01*
X186485714Y-97285714D02*
X187152380Y-97285714D01*
X186104761Y-97523809D02*
X186819047Y-97761904D01*
X186819047Y-97142857D01*
X186152380Y-96571428D02*
X186152380Y-96476190D01*
X186200000Y-96380952D01*
X186247619Y-96333333D01*
X186342857Y-96285714D01*
X186533333Y-96238095D01*
X186771428Y-96238095D01*
X186961904Y-96285714D01*
X187057142Y-96333333D01*
X187104761Y-96380952D01*
X187152380Y-96476190D01*
X187152380Y-96571428D01*
X187104761Y-96666666D01*
X187057142Y-96714285D01*
X186961904Y-96761904D01*
X186771428Y-96809523D01*
X186533333Y-96809523D01*
X186342857Y-96761904D01*
X186247619Y-96714285D01*
X186200000Y-96666666D01*
X186152380Y-96571428D01*
X187152380Y-101442857D02*
X186676190Y-101776190D01*
X187152380Y-102014285D02*
X186152380Y-102014285D01*
X186152380Y-101633333D01*
X186200000Y-101538095D01*
X186247619Y-101490476D01*
X186342857Y-101442857D01*
X186485714Y-101442857D01*
X186580952Y-101490476D01*
X186628571Y-101538095D01*
X186676190Y-101633333D01*
X186676190Y-102014285D01*
X186152380Y-101109523D02*
X186152380Y-100490476D01*
X186533333Y-100823809D01*
X186533333Y-100680952D01*
X186580952Y-100585714D01*
X186628571Y-100538095D01*
X186723809Y-100490476D01*
X186961904Y-100490476D01*
X187057142Y-100538095D01*
X187104761Y-100585714D01*
X187152380Y-100680952D01*
X187152380Y-100966666D01*
X187104761Y-101061904D01*
X187057142Y-101109523D01*
X187152380Y-100014285D02*
X187152380Y-99823809D01*
X187104761Y-99728571D01*
X187057142Y-99680952D01*
X186914285Y-99585714D01*
X186723809Y-99538095D01*
X186342857Y-99538095D01*
X186247619Y-99585714D01*
X186200000Y-99633333D01*
X186152380Y-99728571D01*
X186152380Y-99919047D01*
X186200000Y-100014285D01*
X186247619Y-100061904D01*
X186342857Y-100109523D01*
X186580952Y-100109523D01*
X186676190Y-100061904D01*
X186723809Y-100014285D01*
X186771428Y-99919047D01*
X186771428Y-99728571D01*
X186723809Y-99633333D01*
X186676190Y-99585714D01*
X186580952Y-99538095D01*
X175022380Y-82642857D02*
X174546190Y-82976190D01*
X175022380Y-83214285D02*
X174022380Y-83214285D01*
X174022380Y-82833333D01*
X174070000Y-82738095D01*
X174117619Y-82690476D01*
X174212857Y-82642857D01*
X174355714Y-82642857D01*
X174450952Y-82690476D01*
X174498571Y-82738095D01*
X174546190Y-82833333D01*
X174546190Y-83214285D01*
X174022380Y-82309523D02*
X174022380Y-81690476D01*
X174403333Y-82023809D01*
X174403333Y-81880952D01*
X174450952Y-81785714D01*
X174498571Y-81738095D01*
X174593809Y-81690476D01*
X174831904Y-81690476D01*
X174927142Y-81738095D01*
X174974761Y-81785714D01*
X175022380Y-81880952D01*
X175022380Y-82166666D01*
X174974761Y-82261904D01*
X174927142Y-82309523D01*
X174022380Y-81357142D02*
X174022380Y-80690476D01*
X175022380Y-81119047D01*
X175022380Y-97542857D02*
X174546190Y-97876190D01*
X175022380Y-98114285D02*
X174022380Y-98114285D01*
X174022380Y-97733333D01*
X174070000Y-97638095D01*
X174117619Y-97590476D01*
X174212857Y-97542857D01*
X174355714Y-97542857D01*
X174450952Y-97590476D01*
X174498571Y-97638095D01*
X174546190Y-97733333D01*
X174546190Y-98114285D01*
X174022380Y-97209523D02*
X174022380Y-96590476D01*
X174403333Y-96923809D01*
X174403333Y-96780952D01*
X174450952Y-96685714D01*
X174498571Y-96638095D01*
X174593809Y-96590476D01*
X174831904Y-96590476D01*
X174927142Y-96638095D01*
X174974761Y-96685714D01*
X175022380Y-96780952D01*
X175022380Y-97066666D01*
X174974761Y-97161904D01*
X174927142Y-97209523D01*
X174022380Y-95685714D02*
X174022380Y-96161904D01*
X174498571Y-96209523D01*
X174450952Y-96161904D01*
X174403333Y-96066666D01*
X174403333Y-95828571D01*
X174450952Y-95733333D01*
X174498571Y-95685714D01*
X174593809Y-95638095D01*
X174831904Y-95638095D01*
X174927142Y-95685714D01*
X174974761Y-95733333D01*
X175022380Y-95828571D01*
X175022380Y-96066666D01*
X174974761Y-96161904D01*
X174927142Y-96209523D01*
X173047619Y-93571428D02*
X173000000Y-93666666D01*
X172904761Y-93761904D01*
X172761904Y-93904761D01*
X172714285Y-94000000D01*
X172714285Y-94095238D01*
X172952380Y-94047619D02*
X172904761Y-94142857D01*
X172809523Y-94238095D01*
X172619047Y-94285714D01*
X172285714Y-94285714D01*
X172095238Y-94238095D01*
X172000000Y-94142857D01*
X171952380Y-94047619D01*
X171952380Y-93857142D01*
X172000000Y-93761904D01*
X172095238Y-93666666D01*
X172285714Y-93619047D01*
X172619047Y-93619047D01*
X172809523Y-93666666D01*
X172904761Y-93761904D01*
X172952380Y-93857142D01*
X172952380Y-94047619D01*
X172047619Y-93238095D02*
X172000000Y-93190476D01*
X171952380Y-93095238D01*
X171952380Y-92857142D01*
X172000000Y-92761904D01*
X172047619Y-92714285D01*
X172142857Y-92666666D01*
X172238095Y-92666666D01*
X172380952Y-92714285D01*
X172952380Y-93285714D01*
X172952380Y-92666666D01*
X171952380Y-92333333D02*
X171952380Y-91714285D01*
X172333333Y-92047619D01*
X172333333Y-91904761D01*
X172380952Y-91809523D01*
X172428571Y-91761904D01*
X172523809Y-91714285D01*
X172761904Y-91714285D01*
X172857142Y-91761904D01*
X172904761Y-91809523D01*
X172952380Y-91904761D01*
X172952380Y-92190476D01*
X172904761Y-92285714D01*
X172857142Y-92333333D01*
X172947619Y-108621428D02*
X172900000Y-108716666D01*
X172804761Y-108811904D01*
X172661904Y-108954761D01*
X172614285Y-109050000D01*
X172614285Y-109145238D01*
X172852380Y-109097619D02*
X172804761Y-109192857D01*
X172709523Y-109288095D01*
X172519047Y-109335714D01*
X172185714Y-109335714D01*
X171995238Y-109288095D01*
X171900000Y-109192857D01*
X171852380Y-109097619D01*
X171852380Y-108907142D01*
X171900000Y-108811904D01*
X171995238Y-108716666D01*
X172185714Y-108669047D01*
X172519047Y-108669047D01*
X172709523Y-108716666D01*
X172804761Y-108811904D01*
X172852380Y-108907142D01*
X172852380Y-109097619D01*
X171947619Y-108288095D02*
X171900000Y-108240476D01*
X171852380Y-108145238D01*
X171852380Y-107907142D01*
X171900000Y-107811904D01*
X171947619Y-107764285D01*
X172042857Y-107716666D01*
X172138095Y-107716666D01*
X172280952Y-107764285D01*
X172852380Y-108335714D01*
X172852380Y-107716666D01*
X172852380Y-106764285D02*
X172852380Y-107335714D01*
X172852380Y-107050000D02*
X171852380Y-107050000D01*
X171995238Y-107145238D01*
X172090476Y-107240476D01*
X172138095Y-107335714D01*
X181478571Y-94772619D02*
X181383333Y-94725000D01*
X181288095Y-94629761D01*
X181145238Y-94486904D01*
X181050000Y-94439285D01*
X180954761Y-94439285D01*
X181002380Y-94677380D02*
X180907142Y-94629761D01*
X180811904Y-94534523D01*
X180764285Y-94344047D01*
X180764285Y-94010714D01*
X180811904Y-93820238D01*
X180907142Y-93725000D01*
X181002380Y-93677380D01*
X181192857Y-93677380D01*
X181288095Y-93725000D01*
X181383333Y-93820238D01*
X181430952Y-94010714D01*
X181430952Y-94344047D01*
X181383333Y-94534523D01*
X181288095Y-94629761D01*
X181192857Y-94677380D01*
X181002380Y-94677380D01*
X182383333Y-94677380D02*
X181811904Y-94677380D01*
X182097619Y-94677380D02*
X182097619Y-93677380D01*
X182002380Y-93820238D01*
X181907142Y-93915476D01*
X181811904Y-93963095D01*
X182954761Y-94105952D02*
X182859523Y-94058333D01*
X182811904Y-94010714D01*
X182764285Y-93915476D01*
X182764285Y-93867857D01*
X182811904Y-93772619D01*
X182859523Y-93725000D01*
X182954761Y-93677380D01*
X183145238Y-93677380D01*
X183240476Y-93725000D01*
X183288095Y-93772619D01*
X183335714Y-93867857D01*
X183335714Y-93915476D01*
X183288095Y-94010714D01*
X183240476Y-94058333D01*
X183145238Y-94105952D01*
X182954761Y-94105952D01*
X182859523Y-94153571D01*
X182811904Y-94201190D01*
X182764285Y-94296428D01*
X182764285Y-94486904D01*
X182811904Y-94582142D01*
X182859523Y-94629761D01*
X182954761Y-94677380D01*
X183145238Y-94677380D01*
X183240476Y-94629761D01*
X183288095Y-94582142D01*
X183335714Y-94486904D01*
X183335714Y-94296428D01*
X183288095Y-94201190D01*
X183240476Y-94153571D01*
X183145238Y-94105952D01*
X181528571Y-88722619D02*
X181433333Y-88675000D01*
X181338095Y-88579761D01*
X181195238Y-88436904D01*
X181100000Y-88389285D01*
X181004761Y-88389285D01*
X181052380Y-88627380D02*
X180957142Y-88579761D01*
X180861904Y-88484523D01*
X180814285Y-88294047D01*
X180814285Y-87960714D01*
X180861904Y-87770238D01*
X180957142Y-87675000D01*
X181052380Y-87627380D01*
X181242857Y-87627380D01*
X181338095Y-87675000D01*
X181433333Y-87770238D01*
X181480952Y-87960714D01*
X181480952Y-88294047D01*
X181433333Y-88484523D01*
X181338095Y-88579761D01*
X181242857Y-88627380D01*
X181052380Y-88627380D01*
X182433333Y-88627380D02*
X181861904Y-88627380D01*
X182147619Y-88627380D02*
X182147619Y-87627380D01*
X182052380Y-87770238D01*
X181957142Y-87865476D01*
X181861904Y-87913095D01*
X182766666Y-87627380D02*
X183433333Y-87627380D01*
X183004761Y-88627380D01*
X181578571Y-109697619D02*
X181483333Y-109650000D01*
X181388095Y-109554761D01*
X181245238Y-109411904D01*
X181150000Y-109364285D01*
X181054761Y-109364285D01*
X181102380Y-109602380D02*
X181007142Y-109554761D01*
X180911904Y-109459523D01*
X180864285Y-109269047D01*
X180864285Y-108935714D01*
X180911904Y-108745238D01*
X181007142Y-108650000D01*
X181102380Y-108602380D01*
X181292857Y-108602380D01*
X181388095Y-108650000D01*
X181483333Y-108745238D01*
X181530952Y-108935714D01*
X181530952Y-109269047D01*
X181483333Y-109459523D01*
X181388095Y-109554761D01*
X181292857Y-109602380D01*
X181102380Y-109602380D01*
X182483333Y-109602380D02*
X181911904Y-109602380D01*
X182197619Y-109602380D02*
X182197619Y-108602380D01*
X182102380Y-108745238D01*
X182007142Y-108840476D01*
X181911904Y-108888095D01*
X183340476Y-108935714D02*
X183340476Y-109602380D01*
X183102380Y-108554761D02*
X182864285Y-109269047D01*
X183483333Y-109269047D01*
X181503571Y-87247619D02*
X181408333Y-87200000D01*
X181313095Y-87104761D01*
X181170238Y-86961904D01*
X181075000Y-86914285D01*
X180979761Y-86914285D01*
X181027380Y-87152380D02*
X180932142Y-87104761D01*
X180836904Y-87009523D01*
X180789285Y-86819047D01*
X180789285Y-86485714D01*
X180836904Y-86295238D01*
X180932142Y-86200000D01*
X181027380Y-86152380D01*
X181217857Y-86152380D01*
X181313095Y-86200000D01*
X181408333Y-86295238D01*
X181455952Y-86485714D01*
X181455952Y-86819047D01*
X181408333Y-87009523D01*
X181313095Y-87104761D01*
X181217857Y-87152380D01*
X181027380Y-87152380D01*
X182408333Y-87152380D02*
X181836904Y-87152380D01*
X182122619Y-87152380D02*
X182122619Y-86152380D01*
X182027380Y-86295238D01*
X181932142Y-86390476D01*
X181836904Y-86438095D01*
X183027380Y-86152380D02*
X183122619Y-86152380D01*
X183217857Y-86200000D01*
X183265476Y-86247619D01*
X183313095Y-86342857D01*
X183360714Y-86533333D01*
X183360714Y-86771428D01*
X183313095Y-86961904D01*
X183265476Y-87057142D01*
X183217857Y-87104761D01*
X183122619Y-87152380D01*
X183027380Y-87152380D01*
X182932142Y-87104761D01*
X182884523Y-87057142D01*
X182836904Y-86961904D01*
X182789285Y-86771428D01*
X182789285Y-86533333D01*
X182836904Y-86342857D01*
X182884523Y-86247619D01*
X182932142Y-86200000D01*
X183027380Y-86152380D01*
X181654761Y-81322619D02*
X181559523Y-81275000D01*
X181464285Y-81179761D01*
X181321428Y-81036904D01*
X181226190Y-80989285D01*
X181130952Y-80989285D01*
X181178571Y-81227380D02*
X181083333Y-81179761D01*
X180988095Y-81084523D01*
X180940476Y-80894047D01*
X180940476Y-80560714D01*
X180988095Y-80370238D01*
X181083333Y-80275000D01*
X181178571Y-80227380D01*
X181369047Y-80227380D01*
X181464285Y-80275000D01*
X181559523Y-80370238D01*
X181607142Y-80560714D01*
X181607142Y-80894047D01*
X181559523Y-81084523D01*
X181464285Y-81179761D01*
X181369047Y-81227380D01*
X181178571Y-81227380D01*
X182083333Y-81227380D02*
X182273809Y-81227380D01*
X182369047Y-81179761D01*
X182416666Y-81132142D01*
X182511904Y-80989285D01*
X182559523Y-80798809D01*
X182559523Y-80417857D01*
X182511904Y-80322619D01*
X182464285Y-80275000D01*
X182369047Y-80227380D01*
X182178571Y-80227380D01*
X182083333Y-80275000D01*
X182035714Y-80322619D01*
X181988095Y-80417857D01*
X181988095Y-80655952D01*
X182035714Y-80751190D01*
X182083333Y-80798809D01*
X182178571Y-80846428D01*
X182369047Y-80846428D01*
X182464285Y-80798809D01*
X182511904Y-80751190D01*
X182559523Y-80655952D01*
X181504761Y-102147619D02*
X181409523Y-102100000D01*
X181314285Y-102004761D01*
X181171428Y-101861904D01*
X181076190Y-101814285D01*
X180980952Y-101814285D01*
X181028571Y-102052380D02*
X180933333Y-102004761D01*
X180838095Y-101909523D01*
X180790476Y-101719047D01*
X180790476Y-101385714D01*
X180838095Y-101195238D01*
X180933333Y-101100000D01*
X181028571Y-101052380D01*
X181219047Y-101052380D01*
X181314285Y-101100000D01*
X181409523Y-101195238D01*
X181457142Y-101385714D01*
X181457142Y-101719047D01*
X181409523Y-101909523D01*
X181314285Y-102004761D01*
X181219047Y-102052380D01*
X181028571Y-102052380D01*
X182314285Y-101052380D02*
X182123809Y-101052380D01*
X182028571Y-101100000D01*
X181980952Y-101147619D01*
X181885714Y-101290476D01*
X181838095Y-101480952D01*
X181838095Y-101861904D01*
X181885714Y-101957142D01*
X181933333Y-102004761D01*
X182028571Y-102052380D01*
X182219047Y-102052380D01*
X182314285Y-102004761D01*
X182361904Y-101957142D01*
X182409523Y-101861904D01*
X182409523Y-101623809D01*
X182361904Y-101528571D01*
X182314285Y-101480952D01*
X182219047Y-101433333D01*
X182028571Y-101433333D01*
X181933333Y-101480952D01*
X181885714Y-101528571D01*
X181838095Y-101623809D01*
X181604761Y-96247619D02*
X181509523Y-96200000D01*
X181414285Y-96104761D01*
X181271428Y-95961904D01*
X181176190Y-95914285D01*
X181080952Y-95914285D01*
X181128571Y-96152380D02*
X181033333Y-96104761D01*
X180938095Y-96009523D01*
X180890476Y-95819047D01*
X180890476Y-95485714D01*
X180938095Y-95295238D01*
X181033333Y-95200000D01*
X181128571Y-95152380D01*
X181319047Y-95152380D01*
X181414285Y-95200000D01*
X181509523Y-95295238D01*
X181557142Y-95485714D01*
X181557142Y-95819047D01*
X181509523Y-96009523D01*
X181414285Y-96104761D01*
X181319047Y-96152380D01*
X181128571Y-96152380D01*
X182461904Y-95152380D02*
X181985714Y-95152380D01*
X181938095Y-95628571D01*
X181985714Y-95580952D01*
X182080952Y-95533333D01*
X182319047Y-95533333D01*
X182414285Y-95580952D01*
X182461904Y-95628571D01*
X182509523Y-95723809D01*
X182509523Y-95961904D01*
X182461904Y-96057142D01*
X182414285Y-96104761D01*
X182319047Y-96152380D01*
X182080952Y-96152380D01*
X181985714Y-96104761D01*
X181938095Y-96057142D01*
X173047619Y-85595238D02*
X173000000Y-85690476D01*
X172904761Y-85785714D01*
X172761904Y-85928571D01*
X172714285Y-86023809D01*
X172714285Y-86119047D01*
X172952380Y-86071428D02*
X172904761Y-86166666D01*
X172809523Y-86261904D01*
X172619047Y-86309523D01*
X172285714Y-86309523D01*
X172095238Y-86261904D01*
X172000000Y-86166666D01*
X171952380Y-86071428D01*
X171952380Y-85880952D01*
X172000000Y-85785714D01*
X172095238Y-85690476D01*
X172285714Y-85642857D01*
X172619047Y-85642857D01*
X172809523Y-85690476D01*
X172904761Y-85785714D01*
X172952380Y-85880952D01*
X172952380Y-86071428D01*
X171952380Y-85309523D02*
X171952380Y-84690476D01*
X172333333Y-85023809D01*
X172333333Y-84880952D01*
X172380952Y-84785714D01*
X172428571Y-84738095D01*
X172523809Y-84690476D01*
X172761904Y-84690476D01*
X172857142Y-84738095D01*
X172904761Y-84785714D01*
X172952380Y-84880952D01*
X172952380Y-85166666D01*
X172904761Y-85261904D01*
X172857142Y-85309523D01*
X173047619Y-100495238D02*
X173000000Y-100590476D01*
X172904761Y-100685714D01*
X172761904Y-100828571D01*
X172714285Y-100923809D01*
X172714285Y-101019047D01*
X172952380Y-100971428D02*
X172904761Y-101066666D01*
X172809523Y-101161904D01*
X172619047Y-101209523D01*
X172285714Y-101209523D01*
X172095238Y-101161904D01*
X172000000Y-101066666D01*
X171952380Y-100971428D01*
X171952380Y-100780952D01*
X172000000Y-100685714D01*
X172095238Y-100590476D01*
X172285714Y-100542857D01*
X172619047Y-100542857D01*
X172809523Y-100590476D01*
X172904761Y-100685714D01*
X172952380Y-100780952D01*
X172952380Y-100971428D01*
X172952380Y-99590476D02*
X172952380Y-100161904D01*
X172952380Y-99876190D02*
X171952380Y-99876190D01*
X172095238Y-99971428D01*
X172190476Y-100066666D01*
X172238095Y-100161904D01*
X121626380Y-85423333D02*
X122340666Y-85423333D01*
X122483523Y-85470952D01*
X122578761Y-85566190D01*
X122626380Y-85709047D01*
X122626380Y-85804285D01*
X122626380Y-84899523D02*
X122626380Y-84709047D01*
X122578761Y-84613809D01*
X122531142Y-84566190D01*
X122388285Y-84470952D01*
X122197809Y-84423333D01*
X121816857Y-84423333D01*
X121721619Y-84470952D01*
X121674000Y-84518571D01*
X121626380Y-84613809D01*
X121626380Y-84804285D01*
X121674000Y-84899523D01*
X121721619Y-84947142D01*
X121816857Y-84994761D01*
X122054952Y-84994761D01*
X122150190Y-84947142D01*
X122197809Y-84899523D01*
X122245428Y-84804285D01*
X122245428Y-84613809D01*
X122197809Y-84518571D01*
X122150190Y-84470952D01*
X122054952Y-84423333D01*
X171795904Y-109996380D02*
X172367333Y-109996380D01*
X172081619Y-110996380D02*
X172081619Y-109996380D01*
X172700666Y-110996380D02*
X172700666Y-109996380D01*
X173081619Y-109996380D01*
X173176857Y-110044000D01*
X173224476Y-110091619D01*
X173272095Y-110186857D01*
X173272095Y-110329714D01*
X173224476Y-110424952D01*
X173176857Y-110472571D01*
X173081619Y-110520190D01*
X172700666Y-110520190D01*
X174224476Y-110996380D02*
X173653047Y-110996380D01*
X173938761Y-110996380D02*
X173938761Y-109996380D01*
X173843523Y-110139238D01*
X173748285Y-110234476D01*
X173653047Y-110282095D01*
X175129238Y-109996380D02*
X174653047Y-109996380D01*
X174605428Y-110472571D01*
X174653047Y-110424952D01*
X174748285Y-110377333D01*
X174986380Y-110377333D01*
X175081619Y-110424952D01*
X175129238Y-110472571D01*
X175176857Y-110567809D01*
X175176857Y-110805904D01*
X175129238Y-110901142D01*
X175081619Y-110948761D01*
X174986380Y-110996380D01*
X174748285Y-110996380D01*
X174653047Y-110948761D01*
X174605428Y-110901142D01*
X127801904Y-79967380D02*
X128373333Y-79967380D01*
X128087619Y-80967380D02*
X128087619Y-79967380D01*
X128706666Y-80967380D02*
X128706666Y-79967380D01*
X129087619Y-79967380D01*
X129182857Y-80015000D01*
X129230476Y-80062619D01*
X129278095Y-80157857D01*
X129278095Y-80300714D01*
X129230476Y-80395952D01*
X129182857Y-80443571D01*
X129087619Y-80491190D01*
X128706666Y-80491190D01*
X130230476Y-80967380D02*
X129659047Y-80967380D01*
X129944761Y-80967380D02*
X129944761Y-79967380D01*
X129849523Y-80110238D01*
X129754285Y-80205476D01*
X129659047Y-80253095D01*
X131087619Y-80300714D02*
X131087619Y-80967380D01*
X130849523Y-79919761D02*
X130611428Y-80634047D01*
X131230476Y-80634047D01*
X110838095Y-75228380D02*
X111409523Y-75228380D01*
X111123809Y-76228380D02*
X111123809Y-75228380D01*
X111742857Y-76228380D02*
X111742857Y-75228380D01*
X112123809Y-75228380D01*
X112219047Y-75276000D01*
X112266666Y-75323619D01*
X112314285Y-75418857D01*
X112314285Y-75561714D01*
X112266666Y-75656952D01*
X112219047Y-75704571D01*
X112123809Y-75752190D01*
X111742857Y-75752190D01*
X113219047Y-75228380D02*
X112742857Y-75228380D01*
X112695238Y-75704571D01*
X112742857Y-75656952D01*
X112838095Y-75609333D01*
X113076190Y-75609333D01*
X113171428Y-75656952D01*
X113219047Y-75704571D01*
X113266666Y-75799809D01*
X113266666Y-76037904D01*
X113219047Y-76133142D01*
X113171428Y-76180761D01*
X113076190Y-76228380D01*
X112838095Y-76228380D01*
X112742857Y-76180761D01*
X112695238Y-76133142D01*
X110892095Y-122474380D02*
X111463523Y-122474380D01*
X111177809Y-123474380D02*
X111177809Y-122474380D01*
X111796857Y-123474380D02*
X111796857Y-122474380D01*
X112177809Y-122474380D01*
X112273047Y-122522000D01*
X112320666Y-122569619D01*
X112368285Y-122664857D01*
X112368285Y-122807714D01*
X112320666Y-122902952D01*
X112273047Y-122950571D01*
X112177809Y-122998190D01*
X111796857Y-122998190D01*
X113225428Y-122807714D02*
X113225428Y-123474380D01*
X112987333Y-122426761D02*
X112749238Y-123141047D01*
X113368285Y-123141047D01*
X172272095Y-75278380D02*
X172843523Y-75278380D01*
X172557809Y-76278380D02*
X172557809Y-75278380D01*
X173176857Y-76278380D02*
X173176857Y-75278380D01*
X173557809Y-75278380D01*
X173653047Y-75326000D01*
X173700666Y-75373619D01*
X173748285Y-75468857D01*
X173748285Y-75611714D01*
X173700666Y-75706952D01*
X173653047Y-75754571D01*
X173557809Y-75802190D01*
X173176857Y-75802190D01*
X174081619Y-75278380D02*
X174700666Y-75278380D01*
X174367333Y-75659333D01*
X174510190Y-75659333D01*
X174605428Y-75706952D01*
X174653047Y-75754571D01*
X174700666Y-75849809D01*
X174700666Y-76087904D01*
X174653047Y-76183142D01*
X174605428Y-76230761D01*
X174510190Y-76278380D01*
X174224476Y-76278380D01*
X174129238Y-76230761D01*
X174081619Y-76183142D01*
X87812095Y-122514380D02*
X88383523Y-122514380D01*
X88097809Y-123514380D02*
X88097809Y-122514380D01*
X88716857Y-123514380D02*
X88716857Y-122514380D01*
X89097809Y-122514380D01*
X89193047Y-122562000D01*
X89240666Y-122609619D01*
X89288285Y-122704857D01*
X89288285Y-122847714D01*
X89240666Y-122942952D01*
X89193047Y-122990571D01*
X89097809Y-123038190D01*
X88716857Y-123038190D01*
X89669238Y-122609619D02*
X89716857Y-122562000D01*
X89812095Y-122514380D01*
X90050190Y-122514380D01*
X90145428Y-122562000D01*
X90193047Y-122609619D01*
X90240666Y-122704857D01*
X90240666Y-122800095D01*
X90193047Y-122942952D01*
X89621619Y-123514380D01*
X90240666Y-123514380D01*
X147788095Y-79967380D02*
X148359523Y-79967380D01*
X148073809Y-80967380D02*
X148073809Y-79967380D01*
X148692857Y-80967380D02*
X148692857Y-79967380D01*
X149073809Y-79967380D01*
X149169047Y-80015000D01*
X149216666Y-80062619D01*
X149264285Y-80157857D01*
X149264285Y-80300714D01*
X149216666Y-80395952D01*
X149169047Y-80443571D01*
X149073809Y-80491190D01*
X148692857Y-80491190D01*
X150216666Y-80967380D02*
X149645238Y-80967380D01*
X149930952Y-80967380D02*
X149930952Y-79967380D01*
X149835714Y-80110238D01*
X149740476Y-80205476D01*
X149645238Y-80253095D01*
X180332142Y-125293380D02*
X179998809Y-124817190D01*
X179760714Y-125293380D02*
X179760714Y-124293380D01*
X180141666Y-124293380D01*
X180236904Y-124341000D01*
X180284523Y-124388619D01*
X180332142Y-124483857D01*
X180332142Y-124626714D01*
X180284523Y-124721952D01*
X180236904Y-124769571D01*
X180141666Y-124817190D01*
X179760714Y-124817190D01*
X181236904Y-124293380D02*
X180760714Y-124293380D01*
X180713095Y-124769571D01*
X180760714Y-124721952D01*
X180855952Y-124674333D01*
X181094047Y-124674333D01*
X181189285Y-124721952D01*
X181236904Y-124769571D01*
X181284523Y-124864809D01*
X181284523Y-125102904D01*
X181236904Y-125198142D01*
X181189285Y-125245761D01*
X181094047Y-125293380D01*
X180855952Y-125293380D01*
X180760714Y-125245761D01*
X180713095Y-125198142D01*
X181617857Y-124293380D02*
X182284523Y-124293380D01*
X181855952Y-125293380D01*
X189679142Y-125594380D02*
X189345809Y-125118190D01*
X189107714Y-125594380D02*
X189107714Y-124594380D01*
X189488666Y-124594380D01*
X189583904Y-124642000D01*
X189631523Y-124689619D01*
X189679142Y-124784857D01*
X189679142Y-124927714D01*
X189631523Y-125022952D01*
X189583904Y-125070571D01*
X189488666Y-125118190D01*
X189107714Y-125118190D01*
X190583904Y-124594380D02*
X190107714Y-124594380D01*
X190060095Y-125070571D01*
X190107714Y-125022952D01*
X190202952Y-124975333D01*
X190441047Y-124975333D01*
X190536285Y-125022952D01*
X190583904Y-125070571D01*
X190631523Y-125165809D01*
X190631523Y-125403904D01*
X190583904Y-125499142D01*
X190536285Y-125546761D01*
X190441047Y-125594380D01*
X190202952Y-125594380D01*
X190107714Y-125546761D01*
X190060095Y-125499142D01*
X191488666Y-124594380D02*
X191298190Y-124594380D01*
X191202952Y-124642000D01*
X191155333Y-124689619D01*
X191060095Y-124832476D01*
X191012476Y-125022952D01*
X191012476Y-125403904D01*
X191060095Y-125499142D01*
X191107714Y-125546761D01*
X191202952Y-125594380D01*
X191393428Y-125594380D01*
X191488666Y-125546761D01*
X191536285Y-125499142D01*
X191583904Y-125403904D01*
X191583904Y-125165809D01*
X191536285Y-125070571D01*
X191488666Y-125022952D01*
X191393428Y-124975333D01*
X191202952Y-124975333D01*
X191107714Y-125022952D01*
X191060095Y-125070571D01*
X191012476Y-125165809D01*
X174950380Y-125864857D02*
X174474190Y-126198190D01*
X174950380Y-126436285D02*
X173950380Y-126436285D01*
X173950380Y-126055333D01*
X173998000Y-125960095D01*
X174045619Y-125912476D01*
X174140857Y-125864857D01*
X174283714Y-125864857D01*
X174378952Y-125912476D01*
X174426571Y-125960095D01*
X174474190Y-126055333D01*
X174474190Y-126436285D01*
X173950380Y-124960095D02*
X173950380Y-125436285D01*
X174426571Y-125483904D01*
X174378952Y-125436285D01*
X174331333Y-125341047D01*
X174331333Y-125102952D01*
X174378952Y-125007714D01*
X174426571Y-124960095D01*
X174521809Y-124912476D01*
X174759904Y-124912476D01*
X174855142Y-124960095D01*
X174902761Y-125007714D01*
X174950380Y-125102952D01*
X174950380Y-125341047D01*
X174902761Y-125436285D01*
X174855142Y-125483904D01*
X173950380Y-124007714D02*
X173950380Y-124483904D01*
X174426571Y-124531523D01*
X174378952Y-124483904D01*
X174331333Y-124388666D01*
X174331333Y-124150571D01*
X174378952Y-124055333D01*
X174426571Y-124007714D01*
X174521809Y-123960095D01*
X174759904Y-123960095D01*
X174855142Y-124007714D01*
X174902761Y-124055333D01*
X174950380Y-124150571D01*
X174950380Y-124388666D01*
X174902761Y-124483904D01*
X174855142Y-124531523D01*
X119695642Y-72620380D02*
X119362309Y-72144190D01*
X119124214Y-72620380D02*
X119124214Y-71620380D01*
X119505166Y-71620380D01*
X119600404Y-71668000D01*
X119648023Y-71715619D01*
X119695642Y-71810857D01*
X119695642Y-71953714D01*
X119648023Y-72048952D01*
X119600404Y-72096571D01*
X119505166Y-72144190D01*
X119124214Y-72144190D01*
X120076595Y-71715619D02*
X120124214Y-71668000D01*
X120219452Y-71620380D01*
X120457547Y-71620380D01*
X120552785Y-71668000D01*
X120600404Y-71715619D01*
X120648023Y-71810857D01*
X120648023Y-71906095D01*
X120600404Y-72048952D01*
X120028976Y-72620380D01*
X120648023Y-72620380D01*
X121219452Y-72048952D02*
X121124214Y-72001333D01*
X121076595Y-71953714D01*
X121028976Y-71858476D01*
X121028976Y-71810857D01*
X121076595Y-71715619D01*
X121124214Y-71668000D01*
X121219452Y-71620380D01*
X121409928Y-71620380D01*
X121505166Y-71668000D01*
X121552785Y-71715619D01*
X121600404Y-71810857D01*
X121600404Y-71858476D01*
X121552785Y-71953714D01*
X121505166Y-72001333D01*
X121409928Y-72048952D01*
X121219452Y-72048952D01*
X121124214Y-72096571D01*
X121076595Y-72144190D01*
X121028976Y-72239428D01*
X121028976Y-72429904D01*
X121076595Y-72525142D01*
X121124214Y-72572761D01*
X121219452Y-72620380D01*
X121409928Y-72620380D01*
X121505166Y-72572761D01*
X121552785Y-72525142D01*
X121600404Y-72429904D01*
X121600404Y-72239428D01*
X121552785Y-72144190D01*
X121505166Y-72096571D01*
X121409928Y-72048952D01*
X115943142Y-77668380D02*
X115609809Y-77192190D01*
X115371714Y-77668380D02*
X115371714Y-76668380D01*
X115752666Y-76668380D01*
X115847904Y-76716000D01*
X115895523Y-76763619D01*
X115943142Y-76858857D01*
X115943142Y-77001714D01*
X115895523Y-77096952D01*
X115847904Y-77144571D01*
X115752666Y-77192190D01*
X115371714Y-77192190D01*
X116324095Y-76763619D02*
X116371714Y-76716000D01*
X116466952Y-76668380D01*
X116705047Y-76668380D01*
X116800285Y-76716000D01*
X116847904Y-76763619D01*
X116895523Y-76858857D01*
X116895523Y-76954095D01*
X116847904Y-77096952D01*
X116276476Y-77668380D01*
X116895523Y-77668380D01*
X117228857Y-76668380D02*
X117895523Y-76668380D01*
X117466952Y-77668380D01*
X124707142Y-77702380D02*
X124373809Y-77226190D01*
X124135714Y-77702380D02*
X124135714Y-76702380D01*
X124516666Y-76702380D01*
X124611904Y-76750000D01*
X124659523Y-76797619D01*
X124707142Y-76892857D01*
X124707142Y-77035714D01*
X124659523Y-77130952D01*
X124611904Y-77178571D01*
X124516666Y-77226190D01*
X124135714Y-77226190D01*
X125088095Y-76797619D02*
X125135714Y-76750000D01*
X125230952Y-76702380D01*
X125469047Y-76702380D01*
X125564285Y-76750000D01*
X125611904Y-76797619D01*
X125659523Y-76892857D01*
X125659523Y-76988095D01*
X125611904Y-77130952D01*
X125040476Y-77702380D01*
X125659523Y-77702380D01*
X126516666Y-76702380D02*
X126326190Y-76702380D01*
X126230952Y-76750000D01*
X126183333Y-76797619D01*
X126088095Y-76940476D01*
X126040476Y-77130952D01*
X126040476Y-77511904D01*
X126088095Y-77607142D01*
X126135714Y-77654761D01*
X126230952Y-77702380D01*
X126421428Y-77702380D01*
X126516666Y-77654761D01*
X126564285Y-77607142D01*
X126611904Y-77511904D01*
X126611904Y-77273809D01*
X126564285Y-77178571D01*
X126516666Y-77130952D01*
X126421428Y-77083333D01*
X126230952Y-77083333D01*
X126135714Y-77130952D01*
X126088095Y-77178571D01*
X126040476Y-77273809D01*
X123087142Y-72588380D02*
X122753809Y-72112190D01*
X122515714Y-72588380D02*
X122515714Y-71588380D01*
X122896666Y-71588380D01*
X122991904Y-71636000D01*
X123039523Y-71683619D01*
X123087142Y-71778857D01*
X123087142Y-71921714D01*
X123039523Y-72016952D01*
X122991904Y-72064571D01*
X122896666Y-72112190D01*
X122515714Y-72112190D01*
X123468095Y-71683619D02*
X123515714Y-71636000D01*
X123610952Y-71588380D01*
X123849047Y-71588380D01*
X123944285Y-71636000D01*
X123991904Y-71683619D01*
X124039523Y-71778857D01*
X124039523Y-71874095D01*
X123991904Y-72016952D01*
X123420476Y-72588380D01*
X124039523Y-72588380D01*
X124944285Y-71588380D02*
X124468095Y-71588380D01*
X124420476Y-72064571D01*
X124468095Y-72016952D01*
X124563333Y-71969333D01*
X124801428Y-71969333D01*
X124896666Y-72016952D01*
X124944285Y-72064571D01*
X124991904Y-72159809D01*
X124991904Y-72397904D01*
X124944285Y-72493142D01*
X124896666Y-72540761D01*
X124801428Y-72588380D01*
X124563333Y-72588380D01*
X124468095Y-72540761D01*
X124420476Y-72493142D01*
X116594380Y-75142857D02*
X116118190Y-75476190D01*
X116594380Y-75714285D02*
X115594380Y-75714285D01*
X115594380Y-75333333D01*
X115642000Y-75238095D01*
X115689619Y-75190476D01*
X115784857Y-75142857D01*
X115927714Y-75142857D01*
X116022952Y-75190476D01*
X116070571Y-75238095D01*
X116118190Y-75333333D01*
X116118190Y-75714285D01*
X115594380Y-74809523D02*
X115594380Y-74190476D01*
X115975333Y-74523809D01*
X115975333Y-74380952D01*
X116022952Y-74285714D01*
X116070571Y-74238095D01*
X116165809Y-74190476D01*
X116403904Y-74190476D01*
X116499142Y-74238095D01*
X116546761Y-74285714D01*
X116594380Y-74380952D01*
X116594380Y-74666666D01*
X116546761Y-74761904D01*
X116499142Y-74809523D01*
X115689619Y-73809523D02*
X115642000Y-73761904D01*
X115594380Y-73666666D01*
X115594380Y-73428571D01*
X115642000Y-73333333D01*
X115689619Y-73285714D01*
X115784857Y-73238095D01*
X115880095Y-73238095D01*
X116022952Y-73285714D01*
X116594380Y-73857142D01*
X116594380Y-73238095D01*
X119753142Y-119926380D02*
X119419809Y-119450190D01*
X119181714Y-119926380D02*
X119181714Y-118926380D01*
X119562666Y-118926380D01*
X119657904Y-118974000D01*
X119705523Y-119021619D01*
X119753142Y-119116857D01*
X119753142Y-119259714D01*
X119705523Y-119354952D01*
X119657904Y-119402571D01*
X119562666Y-119450190D01*
X119181714Y-119450190D01*
X120134095Y-119021619D02*
X120181714Y-118974000D01*
X120276952Y-118926380D01*
X120515047Y-118926380D01*
X120610285Y-118974000D01*
X120657904Y-119021619D01*
X120705523Y-119116857D01*
X120705523Y-119212095D01*
X120657904Y-119354952D01*
X120086476Y-119926380D01*
X120705523Y-119926380D01*
X121562666Y-119259714D02*
X121562666Y-119926380D01*
X121324571Y-118878761D02*
X121086476Y-119593047D01*
X121705523Y-119593047D01*
X115943142Y-124912380D02*
X115609809Y-124436190D01*
X115371714Y-124912380D02*
X115371714Y-123912380D01*
X115752666Y-123912380D01*
X115847904Y-123960000D01*
X115895523Y-124007619D01*
X115943142Y-124102857D01*
X115943142Y-124245714D01*
X115895523Y-124340952D01*
X115847904Y-124388571D01*
X115752666Y-124436190D01*
X115371714Y-124436190D01*
X116324095Y-124007619D02*
X116371714Y-123960000D01*
X116466952Y-123912380D01*
X116705047Y-123912380D01*
X116800285Y-123960000D01*
X116847904Y-124007619D01*
X116895523Y-124102857D01*
X116895523Y-124198095D01*
X116847904Y-124340952D01*
X116276476Y-124912380D01*
X116895523Y-124912380D01*
X117228857Y-123912380D02*
X117847904Y-123912380D01*
X117514571Y-124293333D01*
X117657428Y-124293333D01*
X117752666Y-124340952D01*
X117800285Y-124388571D01*
X117847904Y-124483809D01*
X117847904Y-124721904D01*
X117800285Y-124817142D01*
X117752666Y-124864761D01*
X117657428Y-124912380D01*
X117371714Y-124912380D01*
X117276476Y-124864761D01*
X117228857Y-124817142D01*
X124765142Y-125012380D02*
X124431809Y-124536190D01*
X124193714Y-125012380D02*
X124193714Y-124012380D01*
X124574666Y-124012380D01*
X124669904Y-124060000D01*
X124717523Y-124107619D01*
X124765142Y-124202857D01*
X124765142Y-124345714D01*
X124717523Y-124440952D01*
X124669904Y-124488571D01*
X124574666Y-124536190D01*
X124193714Y-124536190D01*
X125146095Y-124107619D02*
X125193714Y-124060000D01*
X125288952Y-124012380D01*
X125527047Y-124012380D01*
X125622285Y-124060000D01*
X125669904Y-124107619D01*
X125717523Y-124202857D01*
X125717523Y-124298095D01*
X125669904Y-124440952D01*
X125098476Y-125012380D01*
X125717523Y-125012380D01*
X126098476Y-124107619D02*
X126146095Y-124060000D01*
X126241333Y-124012380D01*
X126479428Y-124012380D01*
X126574666Y-124060000D01*
X126622285Y-124107619D01*
X126669904Y-124202857D01*
X126669904Y-124298095D01*
X126622285Y-124440952D01*
X126050857Y-125012380D01*
X126669904Y-125012380D01*
X123617142Y-120086380D02*
X123283809Y-119610190D01*
X123045714Y-120086380D02*
X123045714Y-119086380D01*
X123426666Y-119086380D01*
X123521904Y-119134000D01*
X123569523Y-119181619D01*
X123617142Y-119276857D01*
X123617142Y-119419714D01*
X123569523Y-119514952D01*
X123521904Y-119562571D01*
X123426666Y-119610190D01*
X123045714Y-119610190D01*
X123998095Y-119181619D02*
X124045714Y-119134000D01*
X124140952Y-119086380D01*
X124379047Y-119086380D01*
X124474285Y-119134000D01*
X124521904Y-119181619D01*
X124569523Y-119276857D01*
X124569523Y-119372095D01*
X124521904Y-119514952D01*
X123950476Y-120086380D01*
X124569523Y-120086380D01*
X125521904Y-120086380D02*
X124950476Y-120086380D01*
X125236190Y-120086380D02*
X125236190Y-119086380D01*
X125140952Y-119229238D01*
X125045714Y-119324476D01*
X124950476Y-119372095D01*
X116580380Y-122240857D02*
X116104190Y-122574190D01*
X116580380Y-122812285D02*
X115580380Y-122812285D01*
X115580380Y-122431333D01*
X115628000Y-122336095D01*
X115675619Y-122288476D01*
X115770857Y-122240857D01*
X115913714Y-122240857D01*
X116008952Y-122288476D01*
X116056571Y-122336095D01*
X116104190Y-122431333D01*
X116104190Y-122812285D01*
X115580380Y-121907523D02*
X115580380Y-121288476D01*
X115961333Y-121621809D01*
X115961333Y-121478952D01*
X116008952Y-121383714D01*
X116056571Y-121336095D01*
X116151809Y-121288476D01*
X116389904Y-121288476D01*
X116485142Y-121336095D01*
X116532761Y-121383714D01*
X116580380Y-121478952D01*
X116580380Y-121764666D01*
X116532761Y-121859904D01*
X116485142Y-121907523D01*
X116580380Y-120336095D02*
X116580380Y-120907523D01*
X116580380Y-120621809D02*
X115580380Y-120621809D01*
X115723238Y-120717047D01*
X115818476Y-120812285D01*
X115866095Y-120907523D01*
X181069142Y-72978380D02*
X180735809Y-72502190D01*
X180497714Y-72978380D02*
X180497714Y-71978380D01*
X180878666Y-71978380D01*
X180973904Y-72026000D01*
X181021523Y-72073619D01*
X181069142Y-72168857D01*
X181069142Y-72311714D01*
X181021523Y-72406952D01*
X180973904Y-72454571D01*
X180878666Y-72502190D01*
X180497714Y-72502190D01*
X181450095Y-72073619D02*
X181497714Y-72026000D01*
X181592952Y-71978380D01*
X181831047Y-71978380D01*
X181926285Y-72026000D01*
X181973904Y-72073619D01*
X182021523Y-72168857D01*
X182021523Y-72264095D01*
X181973904Y-72406952D01*
X181402476Y-72978380D01*
X182021523Y-72978380D01*
X182640571Y-71978380D02*
X182735809Y-71978380D01*
X182831047Y-72026000D01*
X182878666Y-72073619D01*
X182926285Y-72168857D01*
X182973904Y-72359333D01*
X182973904Y-72597428D01*
X182926285Y-72787904D01*
X182878666Y-72883142D01*
X182831047Y-72930761D01*
X182735809Y-72978380D01*
X182640571Y-72978380D01*
X182545333Y-72930761D01*
X182497714Y-72883142D01*
X182450095Y-72787904D01*
X182402476Y-72597428D01*
X182402476Y-72359333D01*
X182450095Y-72168857D01*
X182497714Y-72073619D01*
X182545333Y-72026000D01*
X182640571Y-71978380D01*
X179522380Y-78620857D02*
X179046190Y-78954190D01*
X179522380Y-79192285D02*
X178522380Y-79192285D01*
X178522380Y-78811333D01*
X178570000Y-78716095D01*
X178617619Y-78668476D01*
X178712857Y-78620857D01*
X178855714Y-78620857D01*
X178950952Y-78668476D01*
X178998571Y-78716095D01*
X179046190Y-78811333D01*
X179046190Y-79192285D01*
X179522380Y-77668476D02*
X179522380Y-78239904D01*
X179522380Y-77954190D02*
X178522380Y-77954190D01*
X178665238Y-78049428D01*
X178760476Y-78144666D01*
X178808095Y-78239904D01*
X179522380Y-77192285D02*
X179522380Y-77001809D01*
X179474761Y-76906571D01*
X179427142Y-76858952D01*
X179284285Y-76763714D01*
X179093809Y-76716095D01*
X178712857Y-76716095D01*
X178617619Y-76763714D01*
X178570000Y-76811333D01*
X178522380Y-76906571D01*
X178522380Y-77097047D01*
X178570000Y-77192285D01*
X178617619Y-77239904D01*
X178712857Y-77287523D01*
X178950952Y-77287523D01*
X179046190Y-77239904D01*
X179093809Y-77192285D01*
X179141428Y-77097047D01*
X179141428Y-76906571D01*
X179093809Y-76811333D01*
X179046190Y-76763714D01*
X178950952Y-76716095D01*
X186087142Y-78002380D02*
X185753809Y-77526190D01*
X185515714Y-78002380D02*
X185515714Y-77002380D01*
X185896666Y-77002380D01*
X185991904Y-77050000D01*
X186039523Y-77097619D01*
X186087142Y-77192857D01*
X186087142Y-77335714D01*
X186039523Y-77430952D01*
X185991904Y-77478571D01*
X185896666Y-77526190D01*
X185515714Y-77526190D01*
X187039523Y-78002380D02*
X186468095Y-78002380D01*
X186753809Y-78002380D02*
X186753809Y-77002380D01*
X186658571Y-77145238D01*
X186563333Y-77240476D01*
X186468095Y-77288095D01*
X187610952Y-77430952D02*
X187515714Y-77383333D01*
X187468095Y-77335714D01*
X187420476Y-77240476D01*
X187420476Y-77192857D01*
X187468095Y-77097619D01*
X187515714Y-77050000D01*
X187610952Y-77002380D01*
X187801428Y-77002380D01*
X187896666Y-77050000D01*
X187944285Y-77097619D01*
X187991904Y-77192857D01*
X187991904Y-77240476D01*
X187944285Y-77335714D01*
X187896666Y-77383333D01*
X187801428Y-77430952D01*
X187610952Y-77430952D01*
X187515714Y-77478571D01*
X187468095Y-77526190D01*
X187420476Y-77621428D01*
X187420476Y-77811904D01*
X187468095Y-77907142D01*
X187515714Y-77954761D01*
X187610952Y-78002380D01*
X187801428Y-78002380D01*
X187896666Y-77954761D01*
X187944285Y-77907142D01*
X187991904Y-77811904D01*
X187991904Y-77621428D01*
X187944285Y-77526190D01*
X187896666Y-77478571D01*
X187801428Y-77430952D01*
X184777142Y-72969380D02*
X184443809Y-72493190D01*
X184205714Y-72969380D02*
X184205714Y-71969380D01*
X184586666Y-71969380D01*
X184681904Y-72017000D01*
X184729523Y-72064619D01*
X184777142Y-72159857D01*
X184777142Y-72302714D01*
X184729523Y-72397952D01*
X184681904Y-72445571D01*
X184586666Y-72493190D01*
X184205714Y-72493190D01*
X185729523Y-72969380D02*
X185158095Y-72969380D01*
X185443809Y-72969380D02*
X185443809Y-71969380D01*
X185348571Y-72112238D01*
X185253333Y-72207476D01*
X185158095Y-72255095D01*
X186062857Y-71969380D02*
X186729523Y-71969380D01*
X186300952Y-72969380D01*
X178050380Y-75178857D02*
X177574190Y-75512190D01*
X178050380Y-75750285D02*
X177050380Y-75750285D01*
X177050380Y-75369333D01*
X177098000Y-75274095D01*
X177145619Y-75226476D01*
X177240857Y-75178857D01*
X177383714Y-75178857D01*
X177478952Y-75226476D01*
X177526571Y-75274095D01*
X177574190Y-75369333D01*
X177574190Y-75750285D01*
X177050380Y-74845523D02*
X177050380Y-74226476D01*
X177431333Y-74559809D01*
X177431333Y-74416952D01*
X177478952Y-74321714D01*
X177526571Y-74274095D01*
X177621809Y-74226476D01*
X177859904Y-74226476D01*
X177955142Y-74274095D01*
X178002761Y-74321714D01*
X178050380Y-74416952D01*
X178050380Y-74702666D01*
X178002761Y-74797904D01*
X177955142Y-74845523D01*
X177050380Y-73607428D02*
X177050380Y-73512190D01*
X177098000Y-73416952D01*
X177145619Y-73369333D01*
X177240857Y-73321714D01*
X177431333Y-73274095D01*
X177669428Y-73274095D01*
X177859904Y-73321714D01*
X177955142Y-73369333D01*
X178002761Y-73416952D01*
X178050380Y-73512190D01*
X178050380Y-73607428D01*
X178002761Y-73702666D01*
X177955142Y-73750285D01*
X177859904Y-73797904D01*
X177669428Y-73845523D01*
X177431333Y-73845523D01*
X177240857Y-73797904D01*
X177145619Y-73750285D01*
X177098000Y-73702666D01*
X177050380Y-73607428D01*
X96707142Y-120072380D02*
X96373809Y-119596190D01*
X96135714Y-120072380D02*
X96135714Y-119072380D01*
X96516666Y-119072380D01*
X96611904Y-119120000D01*
X96659523Y-119167619D01*
X96707142Y-119262857D01*
X96707142Y-119405714D01*
X96659523Y-119500952D01*
X96611904Y-119548571D01*
X96516666Y-119596190D01*
X96135714Y-119596190D01*
X97659523Y-120072380D02*
X97088095Y-120072380D01*
X97373809Y-120072380D02*
X97373809Y-119072380D01*
X97278571Y-119215238D01*
X97183333Y-119310476D01*
X97088095Y-119358095D01*
X98516666Y-119072380D02*
X98326190Y-119072380D01*
X98230952Y-119120000D01*
X98183333Y-119167619D01*
X98088095Y-119310476D01*
X98040476Y-119500952D01*
X98040476Y-119881904D01*
X98088095Y-119977142D01*
X98135714Y-120024761D01*
X98230952Y-120072380D01*
X98421428Y-120072380D01*
X98516666Y-120024761D01*
X98564285Y-119977142D01*
X98611904Y-119881904D01*
X98611904Y-119643809D01*
X98564285Y-119548571D01*
X98516666Y-119500952D01*
X98421428Y-119453333D01*
X98230952Y-119453333D01*
X98135714Y-119500952D01*
X98088095Y-119548571D01*
X98040476Y-119643809D01*
X93083142Y-125166380D02*
X92749809Y-124690190D01*
X92511714Y-125166380D02*
X92511714Y-124166380D01*
X92892666Y-124166380D01*
X92987904Y-124214000D01*
X93035523Y-124261619D01*
X93083142Y-124356857D01*
X93083142Y-124499714D01*
X93035523Y-124594952D01*
X92987904Y-124642571D01*
X92892666Y-124690190D01*
X92511714Y-124690190D01*
X94035523Y-125166380D02*
X93464095Y-125166380D01*
X93749809Y-125166380D02*
X93749809Y-124166380D01*
X93654571Y-124309238D01*
X93559333Y-124404476D01*
X93464095Y-124452095D01*
X94940285Y-124166380D02*
X94464095Y-124166380D01*
X94416476Y-124642571D01*
X94464095Y-124594952D01*
X94559333Y-124547333D01*
X94797428Y-124547333D01*
X94892666Y-124594952D01*
X94940285Y-124642571D01*
X94987904Y-124737809D01*
X94987904Y-124975904D01*
X94940285Y-125071142D01*
X94892666Y-125118761D01*
X94797428Y-125166380D01*
X94559333Y-125166380D01*
X94464095Y-125118761D01*
X94416476Y-125071142D01*
X101587142Y-125142380D02*
X101253809Y-124666190D01*
X101015714Y-125142380D02*
X101015714Y-124142380D01*
X101396666Y-124142380D01*
X101491904Y-124190000D01*
X101539523Y-124237619D01*
X101587142Y-124332857D01*
X101587142Y-124475714D01*
X101539523Y-124570952D01*
X101491904Y-124618571D01*
X101396666Y-124666190D01*
X101015714Y-124666190D01*
X102539523Y-125142380D02*
X101968095Y-125142380D01*
X102253809Y-125142380D02*
X102253809Y-124142380D01*
X102158571Y-124285238D01*
X102063333Y-124380476D01*
X101968095Y-124428095D01*
X103396666Y-124475714D02*
X103396666Y-125142380D01*
X103158571Y-124094761D02*
X102920476Y-124809047D01*
X103539523Y-124809047D01*
X100355642Y-120086380D02*
X100022309Y-119610190D01*
X99784214Y-120086380D02*
X99784214Y-119086380D01*
X100165166Y-119086380D01*
X100260404Y-119134000D01*
X100308023Y-119181619D01*
X100355642Y-119276857D01*
X100355642Y-119419714D01*
X100308023Y-119514952D01*
X100260404Y-119562571D01*
X100165166Y-119610190D01*
X99784214Y-119610190D01*
X101308023Y-120086380D02*
X100736595Y-120086380D01*
X101022309Y-120086380D02*
X101022309Y-119086380D01*
X100927071Y-119229238D01*
X100831833Y-119324476D01*
X100736595Y-119372095D01*
X101641357Y-119086380D02*
X102260404Y-119086380D01*
X101927071Y-119467333D01*
X102069928Y-119467333D01*
X102165166Y-119514952D01*
X102212785Y-119562571D01*
X102260404Y-119657809D01*
X102260404Y-119895904D01*
X102212785Y-119991142D01*
X102165166Y-120038761D01*
X102069928Y-120086380D01*
X101784214Y-120086380D01*
X101688976Y-120038761D01*
X101641357Y-119991142D01*
X93568380Y-122308857D02*
X93092190Y-122642190D01*
X93568380Y-122880285D02*
X92568380Y-122880285D01*
X92568380Y-122499333D01*
X92616000Y-122404095D01*
X92663619Y-122356476D01*
X92758857Y-122308857D01*
X92901714Y-122308857D01*
X92996952Y-122356476D01*
X93044571Y-122404095D01*
X93092190Y-122499333D01*
X93092190Y-122880285D01*
X92663619Y-121927904D02*
X92616000Y-121880285D01*
X92568380Y-121785047D01*
X92568380Y-121546952D01*
X92616000Y-121451714D01*
X92663619Y-121404095D01*
X92758857Y-121356476D01*
X92854095Y-121356476D01*
X92996952Y-121404095D01*
X93568380Y-121975523D01*
X93568380Y-121356476D01*
X93568380Y-120880285D02*
X93568380Y-120689809D01*
X93520761Y-120594571D01*
X93473142Y-120546952D01*
X93330285Y-120451714D01*
X93139809Y-120404095D01*
X92758857Y-120404095D01*
X92663619Y-120451714D01*
X92616000Y-120499333D01*
X92568380Y-120594571D01*
X92568380Y-120785047D01*
X92616000Y-120880285D01*
X92663619Y-120927904D01*
X92758857Y-120975523D01*
X92996952Y-120975523D01*
X93092190Y-120927904D01*
X93139809Y-120880285D01*
X93187428Y-120785047D01*
X93187428Y-120594571D01*
X93139809Y-120499333D01*
X93092190Y-120451714D01*
X92996952Y-120404095D01*
X154452380Y-78725666D02*
X153976190Y-79059000D01*
X154452380Y-79297095D02*
X153452380Y-79297095D01*
X153452380Y-78916142D01*
X153500000Y-78820904D01*
X153547619Y-78773285D01*
X153642857Y-78725666D01*
X153785714Y-78725666D01*
X153880952Y-78773285D01*
X153928571Y-78820904D01*
X153976190Y-78916142D01*
X153976190Y-79297095D01*
X154452380Y-77773285D02*
X154452380Y-78344714D01*
X154452380Y-78059000D02*
X153452380Y-78059000D01*
X153595238Y-78154238D01*
X153690476Y-78249476D01*
X153738095Y-78344714D01*
X186484333Y-115514380D02*
X186008142Y-115514380D01*
X186008142Y-114514380D01*
X186722428Y-114514380D02*
X187389095Y-114514380D01*
X186960523Y-115514380D01*
X126825333Y-71826380D02*
X126349142Y-71826380D01*
X126349142Y-70826380D01*
X127587238Y-70826380D02*
X127396761Y-70826380D01*
X127301523Y-70874000D01*
X127253904Y-70921619D01*
X127158666Y-71064476D01*
X127111047Y-71254952D01*
X127111047Y-71635904D01*
X127158666Y-71731142D01*
X127206285Y-71778761D01*
X127301523Y-71826380D01*
X127492000Y-71826380D01*
X127587238Y-71778761D01*
X127634857Y-71731142D01*
X127682476Y-71635904D01*
X127682476Y-71397809D01*
X127634857Y-71302571D01*
X127587238Y-71254952D01*
X127492000Y-71207333D01*
X127301523Y-71207333D01*
X127206285Y-71254952D01*
X127158666Y-71302571D01*
X127111047Y-71397809D01*
X126579333Y-119054380D02*
X126103142Y-119054380D01*
X126103142Y-118054380D01*
X127388857Y-118054380D02*
X126912666Y-118054380D01*
X126865047Y-118530571D01*
X126912666Y-118482952D01*
X127007904Y-118435333D01*
X127246000Y-118435333D01*
X127341238Y-118482952D01*
X127388857Y-118530571D01*
X127436476Y-118625809D01*
X127436476Y-118863904D01*
X127388857Y-118959142D01*
X127341238Y-119006761D01*
X127246000Y-119054380D01*
X127007904Y-119054380D01*
X126912666Y-119006761D01*
X126865047Y-118959142D01*
X187655333Y-72191380D02*
X187179142Y-72191380D01*
X187179142Y-71191380D01*
X188417238Y-71524714D02*
X188417238Y-72191380D01*
X188179142Y-71143761D02*
X187941047Y-71858047D01*
X188560095Y-71858047D01*
X103465333Y-119054380D02*
X102989142Y-119054380D01*
X102989142Y-118054380D01*
X103703428Y-118054380D02*
X104322476Y-118054380D01*
X103989142Y-118435333D01*
X104132000Y-118435333D01*
X104227238Y-118482952D01*
X104274857Y-118530571D01*
X104322476Y-118625809D01*
X104322476Y-118863904D01*
X104274857Y-118959142D01*
X104227238Y-119006761D01*
X104132000Y-119054380D01*
X103846285Y-119054380D01*
X103751047Y-119006761D01*
X103703428Y-118959142D01*
X176114142Y-115958857D02*
X176161761Y-116006476D01*
X176209380Y-116149333D01*
X176209380Y-116244571D01*
X176161761Y-116387428D01*
X176066523Y-116482666D01*
X175971285Y-116530285D01*
X175780809Y-116577904D01*
X175637952Y-116577904D01*
X175447476Y-116530285D01*
X175352238Y-116482666D01*
X175257000Y-116387428D01*
X175209380Y-116244571D01*
X175209380Y-116149333D01*
X175257000Y-116006476D01*
X175304619Y-115958857D01*
X175542714Y-115101714D02*
X176209380Y-115101714D01*
X175161761Y-115339809D02*
X175876047Y-115577904D01*
X175876047Y-114958857D01*
X175542714Y-114149333D02*
X176209380Y-114149333D01*
X175161761Y-114387428D02*
X175876047Y-114625523D01*
X175876047Y-114006476D01*
X170283142Y-116310857D02*
X170330761Y-116358476D01*
X170378380Y-116501333D01*
X170378380Y-116596571D01*
X170330761Y-116739428D01*
X170235523Y-116834666D01*
X170140285Y-116882285D01*
X169949809Y-116929904D01*
X169806952Y-116929904D01*
X169616476Y-116882285D01*
X169521238Y-116834666D01*
X169426000Y-116739428D01*
X169378380Y-116596571D01*
X169378380Y-116501333D01*
X169426000Y-116358476D01*
X169473619Y-116310857D01*
X169711714Y-115453714D02*
X170378380Y-115453714D01*
X169330761Y-115691809D02*
X170045047Y-115929904D01*
X170045047Y-115310857D01*
X169378380Y-115025142D02*
X169378380Y-114406095D01*
X169759333Y-114739428D01*
X169759333Y-114596571D01*
X169806952Y-114501333D01*
X169854571Y-114453714D01*
X169949809Y-114406095D01*
X170187904Y-114406095D01*
X170283142Y-114453714D01*
X170330761Y-114501333D01*
X170378380Y-114596571D01*
X170378380Y-114882285D01*
X170330761Y-114977523D01*
X170283142Y-115025142D01*
X189579142Y-123899142D02*
X189531523Y-123946761D01*
X189388666Y-123994380D01*
X189293428Y-123994380D01*
X189150571Y-123946761D01*
X189055333Y-123851523D01*
X189007714Y-123756285D01*
X188960095Y-123565809D01*
X188960095Y-123422952D01*
X189007714Y-123232476D01*
X189055333Y-123137238D01*
X189150571Y-123042000D01*
X189293428Y-122994380D01*
X189388666Y-122994380D01*
X189531523Y-123042000D01*
X189579142Y-123089619D01*
X190436285Y-123327714D02*
X190436285Y-123994380D01*
X190198190Y-122946761D02*
X189960095Y-123661047D01*
X190579142Y-123661047D01*
X190912476Y-123089619D02*
X190960095Y-123042000D01*
X191055333Y-122994380D01*
X191293428Y-122994380D01*
X191388666Y-123042000D01*
X191436285Y-123089619D01*
X191483904Y-123184857D01*
X191483904Y-123280095D01*
X191436285Y-123422952D01*
X190864857Y-123994380D01*
X191483904Y-123994380D01*
X188429142Y-119934857D02*
X188476761Y-119982476D01*
X188524380Y-120125333D01*
X188524380Y-120220571D01*
X188476761Y-120363428D01*
X188381523Y-120458666D01*
X188286285Y-120506285D01*
X188095809Y-120553904D01*
X187952952Y-120553904D01*
X187762476Y-120506285D01*
X187667238Y-120458666D01*
X187572000Y-120363428D01*
X187524380Y-120220571D01*
X187524380Y-120125333D01*
X187572000Y-119982476D01*
X187619619Y-119934857D01*
X187857714Y-119077714D02*
X188524380Y-119077714D01*
X187476761Y-119315809D02*
X188191047Y-119553904D01*
X188191047Y-118934857D01*
X188524380Y-118030095D02*
X188524380Y-118601523D01*
X188524380Y-118315809D02*
X187524380Y-118315809D01*
X187667238Y-118411047D01*
X187762476Y-118506285D01*
X187810095Y-118601523D01*
X189641642Y-122149142D02*
X189594023Y-122196761D01*
X189451166Y-122244380D01*
X189355928Y-122244380D01*
X189213071Y-122196761D01*
X189117833Y-122101523D01*
X189070214Y-122006285D01*
X189022595Y-121815809D01*
X189022595Y-121672952D01*
X189070214Y-121482476D01*
X189117833Y-121387238D01*
X189213071Y-121292000D01*
X189355928Y-121244380D01*
X189451166Y-121244380D01*
X189594023Y-121292000D01*
X189641642Y-121339619D01*
X190498785Y-121577714D02*
X190498785Y-122244380D01*
X190260690Y-121196761D02*
X190022595Y-121911047D01*
X190641642Y-121911047D01*
X191213071Y-121244380D02*
X191308309Y-121244380D01*
X191403547Y-121292000D01*
X191451166Y-121339619D01*
X191498785Y-121434857D01*
X191546404Y-121625333D01*
X191546404Y-121863428D01*
X191498785Y-122053904D01*
X191451166Y-122149142D01*
X191403547Y-122196761D01*
X191308309Y-122244380D01*
X191213071Y-122244380D01*
X191117833Y-122196761D01*
X191070214Y-122149142D01*
X191022595Y-122053904D01*
X190974976Y-121863428D01*
X190974976Y-121625333D01*
X191022595Y-121434857D01*
X191070214Y-121339619D01*
X191117833Y-121292000D01*
X191213071Y-121244380D01*
X135757142Y-92961857D02*
X135804761Y-93009476D01*
X135852380Y-93152333D01*
X135852380Y-93247571D01*
X135804761Y-93390428D01*
X135709523Y-93485666D01*
X135614285Y-93533285D01*
X135423809Y-93580904D01*
X135280952Y-93580904D01*
X135090476Y-93533285D01*
X134995238Y-93485666D01*
X134900000Y-93390428D01*
X134852380Y-93247571D01*
X134852380Y-93152333D01*
X134900000Y-93009476D01*
X134947619Y-92961857D01*
X135852380Y-92009476D02*
X135852380Y-92580904D01*
X135852380Y-92295190D02*
X134852380Y-92295190D01*
X134995238Y-92390428D01*
X135090476Y-92485666D01*
X135138095Y-92580904D01*
X134852380Y-91676142D02*
X134852380Y-91009476D01*
X135852380Y-91438047D01*
X135757142Y-96892857D02*
X135804761Y-96940476D01*
X135852380Y-97083333D01*
X135852380Y-97178571D01*
X135804761Y-97321428D01*
X135709523Y-97416666D01*
X135614285Y-97464285D01*
X135423809Y-97511904D01*
X135280952Y-97511904D01*
X135090476Y-97464285D01*
X134995238Y-97416666D01*
X134900000Y-97321428D01*
X134852380Y-97178571D01*
X134852380Y-97083333D01*
X134900000Y-96940476D01*
X134947619Y-96892857D01*
X135852380Y-95940476D02*
X135852380Y-96511904D01*
X135852380Y-96226190D02*
X134852380Y-96226190D01*
X134995238Y-96321428D01*
X135090476Y-96416666D01*
X135138095Y-96511904D01*
X134852380Y-95083333D02*
X134852380Y-95273809D01*
X134900000Y-95369047D01*
X134947619Y-95416666D01*
X135090476Y-95511904D01*
X135280952Y-95559523D01*
X135661904Y-95559523D01*
X135757142Y-95511904D01*
X135804761Y-95464285D01*
X135852380Y-95369047D01*
X135852380Y-95178571D01*
X135804761Y-95083333D01*
X135757142Y-95035714D01*
X135661904Y-94988095D01*
X135423809Y-94988095D01*
X135328571Y-95035714D01*
X135280952Y-95083333D01*
X135233333Y-95178571D01*
X135233333Y-95369047D01*
X135280952Y-95464285D01*
X135328571Y-95511904D01*
X135423809Y-95559523D01*
X146180142Y-87785666D02*
X146227761Y-87833285D01*
X146275380Y-87976142D01*
X146275380Y-88071380D01*
X146227761Y-88214238D01*
X146132523Y-88309476D01*
X146037285Y-88357095D01*
X145846809Y-88404714D01*
X145703952Y-88404714D01*
X145513476Y-88357095D01*
X145418238Y-88309476D01*
X145323000Y-88214238D01*
X145275380Y-88071380D01*
X145275380Y-87976142D01*
X145323000Y-87833285D01*
X145370619Y-87785666D01*
X145608714Y-86928523D02*
X146275380Y-86928523D01*
X145227761Y-87166619D02*
X145942047Y-87404714D01*
X145942047Y-86785666D01*
X124707142Y-75807142D02*
X124659523Y-75854761D01*
X124516666Y-75902380D01*
X124421428Y-75902380D01*
X124278571Y-75854761D01*
X124183333Y-75759523D01*
X124135714Y-75664285D01*
X124088095Y-75473809D01*
X124088095Y-75330952D01*
X124135714Y-75140476D01*
X124183333Y-75045238D01*
X124278571Y-74950000D01*
X124421428Y-74902380D01*
X124516666Y-74902380D01*
X124659523Y-74950000D01*
X124707142Y-74997619D01*
X125040476Y-74902380D02*
X125659523Y-74902380D01*
X125326190Y-75283333D01*
X125469047Y-75283333D01*
X125564285Y-75330952D01*
X125611904Y-75378571D01*
X125659523Y-75473809D01*
X125659523Y-75711904D01*
X125611904Y-75807142D01*
X125564285Y-75854761D01*
X125469047Y-75902380D01*
X125183333Y-75902380D01*
X125088095Y-75854761D01*
X125040476Y-75807142D01*
X126516666Y-74902380D02*
X126326190Y-74902380D01*
X126230952Y-74950000D01*
X126183333Y-74997619D01*
X126088095Y-75140476D01*
X126040476Y-75330952D01*
X126040476Y-75711904D01*
X126088095Y-75807142D01*
X126135714Y-75854761D01*
X126230952Y-75902380D01*
X126421428Y-75902380D01*
X126516666Y-75854761D01*
X126564285Y-75807142D01*
X126611904Y-75711904D01*
X126611904Y-75473809D01*
X126564285Y-75378571D01*
X126516666Y-75330952D01*
X126421428Y-75283333D01*
X126230952Y-75283333D01*
X126135714Y-75330952D01*
X126088095Y-75378571D01*
X126040476Y-75473809D01*
X119931142Y-66460857D02*
X119978761Y-66508476D01*
X120026380Y-66651333D01*
X120026380Y-66746571D01*
X119978761Y-66889428D01*
X119883523Y-66984666D01*
X119788285Y-67032285D01*
X119597809Y-67079904D01*
X119454952Y-67079904D01*
X119264476Y-67032285D01*
X119169238Y-66984666D01*
X119074000Y-66889428D01*
X119026380Y-66746571D01*
X119026380Y-66651333D01*
X119074000Y-66508476D01*
X119121619Y-66460857D01*
X119026380Y-66127523D02*
X119026380Y-65508476D01*
X119407333Y-65841809D01*
X119407333Y-65698952D01*
X119454952Y-65603714D01*
X119502571Y-65556095D01*
X119597809Y-65508476D01*
X119835904Y-65508476D01*
X119931142Y-65556095D01*
X119978761Y-65603714D01*
X120026380Y-65698952D01*
X120026380Y-65984666D01*
X119978761Y-66079904D01*
X119931142Y-66127523D01*
X119026380Y-64603714D02*
X119026380Y-65079904D01*
X119502571Y-65127523D01*
X119454952Y-65079904D01*
X119407333Y-64984666D01*
X119407333Y-64746571D01*
X119454952Y-64651333D01*
X119502571Y-64603714D01*
X119597809Y-64556095D01*
X119835904Y-64556095D01*
X119931142Y-64603714D01*
X119978761Y-64651333D01*
X120026380Y-64746571D01*
X120026380Y-64984666D01*
X119978761Y-65079904D01*
X119931142Y-65127523D01*
X116307142Y-66450857D02*
X116354761Y-66498476D01*
X116402380Y-66641333D01*
X116402380Y-66736571D01*
X116354761Y-66879428D01*
X116259523Y-66974666D01*
X116164285Y-67022285D01*
X115973809Y-67069904D01*
X115830952Y-67069904D01*
X115640476Y-67022285D01*
X115545238Y-66974666D01*
X115450000Y-66879428D01*
X115402380Y-66736571D01*
X115402380Y-66641333D01*
X115450000Y-66498476D01*
X115497619Y-66450857D01*
X115402380Y-66117523D02*
X115402380Y-65498476D01*
X115783333Y-65831809D01*
X115783333Y-65688952D01*
X115830952Y-65593714D01*
X115878571Y-65546095D01*
X115973809Y-65498476D01*
X116211904Y-65498476D01*
X116307142Y-65546095D01*
X116354761Y-65593714D01*
X116402380Y-65688952D01*
X116402380Y-65974666D01*
X116354761Y-66069904D01*
X116307142Y-66117523D01*
X115735714Y-64641333D02*
X116402380Y-64641333D01*
X115354761Y-64879428D02*
X116069047Y-65117523D01*
X116069047Y-64498476D01*
X110085142Y-74302857D02*
X110132761Y-74350476D01*
X110180380Y-74493333D01*
X110180380Y-74588571D01*
X110132761Y-74731428D01*
X110037523Y-74826666D01*
X109942285Y-74874285D01*
X109751809Y-74921904D01*
X109608952Y-74921904D01*
X109418476Y-74874285D01*
X109323238Y-74826666D01*
X109228000Y-74731428D01*
X109180380Y-74588571D01*
X109180380Y-74493333D01*
X109228000Y-74350476D01*
X109275619Y-74302857D01*
X109180380Y-73969523D02*
X109180380Y-73350476D01*
X109561333Y-73683809D01*
X109561333Y-73540952D01*
X109608952Y-73445714D01*
X109656571Y-73398095D01*
X109751809Y-73350476D01*
X109989904Y-73350476D01*
X110085142Y-73398095D01*
X110132761Y-73445714D01*
X110180380Y-73540952D01*
X110180380Y-73826666D01*
X110132761Y-73921904D01*
X110085142Y-73969523D01*
X109180380Y-73017142D02*
X109180380Y-72398095D01*
X109561333Y-72731428D01*
X109561333Y-72588571D01*
X109608952Y-72493333D01*
X109656571Y-72445714D01*
X109751809Y-72398095D01*
X109989904Y-72398095D01*
X110085142Y-72445714D01*
X110132761Y-72493333D01*
X110180380Y-72588571D01*
X110180380Y-72874285D01*
X110132761Y-72969523D01*
X110085142Y-73017142D01*
X124815142Y-123167142D02*
X124767523Y-123214761D01*
X124624666Y-123262380D01*
X124529428Y-123262380D01*
X124386571Y-123214761D01*
X124291333Y-123119523D01*
X124243714Y-123024285D01*
X124196095Y-122833809D01*
X124196095Y-122690952D01*
X124243714Y-122500476D01*
X124291333Y-122405238D01*
X124386571Y-122310000D01*
X124529428Y-122262380D01*
X124624666Y-122262380D01*
X124767523Y-122310000D01*
X124815142Y-122357619D01*
X125148476Y-122262380D02*
X125767523Y-122262380D01*
X125434190Y-122643333D01*
X125577047Y-122643333D01*
X125672285Y-122690952D01*
X125719904Y-122738571D01*
X125767523Y-122833809D01*
X125767523Y-123071904D01*
X125719904Y-123167142D01*
X125672285Y-123214761D01*
X125577047Y-123262380D01*
X125291333Y-123262380D01*
X125196095Y-123214761D01*
X125148476Y-123167142D01*
X126719904Y-123262380D02*
X126148476Y-123262380D01*
X126434190Y-123262380D02*
X126434190Y-122262380D01*
X126338952Y-122405238D01*
X126243714Y-122500476D01*
X126148476Y-122548095D01*
X119888142Y-113617857D02*
X119935761Y-113665476D01*
X119983380Y-113808333D01*
X119983380Y-113903571D01*
X119935761Y-114046428D01*
X119840523Y-114141666D01*
X119745285Y-114189285D01*
X119554809Y-114236904D01*
X119411952Y-114236904D01*
X119221476Y-114189285D01*
X119126238Y-114141666D01*
X119031000Y-114046428D01*
X118983380Y-113903571D01*
X118983380Y-113808333D01*
X119031000Y-113665476D01*
X119078619Y-113617857D01*
X118983380Y-113284523D02*
X118983380Y-112665476D01*
X119364333Y-112998809D01*
X119364333Y-112855952D01*
X119411952Y-112760714D01*
X119459571Y-112713095D01*
X119554809Y-112665476D01*
X119792904Y-112665476D01*
X119888142Y-112713095D01*
X119935761Y-112760714D01*
X119983380Y-112855952D01*
X119983380Y-113141666D01*
X119935761Y-113236904D01*
X119888142Y-113284523D01*
X118983380Y-112046428D02*
X118983380Y-111951190D01*
X119031000Y-111855952D01*
X119078619Y-111808333D01*
X119173857Y-111760714D01*
X119364333Y-111713095D01*
X119602428Y-111713095D01*
X119792904Y-111760714D01*
X119888142Y-111808333D01*
X119935761Y-111855952D01*
X119983380Y-111951190D01*
X119983380Y-112046428D01*
X119935761Y-112141666D01*
X119888142Y-112189285D01*
X119792904Y-112236904D01*
X119602428Y-112284523D01*
X119364333Y-112284523D01*
X119173857Y-112236904D01*
X119078619Y-112189285D01*
X119031000Y-112141666D01*
X118983380Y-112046428D01*
X116538142Y-113386857D02*
X116585761Y-113434476D01*
X116633380Y-113577333D01*
X116633380Y-113672571D01*
X116585761Y-113815428D01*
X116490523Y-113910666D01*
X116395285Y-113958285D01*
X116204809Y-114005904D01*
X116061952Y-114005904D01*
X115871476Y-113958285D01*
X115776238Y-113910666D01*
X115681000Y-113815428D01*
X115633380Y-113672571D01*
X115633380Y-113577333D01*
X115681000Y-113434476D01*
X115728619Y-113386857D01*
X115728619Y-113005904D02*
X115681000Y-112958285D01*
X115633380Y-112863047D01*
X115633380Y-112624952D01*
X115681000Y-112529714D01*
X115728619Y-112482095D01*
X115823857Y-112434476D01*
X115919095Y-112434476D01*
X116061952Y-112482095D01*
X116633380Y-113053523D01*
X116633380Y-112434476D01*
X116633380Y-111958285D02*
X116633380Y-111767809D01*
X116585761Y-111672571D01*
X116538142Y-111624952D01*
X116395285Y-111529714D01*
X116204809Y-111482095D01*
X115823857Y-111482095D01*
X115728619Y-111529714D01*
X115681000Y-111577333D01*
X115633380Y-111672571D01*
X115633380Y-111863047D01*
X115681000Y-111958285D01*
X115728619Y-112005904D01*
X115823857Y-112053523D01*
X116061952Y-112053523D01*
X116157190Y-112005904D01*
X116204809Y-111958285D01*
X116252428Y-111863047D01*
X116252428Y-111672571D01*
X116204809Y-111577333D01*
X116157190Y-111529714D01*
X116061952Y-111482095D01*
X110339142Y-121292857D02*
X110386761Y-121340476D01*
X110434380Y-121483333D01*
X110434380Y-121578571D01*
X110386761Y-121721428D01*
X110291523Y-121816666D01*
X110196285Y-121864285D01*
X110005809Y-121911904D01*
X109862952Y-121911904D01*
X109672476Y-121864285D01*
X109577238Y-121816666D01*
X109482000Y-121721428D01*
X109434380Y-121578571D01*
X109434380Y-121483333D01*
X109482000Y-121340476D01*
X109529619Y-121292857D01*
X109529619Y-120911904D02*
X109482000Y-120864285D01*
X109434380Y-120769047D01*
X109434380Y-120530952D01*
X109482000Y-120435714D01*
X109529619Y-120388095D01*
X109624857Y-120340476D01*
X109720095Y-120340476D01*
X109862952Y-120388095D01*
X110434380Y-120959523D01*
X110434380Y-120340476D01*
X109862952Y-119769047D02*
X109815333Y-119864285D01*
X109767714Y-119911904D01*
X109672476Y-119959523D01*
X109624857Y-119959523D01*
X109529619Y-119911904D01*
X109482000Y-119864285D01*
X109434380Y-119769047D01*
X109434380Y-119578571D01*
X109482000Y-119483333D01*
X109529619Y-119435714D01*
X109624857Y-119388095D01*
X109672476Y-119388095D01*
X109767714Y-119435714D01*
X109815333Y-119483333D01*
X109862952Y-119578571D01*
X109862952Y-119769047D01*
X109910571Y-119864285D01*
X109958190Y-119911904D01*
X110053428Y-119959523D01*
X110243904Y-119959523D01*
X110339142Y-119911904D01*
X110386761Y-119864285D01*
X110434380Y-119769047D01*
X110434380Y-119578571D01*
X110386761Y-119483333D01*
X110339142Y-119435714D01*
X110243904Y-119388095D01*
X110053428Y-119388095D01*
X109958190Y-119435714D01*
X109910571Y-119483333D01*
X109862952Y-119578571D01*
X186187142Y-76342142D02*
X186139523Y-76389761D01*
X185996666Y-76437380D01*
X185901428Y-76437380D01*
X185758571Y-76389761D01*
X185663333Y-76294523D01*
X185615714Y-76199285D01*
X185568095Y-76008809D01*
X185568095Y-75865952D01*
X185615714Y-75675476D01*
X185663333Y-75580238D01*
X185758571Y-75485000D01*
X185901428Y-75437380D01*
X185996666Y-75437380D01*
X186139523Y-75485000D01*
X186187142Y-75532619D01*
X186568095Y-75532619D02*
X186615714Y-75485000D01*
X186710952Y-75437380D01*
X186949047Y-75437380D01*
X187044285Y-75485000D01*
X187091904Y-75532619D01*
X187139523Y-75627857D01*
X187139523Y-75723095D01*
X187091904Y-75865952D01*
X186520476Y-76437380D01*
X187139523Y-76437380D01*
X187996666Y-75437380D02*
X187806190Y-75437380D01*
X187710952Y-75485000D01*
X187663333Y-75532619D01*
X187568095Y-75675476D01*
X187520476Y-75865952D01*
X187520476Y-76246904D01*
X187568095Y-76342142D01*
X187615714Y-76389761D01*
X187710952Y-76437380D01*
X187901428Y-76437380D01*
X187996666Y-76389761D01*
X188044285Y-76342142D01*
X188091904Y-76246904D01*
X188091904Y-76008809D01*
X188044285Y-75913571D01*
X187996666Y-75865952D01*
X187901428Y-75818333D01*
X187710952Y-75818333D01*
X187615714Y-75865952D01*
X187568095Y-75913571D01*
X187520476Y-76008809D01*
X181129142Y-66542857D02*
X181176761Y-66590476D01*
X181224380Y-66733333D01*
X181224380Y-66828571D01*
X181176761Y-66971428D01*
X181081523Y-67066666D01*
X180986285Y-67114285D01*
X180795809Y-67161904D01*
X180652952Y-67161904D01*
X180462476Y-67114285D01*
X180367238Y-67066666D01*
X180272000Y-66971428D01*
X180224380Y-66828571D01*
X180224380Y-66733333D01*
X180272000Y-66590476D01*
X180319619Y-66542857D01*
X180319619Y-66161904D02*
X180272000Y-66114285D01*
X180224380Y-66019047D01*
X180224380Y-65780952D01*
X180272000Y-65685714D01*
X180319619Y-65638095D01*
X180414857Y-65590476D01*
X180510095Y-65590476D01*
X180652952Y-65638095D01*
X181224380Y-66209523D01*
X181224380Y-65590476D01*
X180224380Y-64685714D02*
X180224380Y-65161904D01*
X180700571Y-65209523D01*
X180652952Y-65161904D01*
X180605333Y-65066666D01*
X180605333Y-64828571D01*
X180652952Y-64733333D01*
X180700571Y-64685714D01*
X180795809Y-64638095D01*
X181033904Y-64638095D01*
X181129142Y-64685714D01*
X181176761Y-64733333D01*
X181224380Y-64828571D01*
X181224380Y-65066666D01*
X181176761Y-65161904D01*
X181129142Y-65209523D01*
X177429142Y-66484857D02*
X177476761Y-66532476D01*
X177524380Y-66675333D01*
X177524380Y-66770571D01*
X177476761Y-66913428D01*
X177381523Y-67008666D01*
X177286285Y-67056285D01*
X177095809Y-67103904D01*
X176952952Y-67103904D01*
X176762476Y-67056285D01*
X176667238Y-67008666D01*
X176572000Y-66913428D01*
X176524380Y-66770571D01*
X176524380Y-66675333D01*
X176572000Y-66532476D01*
X176619619Y-66484857D01*
X176619619Y-66103904D02*
X176572000Y-66056285D01*
X176524380Y-65961047D01*
X176524380Y-65722952D01*
X176572000Y-65627714D01*
X176619619Y-65580095D01*
X176714857Y-65532476D01*
X176810095Y-65532476D01*
X176952952Y-65580095D01*
X177524380Y-66151523D01*
X177524380Y-65532476D01*
X176857714Y-64675333D02*
X177524380Y-64675333D01*
X176476761Y-64913428D02*
X177191047Y-65151523D01*
X177191047Y-64532476D01*
X171553142Y-74556857D02*
X171600761Y-74604476D01*
X171648380Y-74747333D01*
X171648380Y-74842571D01*
X171600761Y-74985428D01*
X171505523Y-75080666D01*
X171410285Y-75128285D01*
X171219809Y-75175904D01*
X171076952Y-75175904D01*
X170886476Y-75128285D01*
X170791238Y-75080666D01*
X170696000Y-74985428D01*
X170648380Y-74842571D01*
X170648380Y-74747333D01*
X170696000Y-74604476D01*
X170743619Y-74556857D01*
X170743619Y-74175904D02*
X170696000Y-74128285D01*
X170648380Y-74033047D01*
X170648380Y-73794952D01*
X170696000Y-73699714D01*
X170743619Y-73652095D01*
X170838857Y-73604476D01*
X170934095Y-73604476D01*
X171076952Y-73652095D01*
X171648380Y-74223523D01*
X171648380Y-73604476D01*
X170648380Y-73271142D02*
X170648380Y-72652095D01*
X171029333Y-72985428D01*
X171029333Y-72842571D01*
X171076952Y-72747333D01*
X171124571Y-72699714D01*
X171219809Y-72652095D01*
X171457904Y-72652095D01*
X171553142Y-72699714D01*
X171600761Y-72747333D01*
X171648380Y-72842571D01*
X171648380Y-73128285D01*
X171600761Y-73223523D01*
X171553142Y-73271142D01*
X101587142Y-123247142D02*
X101539523Y-123294761D01*
X101396666Y-123342380D01*
X101301428Y-123342380D01*
X101158571Y-123294761D01*
X101063333Y-123199523D01*
X101015714Y-123104285D01*
X100968095Y-122913809D01*
X100968095Y-122770952D01*
X101015714Y-122580476D01*
X101063333Y-122485238D01*
X101158571Y-122390000D01*
X101301428Y-122342380D01*
X101396666Y-122342380D01*
X101539523Y-122390000D01*
X101587142Y-122437619D01*
X101968095Y-122437619D02*
X102015714Y-122390000D01*
X102110952Y-122342380D01*
X102349047Y-122342380D01*
X102444285Y-122390000D01*
X102491904Y-122437619D01*
X102539523Y-122532857D01*
X102539523Y-122628095D01*
X102491904Y-122770952D01*
X101920476Y-123342380D01*
X102539523Y-123342380D01*
X103491904Y-123342380D02*
X102920476Y-123342380D01*
X103206190Y-123342380D02*
X103206190Y-122342380D01*
X103110952Y-122485238D01*
X103015714Y-122580476D01*
X102920476Y-122628095D01*
X96955142Y-113720857D02*
X97002761Y-113768476D01*
X97050380Y-113911333D01*
X97050380Y-114006571D01*
X97002761Y-114149428D01*
X96907523Y-114244666D01*
X96812285Y-114292285D01*
X96621809Y-114339904D01*
X96478952Y-114339904D01*
X96288476Y-114292285D01*
X96193238Y-114244666D01*
X96098000Y-114149428D01*
X96050380Y-114006571D01*
X96050380Y-113911333D01*
X96098000Y-113768476D01*
X96145619Y-113720857D01*
X96145619Y-113339904D02*
X96098000Y-113292285D01*
X96050380Y-113197047D01*
X96050380Y-112958952D01*
X96098000Y-112863714D01*
X96145619Y-112816095D01*
X96240857Y-112768476D01*
X96336095Y-112768476D01*
X96478952Y-112816095D01*
X97050380Y-113387523D01*
X97050380Y-112768476D01*
X96050380Y-112149428D02*
X96050380Y-112054190D01*
X96098000Y-111958952D01*
X96145619Y-111911333D01*
X96240857Y-111863714D01*
X96431333Y-111816095D01*
X96669428Y-111816095D01*
X96859904Y-111863714D01*
X96955142Y-111911333D01*
X97002761Y-111958952D01*
X97050380Y-112054190D01*
X97050380Y-112149428D01*
X97002761Y-112244666D01*
X96955142Y-112292285D01*
X96859904Y-112339904D01*
X96669428Y-112387523D01*
X96431333Y-112387523D01*
X96240857Y-112339904D01*
X96145619Y-112292285D01*
X96098000Y-112244666D01*
X96050380Y-112149428D01*
X93321142Y-113672857D02*
X93368761Y-113720476D01*
X93416380Y-113863333D01*
X93416380Y-113958571D01*
X93368761Y-114101428D01*
X93273523Y-114196666D01*
X93178285Y-114244285D01*
X92987809Y-114291904D01*
X92844952Y-114291904D01*
X92654476Y-114244285D01*
X92559238Y-114196666D01*
X92464000Y-114101428D01*
X92416380Y-113958571D01*
X92416380Y-113863333D01*
X92464000Y-113720476D01*
X92511619Y-113672857D01*
X93416380Y-112720476D02*
X93416380Y-113291904D01*
X93416380Y-113006190D02*
X92416380Y-113006190D01*
X92559238Y-113101428D01*
X92654476Y-113196666D01*
X92702095Y-113291904D01*
X93416380Y-112244285D02*
X93416380Y-112053809D01*
X93368761Y-111958571D01*
X93321142Y-111910952D01*
X93178285Y-111815714D01*
X92987809Y-111768095D01*
X92606857Y-111768095D01*
X92511619Y-111815714D01*
X92464000Y-111863333D01*
X92416380Y-111958571D01*
X92416380Y-112149047D01*
X92464000Y-112244285D01*
X92511619Y-112291904D01*
X92606857Y-112339523D01*
X92844952Y-112339523D01*
X92940190Y-112291904D01*
X92987809Y-112244285D01*
X93035428Y-112149047D01*
X93035428Y-111958571D01*
X92987809Y-111863333D01*
X92940190Y-111815714D01*
X92844952Y-111768095D01*
X86971142Y-121292857D02*
X87018761Y-121340476D01*
X87066380Y-121483333D01*
X87066380Y-121578571D01*
X87018761Y-121721428D01*
X86923523Y-121816666D01*
X86828285Y-121864285D01*
X86637809Y-121911904D01*
X86494952Y-121911904D01*
X86304476Y-121864285D01*
X86209238Y-121816666D01*
X86114000Y-121721428D01*
X86066380Y-121578571D01*
X86066380Y-121483333D01*
X86114000Y-121340476D01*
X86161619Y-121292857D01*
X87066380Y-120340476D02*
X87066380Y-120911904D01*
X87066380Y-120626190D02*
X86066380Y-120626190D01*
X86209238Y-120721428D01*
X86304476Y-120816666D01*
X86352095Y-120911904D01*
X86494952Y-119769047D02*
X86447333Y-119864285D01*
X86399714Y-119911904D01*
X86304476Y-119959523D01*
X86256857Y-119959523D01*
X86161619Y-119911904D01*
X86114000Y-119864285D01*
X86066380Y-119769047D01*
X86066380Y-119578571D01*
X86114000Y-119483333D01*
X86161619Y-119435714D01*
X86256857Y-119388095D01*
X86304476Y-119388095D01*
X86399714Y-119435714D01*
X86447333Y-119483333D01*
X86494952Y-119578571D01*
X86494952Y-119769047D01*
X86542571Y-119864285D01*
X86590190Y-119911904D01*
X86685428Y-119959523D01*
X86875904Y-119959523D01*
X86971142Y-119911904D01*
X87018761Y-119864285D01*
X87066380Y-119769047D01*
X87066380Y-119578571D01*
X87018761Y-119483333D01*
X86971142Y-119435714D01*
X86875904Y-119388095D01*
X86685428Y-119388095D01*
X86590190Y-119435714D01*
X86542571Y-119483333D01*
X86494952Y-119578571D01*
X121626380Y-105997333D02*
X122340666Y-105997333D01*
X122483523Y-106044952D01*
X122578761Y-106140190D01*
X122626380Y-106283047D01*
X122626380Y-106378285D01*
X122054952Y-105378285D02*
X122007333Y-105473523D01*
X121959714Y-105521142D01*
X121864476Y-105568761D01*
X121816857Y-105568761D01*
X121721619Y-105521142D01*
X121674000Y-105473523D01*
X121626380Y-105378285D01*
X121626380Y-105187809D01*
X121674000Y-105092571D01*
X121721619Y-105044952D01*
X121816857Y-104997333D01*
X121864476Y-104997333D01*
X121959714Y-105044952D01*
X122007333Y-105092571D01*
X122054952Y-105187809D01*
X122054952Y-105378285D01*
X122102571Y-105473523D01*
X122150190Y-105521142D01*
X122245428Y-105568761D01*
X122435904Y-105568761D01*
X122531142Y-105521142D01*
X122578761Y-105473523D01*
X122626380Y-105378285D01*
X122626380Y-105187809D01*
X122578761Y-105092571D01*
X122531142Y-105044952D01*
X122435904Y-104997333D01*
X122245428Y-104997333D01*
X122150190Y-105044952D01*
X122102571Y-105092571D01*
X122054952Y-105187809D01*
X155471904Y-104592380D02*
X155471904Y-103592380D01*
X155710000Y-103592380D01*
X155852857Y-103640000D01*
X155948095Y-103735238D01*
X155995714Y-103830476D01*
X156043333Y-104020952D01*
X156043333Y-104163809D01*
X155995714Y-104354285D01*
X155948095Y-104449523D01*
X155852857Y-104544761D01*
X155710000Y-104592380D01*
X155471904Y-104592380D01*
X156995714Y-104592380D02*
X156424285Y-104592380D01*
X156710000Y-104592380D02*
X156710000Y-103592380D01*
X156614761Y-103735238D01*
X156519523Y-103830476D01*
X156424285Y-103878095D01*
X117088095Y-66352380D02*
X117088095Y-67161904D01*
X117135714Y-67257142D01*
X117183333Y-67304761D01*
X117278571Y-67352380D01*
X117469047Y-67352380D01*
X117564285Y-67304761D01*
X117611904Y-67257142D01*
X117659523Y-67161904D01*
X117659523Y-66352380D01*
X118611904Y-66352380D02*
X118135714Y-66352380D01*
X118088095Y-66828571D01*
X118135714Y-66780952D01*
X118230952Y-66733333D01*
X118469047Y-66733333D01*
X118564285Y-66780952D01*
X118611904Y-66828571D01*
X118659523Y-66923809D01*
X118659523Y-67161904D01*
X118611904Y-67257142D01*
X118564285Y-67304761D01*
X118469047Y-67352380D01*
X118230952Y-67352380D01*
X118135714Y-67304761D01*
X118088095Y-67257142D01*
X117088095Y-113452380D02*
X117088095Y-114261904D01*
X117135714Y-114357142D01*
X117183333Y-114404761D01*
X117278571Y-114452380D01*
X117469047Y-114452380D01*
X117564285Y-114404761D01*
X117611904Y-114357142D01*
X117659523Y-114261904D01*
X117659523Y-113452380D01*
X118564285Y-113785714D02*
X118564285Y-114452380D01*
X118326190Y-113404761D02*
X118088095Y-114119047D01*
X118707142Y-114119047D01*
X178210095Y-66202380D02*
X178210095Y-67011904D01*
X178257714Y-67107142D01*
X178305333Y-67154761D01*
X178400571Y-67202380D01*
X178591047Y-67202380D01*
X178686285Y-67154761D01*
X178733904Y-67107142D01*
X178781523Y-67011904D01*
X178781523Y-66202380D01*
X179162476Y-66202380D02*
X179781523Y-66202380D01*
X179448190Y-66583333D01*
X179591047Y-66583333D01*
X179686285Y-66630952D01*
X179733904Y-66678571D01*
X179781523Y-66773809D01*
X179781523Y-67011904D01*
X179733904Y-67107142D01*
X179686285Y-67154761D01*
X179591047Y-67202380D01*
X179305333Y-67202380D01*
X179210095Y-67154761D01*
X179162476Y-67107142D01*
X93968095Y-113512380D02*
X93968095Y-114321904D01*
X94015714Y-114417142D01*
X94063333Y-114464761D01*
X94158571Y-114512380D01*
X94349047Y-114512380D01*
X94444285Y-114464761D01*
X94491904Y-114417142D01*
X94539523Y-114321904D01*
X94539523Y-113512380D01*
X94968095Y-113607619D02*
X95015714Y-113560000D01*
X95110952Y-113512380D01*
X95349047Y-113512380D01*
X95444285Y-113560000D01*
X95491904Y-113607619D01*
X95539523Y-113702857D01*
X95539523Y-113798095D01*
X95491904Y-113940952D01*
X94920476Y-114512380D01*
X95539523Y-114512380D01*
X103068380Y-75096666D02*
X103068380Y-75572857D01*
X102068380Y-75572857D01*
X102496952Y-74620476D02*
X102449333Y-74715714D01*
X102401714Y-74763333D01*
X102306476Y-74810952D01*
X102258857Y-74810952D01*
X102163619Y-74763333D01*
X102116000Y-74715714D01*
X102068380Y-74620476D01*
X102068380Y-74430000D01*
X102116000Y-74334761D01*
X102163619Y-74287142D01*
X102258857Y-74239523D01*
X102306476Y-74239523D01*
X102401714Y-74287142D01*
X102449333Y-74334761D01*
X102496952Y-74430000D01*
X102496952Y-74620476D01*
X102544571Y-74715714D01*
X102592190Y-74763333D01*
X102687428Y-74810952D01*
X102877904Y-74810952D01*
X102973142Y-74763333D01*
X103020761Y-74715714D01*
X103068380Y-74620476D01*
X103068380Y-74430000D01*
X103020761Y-74334761D01*
X102973142Y-74287142D01*
X102877904Y-74239523D01*
X102687428Y-74239523D01*
X102592190Y-74287142D01*
X102544571Y-74334761D01*
X102496952Y-74430000D01*
X144131380Y-107941666D02*
X144131380Y-108417857D01*
X143131380Y-108417857D01*
X143226619Y-107655952D02*
X143179000Y-107608333D01*
X143131380Y-107513095D01*
X143131380Y-107275000D01*
X143179000Y-107179761D01*
X143226619Y-107132142D01*
X143321857Y-107084523D01*
X143417095Y-107084523D01*
X143559952Y-107132142D01*
X144131380Y-107703571D01*
X144131380Y-107084523D01*
X161732380Y-81446666D02*
X161732380Y-81922857D01*
X160732380Y-81922857D01*
X161732380Y-80589523D02*
X161732380Y-81160952D01*
X161732380Y-80875238D02*
X160732380Y-80875238D01*
X160875238Y-80970476D01*
X160970476Y-81065714D01*
X161018095Y-81160952D01*
X158533333Y-77127142D02*
X158485714Y-77174761D01*
X158342857Y-77222380D01*
X158247619Y-77222380D01*
X158104761Y-77174761D01*
X158009523Y-77079523D01*
X157961904Y-76984285D01*
X157914285Y-76793809D01*
X157914285Y-76650952D01*
X157961904Y-76460476D01*
X158009523Y-76365238D01*
X158104761Y-76270000D01*
X158247619Y-76222380D01*
X158342857Y-76222380D01*
X158485714Y-76270000D01*
X158533333Y-76317619D01*
X158914285Y-76317619D02*
X158961904Y-76270000D01*
X159057142Y-76222380D01*
X159295238Y-76222380D01*
X159390476Y-76270000D01*
X159438095Y-76317619D01*
X159485714Y-76412857D01*
X159485714Y-76508095D01*
X159438095Y-76650952D01*
X158866666Y-77222380D01*
X159485714Y-77222380D01*
X167787333Y-77127142D02*
X167739714Y-77174761D01*
X167596857Y-77222380D01*
X167501619Y-77222380D01*
X167358761Y-77174761D01*
X167263523Y-77079523D01*
X167215904Y-76984285D01*
X167168285Y-76793809D01*
X167168285Y-76650952D01*
X167215904Y-76460476D01*
X167263523Y-76365238D01*
X167358761Y-76270000D01*
X167501619Y-76222380D01*
X167596857Y-76222380D01*
X167739714Y-76270000D01*
X167787333Y-76317619D01*
X168739714Y-77222380D02*
X168168285Y-77222380D01*
X168454000Y-77222380D02*
X168454000Y-76222380D01*
X168358761Y-76365238D01*
X168263523Y-76460476D01*
X168168285Y-76508095D01*
X155428571Y-95333333D02*
X155428571Y-95666666D01*
X155952380Y-95666666D02*
X154952380Y-95666666D01*
X154952380Y-95190476D01*
X155952380Y-94285714D02*
X155952380Y-94857142D01*
X155952380Y-94571428D02*
X154952380Y-94571428D01*
X155095238Y-94666666D01*
X155190476Y-94761904D01*
X155238095Y-94857142D01*
M02*
