G04 #@! TF.GenerationSoftware,KiCad,Pcbnew,(5.1.5)-3*
G04 #@! TF.CreationDate,2020-03-04T17:17:07-08:00*
G04 #@! TF.ProjectId,tail,7461696c-2e6b-4696-9361-645f70636258,rev?*
G04 #@! TF.SameCoordinates,Original*
G04 #@! TF.FileFunction,Legend,Bot*
G04 #@! TF.FilePolarity,Positive*
%FSLAX46Y46*%
G04 Gerber Fmt 4.6, Leading zero omitted, Abs format (unit mm)*
G04 Created by KiCad (PCBNEW (5.1.5)-3) date 2020-03-04 17:17:07*
%MOMM*%
%LPD*%
G04 APERTURE LIST*
%ADD10C,0.150000*%
%ADD11C,0.508000*%
%ADD12C,0.100000*%
%ADD13C,0.120000*%
%ADD14C,0.152400*%
G04 APERTURE END LIST*
D10*
X147772380Y-66357619D02*
X147772380Y-65881428D01*
X146772380Y-65881428D01*
X147248571Y-66690952D02*
X147248571Y-67024285D01*
X147772380Y-67167142D02*
X147772380Y-66690952D01*
X146772380Y-66690952D01*
X146772380Y-67167142D01*
X147248571Y-67929047D02*
X147248571Y-67595714D01*
X147772380Y-67595714D02*
X146772380Y-67595714D01*
X146772380Y-68071904D01*
X146772380Y-68310000D02*
X146772380Y-68881428D01*
X147772380Y-68595714D02*
X146772380Y-68595714D01*
X147772380Y-121856666D02*
X147296190Y-121523333D01*
X147772380Y-121285238D02*
X146772380Y-121285238D01*
X146772380Y-121666190D01*
X146820000Y-121761428D01*
X146867619Y-121809047D01*
X146962857Y-121856666D01*
X147105714Y-121856666D01*
X147200952Y-121809047D01*
X147248571Y-121761428D01*
X147296190Y-121666190D01*
X147296190Y-121285238D01*
X147772380Y-122285238D02*
X146772380Y-122285238D01*
X146820000Y-123285238D02*
X146772380Y-123190000D01*
X146772380Y-123047142D01*
X146820000Y-122904285D01*
X146915238Y-122809047D01*
X147010476Y-122761428D01*
X147200952Y-122713809D01*
X147343809Y-122713809D01*
X147534285Y-122761428D01*
X147629523Y-122809047D01*
X147724761Y-122904285D01*
X147772380Y-123047142D01*
X147772380Y-123142380D01*
X147724761Y-123285238D01*
X147677142Y-123332857D01*
X147343809Y-123332857D01*
X147343809Y-123142380D01*
X147772380Y-123761428D02*
X146772380Y-123761428D01*
X147248571Y-123761428D02*
X147248571Y-124332857D01*
X147772380Y-124332857D02*
X146772380Y-124332857D01*
X146772380Y-124666190D02*
X146772380Y-125237619D01*
X147772380Y-124951904D02*
X146772380Y-124951904D01*
D11*
X76200000Y-63500000D02*
X76200000Y-127000000D01*
X203200000Y-63500000D02*
X76200000Y-63500000D01*
X203200000Y-127000000D02*
X203200000Y-63500000D01*
X76200000Y-127000000D02*
X203200000Y-127000000D01*
D12*
X83150000Y-96800000D02*
X81550000Y-96800000D01*
X83650000Y-95200000D02*
X83650000Y-94900000D01*
X83650000Y-95200000D02*
X83650000Y-95500000D01*
X78150000Y-91300000D02*
X78450000Y-91300000D01*
X78150000Y-91300000D02*
X78150000Y-91600000D01*
X78150000Y-99100000D02*
X78450000Y-99100000D01*
X78150000Y-99100000D02*
X78150000Y-98800000D01*
X83650000Y-99100000D02*
X83650000Y-98800000D01*
X83650000Y-99100000D02*
X83350000Y-99100000D01*
X83650000Y-91300000D02*
X83650000Y-91600000D01*
X83650000Y-91300000D02*
X83350000Y-91300000D01*
D13*
X176698200Y-86855000D02*
X176698200Y-103655000D01*
X176598200Y-86855000D02*
X167298200Y-86855000D01*
X159098200Y-86855000D02*
X159098200Y-103655000D01*
X159098200Y-103655000D02*
X164398200Y-103655000D01*
X159098200Y-86855000D02*
X164398200Y-86855000D01*
X176698200Y-103655000D02*
X167298200Y-103655000D01*
X163398200Y-86805000D02*
X162898200Y-86305000D01*
X162898200Y-86305000D02*
X163898200Y-86305000D01*
X163898200Y-86305000D02*
X163398200Y-86805000D01*
D14*
X147675000Y-102851501D02*
X147675000Y-102201500D01*
X147425001Y-102851501D02*
X147675000Y-102851501D01*
X147425001Y-98951499D02*
X147675000Y-98951499D01*
X147675000Y-99201501D02*
X147675000Y-98951499D01*
X142775000Y-99201501D02*
X142775000Y-98951499D01*
X142775000Y-98951499D02*
X143024999Y-98951499D01*
X142775000Y-102851501D02*
X142775000Y-102601499D01*
X142775000Y-102851501D02*
X143024999Y-102851501D01*
D13*
X136144000Y-121666000D02*
X137668000Y-120142000D01*
X136144000Y-120142000D02*
X136144000Y-125806200D01*
X145897600Y-120142000D02*
X145897600Y-125806200D01*
X136144000Y-120142000D02*
X145897600Y-120142000D01*
X145897600Y-125806200D02*
X136144000Y-125806200D01*
X132334000Y-73152000D02*
X133350000Y-71882000D01*
X149504400Y-71805800D02*
X149504400Y-77495400D01*
X132232400Y-71805800D02*
X149504400Y-71805800D01*
X132232400Y-71805800D02*
X132232400Y-77470000D01*
X132232400Y-77470000D02*
X149504400Y-77495400D01*
X132334000Y-114681000D02*
X133350000Y-113411000D01*
X149504400Y-113334800D02*
X149504400Y-119024400D01*
X132232400Y-113334800D02*
X149504400Y-113334800D01*
X132232400Y-113334800D02*
X132232400Y-118999000D01*
X132232400Y-118999000D02*
X149504400Y-119024400D01*
X136144000Y-65786000D02*
X137668000Y-64262000D01*
X136144000Y-64262000D02*
X136144000Y-69926200D01*
X145897600Y-64262000D02*
X145897600Y-69926200D01*
X136144000Y-64262000D02*
X145897600Y-64262000D01*
X145897600Y-69926200D02*
X136144000Y-69926200D01*
X143412221Y-96137000D02*
X143737779Y-96137000D01*
X143412221Y-97157000D02*
X143737779Y-97157000D01*
X144540000Y-108412779D02*
X144540000Y-108087221D01*
X145560000Y-108412779D02*
X145560000Y-108087221D01*
X138415000Y-106962779D02*
X138415000Y-106637221D01*
X139435000Y-106962779D02*
X139435000Y-106637221D01*
X144437779Y-104710000D02*
X144112221Y-104710000D01*
X144437779Y-103690000D02*
X144112221Y-103690000D01*
X144437779Y-106360000D02*
X144112221Y-106360000D01*
X144437779Y-105340000D02*
X144112221Y-105340000D01*
X141410000Y-98662221D02*
X141410000Y-98987779D01*
X140390000Y-98662221D02*
X140390000Y-98987779D01*
X138662779Y-96522000D02*
X138337221Y-96522000D01*
X138662779Y-95502000D02*
X138337221Y-95502000D01*
X138662779Y-93435000D02*
X138337221Y-93435000D01*
X138662779Y-92415000D02*
X138337221Y-92415000D01*
X143387221Y-94613000D02*
X143712779Y-94613000D01*
X143387221Y-95633000D02*
X143712779Y-95633000D01*
X143362221Y-92962000D02*
X143687779Y-92962000D01*
X143362221Y-93982000D02*
X143687779Y-93982000D01*
X148515000Y-97012779D02*
X148515000Y-96687221D01*
X149535000Y-97012779D02*
X149535000Y-96687221D01*
X152537779Y-104660000D02*
X152212221Y-104660000D01*
X152537779Y-103640000D02*
X152212221Y-103640000D01*
X152537779Y-103060000D02*
X152212221Y-103060000D01*
X152537779Y-102040000D02*
X152212221Y-102040000D01*
X151415000Y-97112779D02*
X151415000Y-96787221D01*
X152435000Y-97112779D02*
X152435000Y-96787221D01*
X141512779Y-108085000D02*
X141187221Y-108085000D01*
X141512779Y-107065000D02*
X141187221Y-107065000D01*
X147135000Y-104787221D02*
X147135000Y-105112779D01*
X146115000Y-104787221D02*
X146115000Y-105112779D01*
X148735000Y-104774721D02*
X148735000Y-105100279D01*
X147715000Y-104774721D02*
X147715000Y-105100279D01*
X139810000Y-100337221D02*
X139810000Y-100662779D01*
X138790000Y-100337221D02*
X138790000Y-100662779D01*
X146683000Y-96682779D02*
X146683000Y-96357221D01*
X147703000Y-96682779D02*
X147703000Y-96357221D01*
X148515000Y-100212779D02*
X148515000Y-99887221D01*
X149535000Y-100212779D02*
X149535000Y-99887221D01*
X149415000Y-106662779D02*
X149415000Y-106337221D01*
X150435000Y-106662779D02*
X150435000Y-106337221D01*
X151015000Y-106662779D02*
X151015000Y-106337221D01*
X152035000Y-106662779D02*
X152035000Y-106337221D01*
X152615000Y-106662779D02*
X152615000Y-106337221D01*
X153635000Y-106662779D02*
X153635000Y-106337221D01*
D10*
X199191428Y-117498571D02*
X199524761Y-117498571D01*
X199524761Y-118022380D02*
X199524761Y-117022380D01*
X199048571Y-117022380D01*
X198667619Y-118022380D02*
X198667619Y-117022380D01*
X198191428Y-118022380D02*
X198191428Y-117022380D01*
X197953333Y-117022380D01*
X197810476Y-117070000D01*
X197715238Y-117165238D01*
X197667619Y-117260476D01*
X197620000Y-117450952D01*
X197620000Y-117593809D01*
X197667619Y-117784285D01*
X197715238Y-117879523D01*
X197810476Y-117974761D01*
X197953333Y-118022380D01*
X198191428Y-118022380D01*
X196762857Y-117022380D02*
X196953333Y-117022380D01*
X197048571Y-117070000D01*
X197096190Y-117117619D01*
X197191428Y-117260476D01*
X197239047Y-117450952D01*
X197239047Y-117831904D01*
X197191428Y-117927142D01*
X197143809Y-117974761D01*
X197048571Y-118022380D01*
X196858095Y-118022380D01*
X196762857Y-117974761D01*
X196715238Y-117927142D01*
X196667619Y-117831904D01*
X196667619Y-117593809D01*
X196715238Y-117498571D01*
X196762857Y-117450952D01*
X196858095Y-117403333D01*
X197048571Y-117403333D01*
X197143809Y-117450952D01*
X197191428Y-117498571D01*
X197239047Y-117593809D01*
X199191428Y-76858571D02*
X199524761Y-76858571D01*
X199524761Y-77382380D02*
X199524761Y-76382380D01*
X199048571Y-76382380D01*
X198667619Y-77382380D02*
X198667619Y-76382380D01*
X198191428Y-77382380D02*
X198191428Y-76382380D01*
X197953333Y-76382380D01*
X197810476Y-76430000D01*
X197715238Y-76525238D01*
X197667619Y-76620476D01*
X197620000Y-76810952D01*
X197620000Y-76953809D01*
X197667619Y-77144285D01*
X197715238Y-77239523D01*
X197810476Y-77334761D01*
X197953333Y-77382380D01*
X198191428Y-77382380D01*
X196715238Y-76382380D02*
X197191428Y-76382380D01*
X197239047Y-76858571D01*
X197191428Y-76810952D01*
X197096190Y-76763333D01*
X196858095Y-76763333D01*
X196762857Y-76810952D01*
X196715238Y-76858571D01*
X196667619Y-76953809D01*
X196667619Y-77191904D01*
X196715238Y-77287142D01*
X196762857Y-77334761D01*
X196858095Y-77382380D01*
X197096190Y-77382380D01*
X197191428Y-77334761D01*
X197239047Y-77287142D01*
X82351428Y-76858571D02*
X82684761Y-76858571D01*
X82684761Y-77382380D02*
X82684761Y-76382380D01*
X82208571Y-76382380D01*
X81827619Y-77382380D02*
X81827619Y-76382380D01*
X81351428Y-77382380D02*
X81351428Y-76382380D01*
X81113333Y-76382380D01*
X80970476Y-76430000D01*
X80875238Y-76525238D01*
X80827619Y-76620476D01*
X80780000Y-76810952D01*
X80780000Y-76953809D01*
X80827619Y-77144285D01*
X80875238Y-77239523D01*
X80970476Y-77334761D01*
X81113333Y-77382380D01*
X81351428Y-77382380D01*
X79922857Y-76715714D02*
X79922857Y-77382380D01*
X80160952Y-76334761D02*
X80399047Y-77049047D01*
X79780000Y-77049047D01*
X84132380Y-94866666D02*
X84846666Y-94866666D01*
X84989523Y-94819047D01*
X85084761Y-94723809D01*
X85132380Y-94580952D01*
X85132380Y-94485714D01*
X84132380Y-95819047D02*
X84132380Y-95342857D01*
X84608571Y-95295238D01*
X84560952Y-95342857D01*
X84513333Y-95438095D01*
X84513333Y-95676190D01*
X84560952Y-95771428D01*
X84608571Y-95819047D01*
X84703809Y-95866666D01*
X84941904Y-95866666D01*
X85037142Y-95819047D01*
X85084761Y-95771428D01*
X85132380Y-95676190D01*
X85132380Y-95438095D01*
X85084761Y-95342857D01*
X85037142Y-95295238D01*
X177252380Y-95170666D02*
X177966666Y-95170666D01*
X178109523Y-95123047D01*
X178204761Y-95027809D01*
X178252380Y-94884952D01*
X178252380Y-94789714D01*
X178252380Y-96170666D02*
X178252380Y-95599238D01*
X178252380Y-95884952D02*
X177252380Y-95884952D01*
X177395238Y-95789714D01*
X177490476Y-95694476D01*
X177538095Y-95599238D01*
X141252380Y-101089595D02*
X142061904Y-101089595D01*
X142157142Y-101137214D01*
X142204761Y-101184833D01*
X142252380Y-101280071D01*
X142252380Y-101470547D01*
X142204761Y-101565785D01*
X142157142Y-101613404D01*
X142061904Y-101661023D01*
X141252380Y-101661023D01*
X142252380Y-102661023D02*
X142252380Y-102089595D01*
X142252380Y-102375309D02*
X141252380Y-102375309D01*
X141395238Y-102280071D01*
X141490476Y-102184833D01*
X141538095Y-102089595D01*
X134490380Y-122986666D02*
X135204666Y-122986666D01*
X135347523Y-122939047D01*
X135442761Y-122843809D01*
X135490380Y-122700952D01*
X135490380Y-122605714D01*
X134585619Y-123415238D02*
X134538000Y-123462857D01*
X134490380Y-123558095D01*
X134490380Y-123796190D01*
X134538000Y-123891428D01*
X134585619Y-123939047D01*
X134680857Y-123986666D01*
X134776095Y-123986666D01*
X134918952Y-123939047D01*
X135490380Y-123367619D01*
X135490380Y-123986666D01*
X130516380Y-74120476D02*
X131230666Y-74120476D01*
X131373523Y-74072857D01*
X131468761Y-73977619D01*
X131516380Y-73834761D01*
X131516380Y-73739523D01*
X131516380Y-75120476D02*
X131516380Y-74549047D01*
X131516380Y-74834761D02*
X130516380Y-74834761D01*
X130659238Y-74739523D01*
X130754476Y-74644285D01*
X130802095Y-74549047D01*
X130611619Y-75501428D02*
X130564000Y-75549047D01*
X130516380Y-75644285D01*
X130516380Y-75882380D01*
X130564000Y-75977619D01*
X130611619Y-76025238D01*
X130706857Y-76072857D01*
X130802095Y-76072857D01*
X130944952Y-76025238D01*
X131516380Y-75453809D01*
X131516380Y-76072857D01*
X130516380Y-115522476D02*
X131230666Y-115522476D01*
X131373523Y-115474857D01*
X131468761Y-115379619D01*
X131516380Y-115236761D01*
X131516380Y-115141523D01*
X131516380Y-116522476D02*
X131516380Y-115951047D01*
X131516380Y-116236761D02*
X130516380Y-116236761D01*
X130659238Y-116141523D01*
X130754476Y-116046285D01*
X130802095Y-115951047D01*
X131516380Y-117474857D02*
X131516380Y-116903428D01*
X131516380Y-117189142D02*
X130516380Y-117189142D01*
X130659238Y-117093904D01*
X130754476Y-116998666D01*
X130802095Y-116903428D01*
X134494380Y-66762666D02*
X135208666Y-66762666D01*
X135351523Y-66715047D01*
X135446761Y-66619809D01*
X135494380Y-66476952D01*
X135494380Y-66381714D01*
X134827714Y-67667428D02*
X135494380Y-67667428D01*
X134446761Y-67429333D02*
X135161047Y-67191238D01*
X135161047Y-67810285D01*
X143676666Y-98401142D02*
X143724285Y-98448761D01*
X143867142Y-98496380D01*
X143962380Y-98496380D01*
X144105238Y-98448761D01*
X144200476Y-98353523D01*
X144248095Y-98258285D01*
X144295714Y-98067809D01*
X144295714Y-97924952D01*
X144248095Y-97734476D01*
X144200476Y-97639238D01*
X144105238Y-97544000D01*
X143962380Y-97496380D01*
X143867142Y-97496380D01*
X143724285Y-97544000D01*
X143676666Y-97591619D01*
X143200476Y-98496380D02*
X143010000Y-98496380D01*
X142914761Y-98448761D01*
X142867142Y-98401142D01*
X142771904Y-98258285D01*
X142724285Y-98067809D01*
X142724285Y-97686857D01*
X142771904Y-97591619D01*
X142819523Y-97544000D01*
X142914761Y-97496380D01*
X143105238Y-97496380D01*
X143200476Y-97544000D01*
X143248095Y-97591619D01*
X143295714Y-97686857D01*
X143295714Y-97924952D01*
X143248095Y-98020190D01*
X143200476Y-98067809D01*
X143105238Y-98115428D01*
X142914761Y-98115428D01*
X142819523Y-98067809D01*
X142771904Y-98020190D01*
X142724285Y-97924952D01*
X144102380Y-108108333D02*
X143626190Y-107775000D01*
X144102380Y-107536904D02*
X143102380Y-107536904D01*
X143102380Y-107917857D01*
X143150000Y-108013095D01*
X143197619Y-108060714D01*
X143292857Y-108108333D01*
X143435714Y-108108333D01*
X143530952Y-108060714D01*
X143578571Y-108013095D01*
X143626190Y-107917857D01*
X143626190Y-107536904D01*
X144102380Y-108584523D02*
X144102380Y-108775000D01*
X144054761Y-108870238D01*
X144007142Y-108917857D01*
X143864285Y-109013095D01*
X143673809Y-109060714D01*
X143292857Y-109060714D01*
X143197619Y-109013095D01*
X143150000Y-108965476D01*
X143102380Y-108870238D01*
X143102380Y-108679761D01*
X143150000Y-108584523D01*
X143197619Y-108536904D01*
X143292857Y-108489285D01*
X143530952Y-108489285D01*
X143626190Y-108536904D01*
X143673809Y-108584523D01*
X143721428Y-108679761D01*
X143721428Y-108870238D01*
X143673809Y-108965476D01*
X143626190Y-109013095D01*
X143530952Y-109060714D01*
X139402380Y-103157142D02*
X138926190Y-102823809D01*
X139402380Y-102585714D02*
X138402380Y-102585714D01*
X138402380Y-102966666D01*
X138450000Y-103061904D01*
X138497619Y-103109523D01*
X138592857Y-103157142D01*
X138735714Y-103157142D01*
X138830952Y-103109523D01*
X138878571Y-103061904D01*
X138926190Y-102966666D01*
X138926190Y-102585714D01*
X139402380Y-104109523D02*
X139402380Y-103538095D01*
X139402380Y-103823809D02*
X138402380Y-103823809D01*
X138545238Y-103728571D01*
X138640476Y-103633333D01*
X138688095Y-103538095D01*
X138497619Y-104490476D02*
X138450000Y-104538095D01*
X138402380Y-104633333D01*
X138402380Y-104871428D01*
X138450000Y-104966666D01*
X138497619Y-105014285D01*
X138592857Y-105061904D01*
X138688095Y-105061904D01*
X138830952Y-105014285D01*
X139402380Y-104442857D01*
X139402380Y-105061904D01*
X141967857Y-104652380D02*
X142301190Y-104176190D01*
X142539285Y-104652380D02*
X142539285Y-103652380D01*
X142158333Y-103652380D01*
X142063095Y-103700000D01*
X142015476Y-103747619D01*
X141967857Y-103842857D01*
X141967857Y-103985714D01*
X142015476Y-104080952D01*
X142063095Y-104128571D01*
X142158333Y-104176190D01*
X142539285Y-104176190D01*
X141015476Y-104652380D02*
X141586904Y-104652380D01*
X141301190Y-104652380D02*
X141301190Y-103652380D01*
X141396428Y-103795238D01*
X141491666Y-103890476D01*
X141586904Y-103938095D01*
X140063095Y-104652380D02*
X140634523Y-104652380D01*
X140348809Y-104652380D02*
X140348809Y-103652380D01*
X140444047Y-103795238D01*
X140539285Y-103890476D01*
X140634523Y-103938095D01*
X141967857Y-106302380D02*
X142301190Y-105826190D01*
X142539285Y-106302380D02*
X142539285Y-105302380D01*
X142158333Y-105302380D01*
X142063095Y-105350000D01*
X142015476Y-105397619D01*
X141967857Y-105492857D01*
X141967857Y-105635714D01*
X142015476Y-105730952D01*
X142063095Y-105778571D01*
X142158333Y-105826190D01*
X142539285Y-105826190D01*
X141015476Y-106302380D02*
X141586904Y-106302380D01*
X141301190Y-106302380D02*
X141301190Y-105302380D01*
X141396428Y-105445238D01*
X141491666Y-105540476D01*
X141586904Y-105588095D01*
X140396428Y-105302380D02*
X140301190Y-105302380D01*
X140205952Y-105350000D01*
X140158333Y-105397619D01*
X140110714Y-105492857D01*
X140063095Y-105683333D01*
X140063095Y-105921428D01*
X140110714Y-106111904D01*
X140158333Y-106207142D01*
X140205952Y-106254761D01*
X140301190Y-106302380D01*
X140396428Y-106302380D01*
X140491666Y-106254761D01*
X140539285Y-106207142D01*
X140586904Y-106111904D01*
X140634523Y-105921428D01*
X140634523Y-105683333D01*
X140586904Y-105492857D01*
X140539285Y-105397619D01*
X140491666Y-105350000D01*
X140396428Y-105302380D01*
X141352380Y-96133333D02*
X140876190Y-95800000D01*
X141352380Y-95561904D02*
X140352380Y-95561904D01*
X140352380Y-95942857D01*
X140400000Y-96038095D01*
X140447619Y-96085714D01*
X140542857Y-96133333D01*
X140685714Y-96133333D01*
X140780952Y-96085714D01*
X140828571Y-96038095D01*
X140876190Y-95942857D01*
X140876190Y-95561904D01*
X140780952Y-96704761D02*
X140733333Y-96609523D01*
X140685714Y-96561904D01*
X140590476Y-96514285D01*
X140542857Y-96514285D01*
X140447619Y-96561904D01*
X140400000Y-96609523D01*
X140352380Y-96704761D01*
X140352380Y-96895238D01*
X140400000Y-96990476D01*
X140447619Y-97038095D01*
X140542857Y-97085714D01*
X140590476Y-97085714D01*
X140685714Y-97038095D01*
X140733333Y-96990476D01*
X140780952Y-96895238D01*
X140780952Y-96704761D01*
X140828571Y-96609523D01*
X140876190Y-96561904D01*
X140971428Y-96514285D01*
X141161904Y-96514285D01*
X141257142Y-96561904D01*
X141304761Y-96609523D01*
X141352380Y-96704761D01*
X141352380Y-96895238D01*
X141304761Y-96990476D01*
X141257142Y-97038095D01*
X141161904Y-97085714D01*
X140971428Y-97085714D01*
X140876190Y-97038095D01*
X140828571Y-96990476D01*
X140780952Y-96895238D01*
X136192857Y-96489380D02*
X136526190Y-96013190D01*
X136764285Y-96489380D02*
X136764285Y-95489380D01*
X136383333Y-95489380D01*
X136288095Y-95537000D01*
X136240476Y-95584619D01*
X136192857Y-95679857D01*
X136192857Y-95822714D01*
X136240476Y-95917952D01*
X136288095Y-95965571D01*
X136383333Y-96013190D01*
X136764285Y-96013190D01*
X135288095Y-95489380D02*
X135764285Y-95489380D01*
X135811904Y-95965571D01*
X135764285Y-95917952D01*
X135669047Y-95870333D01*
X135430952Y-95870333D01*
X135335714Y-95917952D01*
X135288095Y-95965571D01*
X135240476Y-96060809D01*
X135240476Y-96298904D01*
X135288095Y-96394142D01*
X135335714Y-96441761D01*
X135430952Y-96489380D01*
X135669047Y-96489380D01*
X135764285Y-96441761D01*
X135811904Y-96394142D01*
X134383333Y-95822714D02*
X134383333Y-96489380D01*
X134621428Y-95441761D02*
X134859523Y-96156047D01*
X134240476Y-96156047D01*
X136167857Y-93477380D02*
X136501190Y-93001190D01*
X136739285Y-93477380D02*
X136739285Y-92477380D01*
X136358333Y-92477380D01*
X136263095Y-92525000D01*
X136215476Y-92572619D01*
X136167857Y-92667857D01*
X136167857Y-92810714D01*
X136215476Y-92905952D01*
X136263095Y-92953571D01*
X136358333Y-93001190D01*
X136739285Y-93001190D01*
X135263095Y-92477380D02*
X135739285Y-92477380D01*
X135786904Y-92953571D01*
X135739285Y-92905952D01*
X135644047Y-92858333D01*
X135405952Y-92858333D01*
X135310714Y-92905952D01*
X135263095Y-92953571D01*
X135215476Y-93048809D01*
X135215476Y-93286904D01*
X135263095Y-93382142D01*
X135310714Y-93429761D01*
X135405952Y-93477380D01*
X135644047Y-93477380D01*
X135739285Y-93429761D01*
X135786904Y-93382142D01*
X134882142Y-92477380D02*
X134263095Y-92477380D01*
X134596428Y-92858333D01*
X134453571Y-92858333D01*
X134358333Y-92905952D01*
X134310714Y-92953571D01*
X134263095Y-93048809D01*
X134263095Y-93286904D01*
X134310714Y-93382142D01*
X134358333Y-93429761D01*
X134453571Y-93477380D01*
X134739285Y-93477380D01*
X134834523Y-93429761D01*
X134882142Y-93382142D01*
X141241666Y-95650380D02*
X141575000Y-95174190D01*
X141813095Y-95650380D02*
X141813095Y-94650380D01*
X141432142Y-94650380D01*
X141336904Y-94698000D01*
X141289285Y-94745619D01*
X141241666Y-94840857D01*
X141241666Y-94983714D01*
X141289285Y-95078952D01*
X141336904Y-95126571D01*
X141432142Y-95174190D01*
X141813095Y-95174190D01*
X140908333Y-94650380D02*
X140241666Y-94650380D01*
X140670238Y-95650380D01*
X141241666Y-94024380D02*
X141575000Y-93548190D01*
X141813095Y-94024380D02*
X141813095Y-93024380D01*
X141432142Y-93024380D01*
X141336904Y-93072000D01*
X141289285Y-93119619D01*
X141241666Y-93214857D01*
X141241666Y-93357714D01*
X141289285Y-93452952D01*
X141336904Y-93500571D01*
X141432142Y-93548190D01*
X141813095Y-93548190D01*
X140384523Y-93024380D02*
X140575000Y-93024380D01*
X140670238Y-93072000D01*
X140717857Y-93119619D01*
X140813095Y-93262476D01*
X140860714Y-93452952D01*
X140860714Y-93833904D01*
X140813095Y-93929142D01*
X140765476Y-93976761D01*
X140670238Y-94024380D01*
X140479761Y-94024380D01*
X140384523Y-93976761D01*
X140336904Y-93929142D01*
X140289285Y-93833904D01*
X140289285Y-93595809D01*
X140336904Y-93500571D01*
X140384523Y-93452952D01*
X140479761Y-93405333D01*
X140670238Y-93405333D01*
X140765476Y-93452952D01*
X140813095Y-93500571D01*
X140860714Y-93595809D01*
X150907380Y-96683333D02*
X150431190Y-96350000D01*
X150907380Y-96111904D02*
X149907380Y-96111904D01*
X149907380Y-96492857D01*
X149955000Y-96588095D01*
X150002619Y-96635714D01*
X150097857Y-96683333D01*
X150240714Y-96683333D01*
X150335952Y-96635714D01*
X150383571Y-96588095D01*
X150431190Y-96492857D01*
X150431190Y-96111904D01*
X149907380Y-97588095D02*
X149907380Y-97111904D01*
X150383571Y-97064285D01*
X150335952Y-97111904D01*
X150288333Y-97207142D01*
X150288333Y-97445238D01*
X150335952Y-97540476D01*
X150383571Y-97588095D01*
X150478809Y-97635714D01*
X150716904Y-97635714D01*
X150812142Y-97588095D01*
X150859761Y-97540476D01*
X150907380Y-97445238D01*
X150907380Y-97207142D01*
X150859761Y-97111904D01*
X150812142Y-97064285D01*
X150141666Y-104702380D02*
X150475000Y-104226190D01*
X150713095Y-104702380D02*
X150713095Y-103702380D01*
X150332142Y-103702380D01*
X150236904Y-103750000D01*
X150189285Y-103797619D01*
X150141666Y-103892857D01*
X150141666Y-104035714D01*
X150189285Y-104130952D01*
X150236904Y-104178571D01*
X150332142Y-104226190D01*
X150713095Y-104226190D01*
X149284523Y-104035714D02*
X149284523Y-104702380D01*
X149522619Y-103654761D02*
X149760714Y-104369047D01*
X149141666Y-104369047D01*
X150141666Y-103102380D02*
X150475000Y-102626190D01*
X150713095Y-103102380D02*
X150713095Y-102102380D01*
X150332142Y-102102380D01*
X150236904Y-102150000D01*
X150189285Y-102197619D01*
X150141666Y-102292857D01*
X150141666Y-102435714D01*
X150189285Y-102530952D01*
X150236904Y-102578571D01*
X150332142Y-102626190D01*
X150713095Y-102626190D01*
X149808333Y-102102380D02*
X149189285Y-102102380D01*
X149522619Y-102483333D01*
X149379761Y-102483333D01*
X149284523Y-102530952D01*
X149236904Y-102578571D01*
X149189285Y-102673809D01*
X149189285Y-102911904D01*
X149236904Y-103007142D01*
X149284523Y-103054761D01*
X149379761Y-103102380D01*
X149665476Y-103102380D01*
X149760714Y-103054761D01*
X149808333Y-103007142D01*
X153807380Y-96783333D02*
X153331190Y-96450000D01*
X153807380Y-96211904D02*
X152807380Y-96211904D01*
X152807380Y-96592857D01*
X152855000Y-96688095D01*
X152902619Y-96735714D01*
X152997857Y-96783333D01*
X153140714Y-96783333D01*
X153235952Y-96735714D01*
X153283571Y-96688095D01*
X153331190Y-96592857D01*
X153331190Y-96211904D01*
X152902619Y-97164285D02*
X152855000Y-97211904D01*
X152807380Y-97307142D01*
X152807380Y-97545238D01*
X152855000Y-97640476D01*
X152902619Y-97688095D01*
X152997857Y-97735714D01*
X153093095Y-97735714D01*
X153235952Y-97688095D01*
X153807380Y-97116666D01*
X153807380Y-97735714D01*
X141992857Y-109407142D02*
X142040476Y-109454761D01*
X142183333Y-109502380D01*
X142278571Y-109502380D01*
X142421428Y-109454761D01*
X142516666Y-109359523D01*
X142564285Y-109264285D01*
X142611904Y-109073809D01*
X142611904Y-108930952D01*
X142564285Y-108740476D01*
X142516666Y-108645238D01*
X142421428Y-108550000D01*
X142278571Y-108502380D01*
X142183333Y-108502380D01*
X142040476Y-108550000D01*
X141992857Y-108597619D01*
X141040476Y-109502380D02*
X141611904Y-109502380D01*
X141326190Y-109502380D02*
X141326190Y-108502380D01*
X141421428Y-108645238D01*
X141516666Y-108740476D01*
X141611904Y-108788095D01*
X140135714Y-108502380D02*
X140611904Y-108502380D01*
X140659523Y-108978571D01*
X140611904Y-108930952D01*
X140516666Y-108883333D01*
X140278571Y-108883333D01*
X140183333Y-108930952D01*
X140135714Y-108978571D01*
X140088095Y-109073809D01*
X140088095Y-109311904D01*
X140135714Y-109407142D01*
X140183333Y-109454761D01*
X140278571Y-109502380D01*
X140516666Y-109502380D01*
X140611904Y-109454761D01*
X140659523Y-109407142D01*
X146982142Y-107307142D02*
X147029761Y-107259523D01*
X147077380Y-107116666D01*
X147077380Y-107021428D01*
X147029761Y-106878571D01*
X146934523Y-106783333D01*
X146839285Y-106735714D01*
X146648809Y-106688095D01*
X146505952Y-106688095D01*
X146315476Y-106735714D01*
X146220238Y-106783333D01*
X146125000Y-106878571D01*
X146077380Y-107021428D01*
X146077380Y-107116666D01*
X146125000Y-107259523D01*
X146172619Y-107307142D01*
X147077380Y-108259523D02*
X147077380Y-107688095D01*
X147077380Y-107973809D02*
X146077380Y-107973809D01*
X146220238Y-107878571D01*
X146315476Y-107783333D01*
X146363095Y-107688095D01*
X146410714Y-109116666D02*
X147077380Y-109116666D01*
X146029761Y-108878571D02*
X146744047Y-108640476D01*
X146744047Y-109259523D01*
X148632142Y-107294642D02*
X148679761Y-107247023D01*
X148727380Y-107104166D01*
X148727380Y-107008928D01*
X148679761Y-106866071D01*
X148584523Y-106770833D01*
X148489285Y-106723214D01*
X148298809Y-106675595D01*
X148155952Y-106675595D01*
X147965476Y-106723214D01*
X147870238Y-106770833D01*
X147775000Y-106866071D01*
X147727380Y-107008928D01*
X147727380Y-107104166D01*
X147775000Y-107247023D01*
X147822619Y-107294642D01*
X148727380Y-108247023D02*
X148727380Y-107675595D01*
X148727380Y-107961309D02*
X147727380Y-107961309D01*
X147870238Y-107866071D01*
X147965476Y-107770833D01*
X148013095Y-107675595D01*
X147727380Y-108580357D02*
X147727380Y-109199404D01*
X148108333Y-108866071D01*
X148108333Y-109008928D01*
X148155952Y-109104166D01*
X148203571Y-109151785D01*
X148298809Y-109199404D01*
X148536904Y-109199404D01*
X148632142Y-109151785D01*
X148679761Y-109104166D01*
X148727380Y-109008928D01*
X148727380Y-108723214D01*
X148679761Y-108627976D01*
X148632142Y-108580357D01*
X138279142Y-99941142D02*
X138326761Y-99893523D01*
X138374380Y-99750666D01*
X138374380Y-99655428D01*
X138326761Y-99512571D01*
X138231523Y-99417333D01*
X138136285Y-99369714D01*
X137945809Y-99322095D01*
X137802952Y-99322095D01*
X137612476Y-99369714D01*
X137517238Y-99417333D01*
X137422000Y-99512571D01*
X137374380Y-99655428D01*
X137374380Y-99750666D01*
X137422000Y-99893523D01*
X137469619Y-99941142D01*
X138374380Y-100893523D02*
X138374380Y-100322095D01*
X138374380Y-100607809D02*
X137374380Y-100607809D01*
X137517238Y-100512571D01*
X137612476Y-100417333D01*
X137660095Y-100322095D01*
X137469619Y-101274476D02*
X137422000Y-101322095D01*
X137374380Y-101417333D01*
X137374380Y-101655428D01*
X137422000Y-101750666D01*
X137469619Y-101798285D01*
X137564857Y-101845904D01*
X137660095Y-101845904D01*
X137802952Y-101798285D01*
X138374380Y-101226857D01*
X138374380Y-101845904D01*
X146125142Y-95802142D02*
X146172761Y-95754523D01*
X146220380Y-95611666D01*
X146220380Y-95516428D01*
X146172761Y-95373571D01*
X146077523Y-95278333D01*
X145982285Y-95230714D01*
X145791809Y-95183095D01*
X145648952Y-95183095D01*
X145458476Y-95230714D01*
X145363238Y-95278333D01*
X145268000Y-95373571D01*
X145220380Y-95516428D01*
X145220380Y-95611666D01*
X145268000Y-95754523D01*
X145315619Y-95802142D01*
X146220380Y-96754523D02*
X146220380Y-96183095D01*
X146220380Y-96468809D02*
X145220380Y-96468809D01*
X145363238Y-96373571D01*
X145458476Y-96278333D01*
X145506095Y-96183095D01*
X146220380Y-97706904D02*
X146220380Y-97135476D01*
X146220380Y-97421190D02*
X145220380Y-97421190D01*
X145363238Y-97325952D01*
X145458476Y-97230714D01*
X145506095Y-97135476D01*
X150812142Y-99407142D02*
X150859761Y-99359523D01*
X150907380Y-99216666D01*
X150907380Y-99121428D01*
X150859761Y-98978571D01*
X150764523Y-98883333D01*
X150669285Y-98835714D01*
X150478809Y-98788095D01*
X150335952Y-98788095D01*
X150145476Y-98835714D01*
X150050238Y-98883333D01*
X149955000Y-98978571D01*
X149907380Y-99121428D01*
X149907380Y-99216666D01*
X149955000Y-99359523D01*
X150002619Y-99407142D01*
X150907380Y-100359523D02*
X150907380Y-99788095D01*
X150907380Y-100073809D02*
X149907380Y-100073809D01*
X150050238Y-99978571D01*
X150145476Y-99883333D01*
X150193095Y-99788095D01*
X149907380Y-100978571D02*
X149907380Y-101073809D01*
X149955000Y-101169047D01*
X150002619Y-101216666D01*
X150097857Y-101264285D01*
X150288333Y-101311904D01*
X150526428Y-101311904D01*
X150716904Y-101264285D01*
X150812142Y-101216666D01*
X150859761Y-101169047D01*
X150907380Y-101073809D01*
X150907380Y-100978571D01*
X150859761Y-100883333D01*
X150812142Y-100835714D01*
X150716904Y-100788095D01*
X150526428Y-100740476D01*
X150288333Y-100740476D01*
X150097857Y-100788095D01*
X150002619Y-100835714D01*
X149955000Y-100883333D01*
X149907380Y-100978571D01*
X150282142Y-108833333D02*
X150329761Y-108785714D01*
X150377380Y-108642857D01*
X150377380Y-108547619D01*
X150329761Y-108404761D01*
X150234523Y-108309523D01*
X150139285Y-108261904D01*
X149948809Y-108214285D01*
X149805952Y-108214285D01*
X149615476Y-108261904D01*
X149520238Y-108309523D01*
X149425000Y-108404761D01*
X149377380Y-108547619D01*
X149377380Y-108642857D01*
X149425000Y-108785714D01*
X149472619Y-108833333D01*
X149805952Y-109404761D02*
X149758333Y-109309523D01*
X149710714Y-109261904D01*
X149615476Y-109214285D01*
X149567857Y-109214285D01*
X149472619Y-109261904D01*
X149425000Y-109309523D01*
X149377380Y-109404761D01*
X149377380Y-109595238D01*
X149425000Y-109690476D01*
X149472619Y-109738095D01*
X149567857Y-109785714D01*
X149615476Y-109785714D01*
X149710714Y-109738095D01*
X149758333Y-109690476D01*
X149805952Y-109595238D01*
X149805952Y-109404761D01*
X149853571Y-109309523D01*
X149901190Y-109261904D01*
X149996428Y-109214285D01*
X150186904Y-109214285D01*
X150282142Y-109261904D01*
X150329761Y-109309523D01*
X150377380Y-109404761D01*
X150377380Y-109595238D01*
X150329761Y-109690476D01*
X150282142Y-109738095D01*
X150186904Y-109785714D01*
X149996428Y-109785714D01*
X149901190Y-109738095D01*
X149853571Y-109690476D01*
X149805952Y-109595238D01*
X151882142Y-108933333D02*
X151929761Y-108885714D01*
X151977380Y-108742857D01*
X151977380Y-108647619D01*
X151929761Y-108504761D01*
X151834523Y-108409523D01*
X151739285Y-108361904D01*
X151548809Y-108314285D01*
X151405952Y-108314285D01*
X151215476Y-108361904D01*
X151120238Y-108409523D01*
X151025000Y-108504761D01*
X150977380Y-108647619D01*
X150977380Y-108742857D01*
X151025000Y-108885714D01*
X151072619Y-108933333D01*
X150977380Y-109266666D02*
X150977380Y-109933333D01*
X151977380Y-109504761D01*
X153382142Y-108833333D02*
X153429761Y-108785714D01*
X153477380Y-108642857D01*
X153477380Y-108547619D01*
X153429761Y-108404761D01*
X153334523Y-108309523D01*
X153239285Y-108261904D01*
X153048809Y-108214285D01*
X152905952Y-108214285D01*
X152715476Y-108261904D01*
X152620238Y-108309523D01*
X152525000Y-108404761D01*
X152477380Y-108547619D01*
X152477380Y-108642857D01*
X152525000Y-108785714D01*
X152572619Y-108833333D01*
X152477380Y-109690476D02*
X152477380Y-109500000D01*
X152525000Y-109404761D01*
X152572619Y-109357142D01*
X152715476Y-109261904D01*
X152905952Y-109214285D01*
X153286904Y-109214285D01*
X153382142Y-109261904D01*
X153429761Y-109309523D01*
X153477380Y-109404761D01*
X153477380Y-109595238D01*
X153429761Y-109690476D01*
X153382142Y-109738095D01*
X153286904Y-109785714D01*
X153048809Y-109785714D01*
X152953571Y-109738095D01*
X152905952Y-109690476D01*
X152858333Y-109595238D01*
X152858333Y-109404761D01*
X152905952Y-109309523D01*
X152953571Y-109261904D01*
X153048809Y-109214285D01*
M02*
