M48
; DRILL file {KiCad (5.1.5)-3} date 3/4/2020 5:17:14 PM
; FORMAT={-:-/ absolute / metric / decimal}
; #@! TF.CreationDate,2020-03-04T17:17:14-08:00
; #@! TF.GenerationSoftware,Kicad,Pcbnew,(5.1.5)-3
; #@! TF.FileFunction,Plated,1,4,PTH
FMAT,2
METRIC
T1C0.254
T2C0.508
T3C0.700
T4C0.889
T5C1.000
T6C1.010
T7C1.651
T8C3.200
%
G90
G05
T1
X81.788Y-108.458
X81.788Y-109.982
X83.312Y-108.458
X83.312Y-109.982
X85.598Y-96.266
X85.598Y-97.79
X86.614Y-65.278
X86.614Y-66.802
X86.614Y-68.326
X86.614Y-69.85
X86.614Y-73.152
X86.614Y-74.676
X87.122Y-96.266
X87.122Y-97.79
X87.244Y-111.854
X87.244Y-113.378
X87.244Y-114.902
X87.372Y-117.618
X87.372Y-119.142
X87.372Y-120.666
X88.138Y-65.278
X88.138Y-66.802
X88.138Y-68.326
X88.138Y-69.85
X88.138Y-73.152
X88.138Y-74.676
X88.768Y-111.854
X88.896Y-120.666
X90.292Y-111.854
X90.292Y-113.378
X90.292Y-114.902
X90.42Y-117.618
X90.42Y-119.142
X90.42Y-120.666
X90.524Y-80.01
X92.198Y-118.38
X92.202Y-78.486
X92.329Y-65.151
X93.091Y-81.28
X93.722Y-118.38
X94.742Y-123.444
X95.076Y-117.093
X95.25Y-124.206
X95.377Y-81.915
X95.838Y-117.093
X96.6Y-117.093
X98.464Y-89.535
X99.185Y-120.35
X99.185Y-121.874
X101.854Y-90.17
X102.489Y-66.294
X103.544Y-88.392
X104.14Y-65.532
X104.39Y-121.428
X104.39Y-123.46
X104.404Y-102.118
X106.168Y-123.46
X106.426Y-64.77
X106.426Y-75.638
X106.426Y-98.552
X107.184Y-114.062
X107.184Y-115.586
X107.184Y-117.11
X107.946Y-119.904
X107.946Y-121.428
X107.946Y-123.46
X108.114Y-103.034
X108.708Y-114.062
X108.708Y-115.586
X108.708Y-117.11
X110.362Y-64.594
X110.362Y-66.118
X110.362Y-67.642
X110.486Y-111.836
X110.486Y-113.36
X110.486Y-114.884
X110.49Y-70.358
X110.49Y-71.882
X110.49Y-73.406
X110.614Y-117.6
X110.614Y-119.124
X110.614Y-120.648
X110.617Y-80.645
X111.886Y-64.594
X112.01Y-111.836
X112.014Y-73.406
X112.138Y-120.648
X113.41Y-64.594
X113.41Y-66.118
X113.41Y-67.642
X113.534Y-111.836
X113.534Y-113.36
X113.534Y-114.884
X113.538Y-70.358
X113.538Y-71.882
X113.538Y-73.406
X113.662Y-117.6
X113.662Y-119.124
X113.662Y-120.648
X115.316Y-71.12
X115.44Y-118.362
X116.84Y-71.12
X116.964Y-118.362
X117.75Y-76.2
X117.856Y-123.444
X118.194Y-69.833
X118.318Y-117.075
X118.364Y-76.708
X118.364Y-123.952
X118.956Y-69.833
X119.08Y-117.075
X119.634Y-88.9
X119.634Y-92.71
X119.718Y-69.833
X119.842Y-117.075
X122.174Y-72.898
X122.174Y-74.422
X122.231Y-120.204
X122.231Y-121.728
X127.508Y-74.168
X127.508Y-76.2
X127.632Y-121.41
X127.632Y-123.442
X127.762Y-99.822
X127.762Y-101.346
X127.762Y-102.87
X127.762Y-104.394
X127.762Y-105.918
X127.762Y-107.442
X129.286Y-76.2
X129.286Y-99.822
X129.286Y-101.346
X129.286Y-102.87
X129.286Y-104.394
X129.286Y-105.918
X129.286Y-107.442
X129.41Y-123.442
X130.302Y-64.897
X130.302Y-66.421
X130.302Y-67.945
X130.426Y-114.044
X130.426Y-115.568
X130.426Y-117.092
X131.064Y-72.644
X131.064Y-74.168
X131.064Y-76.2
X131.188Y-119.886
X131.188Y-121.41
X131.188Y-123.442
X131.826Y-64.897
X131.826Y-66.421
X131.826Y-67.945
X131.826Y-91.567
X131.826Y-93.091
X131.826Y-95.504
X131.826Y-97.028
X131.95Y-114.044
X131.95Y-115.568
X131.95Y-117.092
X132.842Y-91.567
X132.842Y-93.091
X132.842Y-95.504
X132.842Y-97.028
X134.366Y-111.76
X136.195Y-104.318
X136.398Y-100.508
X136.652Y-90.805
X136.652Y-91.694
X137.16Y-98.552
X137.16Y-110.998
X137.541Y-90.805
X137.541Y-91.694
X138.176Y-110.998
X138.43Y-90.805
X138.43Y-91.694
X138.557Y-103.378
X139.192Y-94.361
X139.319Y-90.805
X139.319Y-91.694
X139.446Y-113.284
X139.827Y-98.044
X139.878Y-109.957
X140.208Y-90.805
X140.208Y-91.694
X140.335Y-93.472
X141.986Y-112.522
X142.24Y-86.741
X142.24Y-88.265
X142.24Y-90.424
X142.24Y-92.046
X142.291Y-82.804
X142.291Y-84.328
X143.205Y-82.804
X143.205Y-84.328
X143.205Y-86.741
X143.205Y-88.265
X143.205Y-90.424
X143.205Y-92.046
X145.034Y-125.222
X145.288Y-100.33
X145.288Y-101.346
X146.685Y-98.298
X147.015Y-91.872
X147.828Y-98.552
X148.768Y-109.982
X149.025Y-94.923
X154.495Y-65.19
X154.495Y-66.714
X154.495Y-68.238
X154.534Y-97.917
X156.019Y-65.19
X156.54Y-111.938
X157.543Y-65.19
X157.543Y-66.714
X157.543Y-68.238
X160.528Y-112.268
X161.29Y-106.68
X161.29Y-108.204
X161.29Y-109.728
X162.814Y-106.68
X162.814Y-108.204
X162.814Y-109.728
X163.766Y-65.19
X163.766Y-66.714
X163.766Y-68.238
X165.29Y-65.19
X166.814Y-65.19
X166.814Y-66.714
X166.814Y-68.238
X168.656Y-117.856
X168.656Y-119.38
X168.656Y-120.904
X168.656Y-122.936
X168.656Y-124.46
X168.656Y-125.984
X170.18Y-117.856
X170.18Y-119.38
X170.18Y-120.904
X170.18Y-122.936
X170.18Y-124.46
X170.18Y-125.984
X171.76Y-64.848
X171.76Y-66.372
X171.76Y-67.896
X171.888Y-70.612
X171.888Y-72.136
X171.888Y-73.66
X173.284Y-64.848
X173.412Y-73.66
X173.736Y-84.28
X173.736Y-91.78
X173.736Y-99.18
X173.736Y-106.68
X174.808Y-64.848
X174.808Y-66.372
X174.808Y-67.896
X174.936Y-70.612
X174.936Y-72.136
X174.936Y-73.66
X175.006Y-124.714
X176.276Y-83.772
X176.276Y-91.272
X176.276Y-98.672
X176.276Y-106.172
X176.714Y-71.374
X177.038Y-111.252
X177.038Y-112.776
X178.238Y-71.374
X178.562Y-111.252
X178.562Y-112.776
X179.324Y-76.2
X179.592Y-70.087
X179.832Y-76.962
X180.086Y-86.82
X180.086Y-94.32
X180.086Y-101.72
X180.086Y-109.22
X180.086Y-111.252
X180.086Y-112.776
X180.354Y-70.087
X181.116Y-70.087
X183.547Y-73.256
X183.547Y-74.78
X188.83Y-75.026
X188.83Y-76.55
X189.025Y-124.255
X190.373Y-81.105
X190.373Y-82.629
X190.373Y-84.153
X190.373Y-85.677
X190.373Y-88.605
X190.373Y-90.129
X190.373Y-91.653
X190.373Y-93.177
X190.373Y-96.005
X190.373Y-97.529
X190.373Y-99.053
X190.373Y-100.577
X190.373Y-103.505
X190.373Y-105.029
X190.373Y-106.553
X190.373Y-108.077
X190.608Y-76.55
X191.897Y-81.105
X191.897Y-82.629
X191.897Y-84.153
X191.897Y-85.677
X191.897Y-88.605
X191.897Y-90.129
X191.897Y-91.653
X191.897Y-93.177
X191.897Y-96.005
X191.897Y-97.529
X191.897Y-99.053
X191.897Y-100.577
X191.897Y-103.505
X191.897Y-105.029
X191.897Y-106.553
X191.897Y-108.077
X192.024Y-120.142
X192.024Y-121.666
X192.024Y-123.19
X192.208Y-67.056
X192.208Y-68.58
X192.208Y-70.104
X192.386Y-75.026
X192.386Y-76.55
X192.462Y-72.898
X193.732Y-67.056
X193.732Y-68.58
X193.732Y-70.104
X180.982Y-119.342
X180.982Y-120.642
X180.982Y-121.942
X180.982Y-123.242
X182.282Y-119.342
X182.282Y-120.642
X182.282Y-121.942
X182.282Y-123.242
T2
X98.8Y-69.59
T4
X160.858Y-92.075
X160.858Y-94.615
X160.858Y-97.155
X160.858Y-99.695
X163.398Y-90.805
X163.398Y-93.345
X163.398Y-95.885
X163.398Y-98.425
T5
X154.178Y-116.117
X156.678Y-116.117
X159.178Y-116.117
X161.678Y-116.117
X164.178Y-116.117
X166.678Y-116.117
X112.1Y-77.774
X173.534Y-112.542
X158.058Y-123.419
X160.558Y-123.419
X163.058Y-123.419
X78.994Y-105.41
X81.534Y-105.41
X84.074Y-105.41
X86.614Y-105.41
X89.154Y-105.41
X91.694Y-105.41
X94.234Y-105.41
X96.774Y-105.41
X99.314Y-105.41
X101.854Y-105.41
X104.394Y-105.41
X106.934Y-105.41
X109.474Y-105.41
X112.014Y-105.41
X114.554Y-105.41
X117.094Y-105.41
X119.634Y-105.41
X89.074Y-125.06
X134.62Y-116.166
X137.12Y-116.166
X139.62Y-116.166
X142.12Y-116.166
X144.62Y-116.166
X147.12Y-116.166
X199.287Y-101.543
X199.287Y-104.043
X173.534Y-77.824
X88.78Y-77.774
X138.5Y-122.96
X141.0Y-122.96
X143.5Y-122.96
X138.5Y-67.081
X141.0Y-67.081
X143.5Y-67.081
X112.154Y-125.02
X134.62Y-74.637
X137.12Y-74.637
X139.62Y-74.637
X142.12Y-74.637
X144.62Y-74.637
X147.12Y-74.637
X149.05Y-82.513
X129.54Y-82.513
X199.287Y-86.684
X199.287Y-89.184
X86.624Y-85.09
X89.164Y-85.09
X91.704Y-85.09
X94.244Y-85.09
X96.784Y-85.09
X99.324Y-85.09
X101.864Y-85.09
X104.404Y-85.09
X106.944Y-85.09
X109.484Y-85.09
X112.024Y-85.09
X114.564Y-85.09
X117.104Y-85.09
X119.644Y-85.09
T6
X152.4Y-100.1
X153.6Y-89.9
T7
X165.862Y-87.376
X165.862Y-103.124
T8
X198.12Y-121.92
X81.28Y-121.92
X81.28Y-68.58
X198.12Y-68.58
T3
G00X79.3Y-92.475
M15
G01X79.8Y-92.475
M16
G05
G00X79.3Y-97.925
M15
G01X79.8Y-97.925
M16
G05
G00X82.405Y-92.775
M15
G01X82.755Y-92.775
M16
G05
G00X82.405Y-97.625
M15
G01X82.755Y-97.625
M16
G05
T0
M30
