G04 #@! TF.GenerationSoftware,KiCad,Pcbnew,(5.1.5)-3*
G04 #@! TF.CreationDate,2020-03-04T17:17:07-08:00*
G04 #@! TF.ProjectId,tail,7461696c-2e6b-4696-9361-645f70636258,rev?*
G04 #@! TF.SameCoordinates,Original*
G04 #@! TF.FileFunction,Paste,Bot*
G04 #@! TF.FilePolarity,Positive*
%FSLAX46Y46*%
G04 Gerber Fmt 4.6, Leading zero omitted, Abs format (unit mm)*
G04 Created by KiCad (PCBNEW (5.1.5)-3) date 2020-03-04 17:17:07*
%MOMM*%
%LPD*%
G04 APERTURE LIST*
%ADD10C,0.508000*%
%ADD11C,0.152400*%
%ADD12R,2.500000X1.425000*%
%ADD13R,0.700000X1.825000*%
%ADD14R,1.750000X0.400000*%
%ADD15R,0.599999X0.240000*%
%ADD16R,0.240000X0.599999*%
%ADD17R,2.700000X1.699999*%
%ADD18C,0.100000*%
G04 APERTURE END LIST*
D10*
X76200000Y-63500000D02*
X76200000Y-127000000D01*
X203200000Y-63500000D02*
X76200000Y-63500000D01*
X203200000Y-127000000D02*
X203200000Y-63500000D01*
X76200000Y-127000000D02*
X203200000Y-127000000D01*
D11*
X146513004Y-100127001D02*
X146513004Y-101675999D01*
X146513004Y-101675999D02*
X145325002Y-101675999D01*
X145325002Y-101675999D02*
X145325002Y-100127001D01*
X145325002Y-100127001D02*
X146513004Y-100127001D01*
X145125000Y-100127001D02*
X145125000Y-101675999D01*
X145125000Y-101675999D02*
X143936999Y-101675999D01*
X143936999Y-101675999D02*
X143936999Y-100127001D01*
X143936999Y-100127001D02*
X145125000Y-100127001D01*
D12*
X79300000Y-94200000D03*
D13*
X81260000Y-98190000D03*
D14*
X82375000Y-96500000D03*
X82375000Y-95850000D03*
X82375000Y-95200000D03*
X82375000Y-94550000D03*
X82375000Y-93900000D03*
D13*
X81260000Y-92210000D03*
D12*
X79300000Y-96200000D03*
D15*
X147375001Y-101651501D03*
D16*
X146974999Y-102551499D03*
X146475000Y-102551499D03*
X145974998Y-102551499D03*
X145475000Y-102551499D03*
X144974998Y-102551499D03*
X144474999Y-102551499D03*
X143975000Y-102551499D03*
X143475001Y-102551499D03*
D15*
X143074999Y-101651501D03*
X143074999Y-100151499D03*
D16*
X143475001Y-99251501D03*
X143975000Y-99251501D03*
X144475002Y-99251501D03*
X144975000Y-99251501D03*
X145475002Y-99251501D03*
X145975001Y-99251501D03*
X146475000Y-99251501D03*
X146975002Y-99251501D03*
D15*
X147375001Y-100151499D03*
D17*
X145225000Y-100901500D03*
D18*
G36*
X144602691Y-96173053D02*
G01*
X144623926Y-96176203D01*
X144644750Y-96181419D01*
X144664962Y-96188651D01*
X144684368Y-96197830D01*
X144702781Y-96208866D01*
X144720024Y-96221654D01*
X144735930Y-96236070D01*
X144750346Y-96251976D01*
X144763134Y-96269219D01*
X144774170Y-96287632D01*
X144783349Y-96307038D01*
X144790581Y-96327250D01*
X144795797Y-96348074D01*
X144798947Y-96369309D01*
X144800000Y-96390750D01*
X144800000Y-96903250D01*
X144798947Y-96924691D01*
X144795797Y-96945926D01*
X144790581Y-96966750D01*
X144783349Y-96986962D01*
X144774170Y-97006368D01*
X144763134Y-97024781D01*
X144750346Y-97042024D01*
X144735930Y-97057930D01*
X144720024Y-97072346D01*
X144702781Y-97085134D01*
X144684368Y-97096170D01*
X144664962Y-97105349D01*
X144644750Y-97112581D01*
X144623926Y-97117797D01*
X144602691Y-97120947D01*
X144581250Y-97122000D01*
X144143750Y-97122000D01*
X144122309Y-97120947D01*
X144101074Y-97117797D01*
X144080250Y-97112581D01*
X144060038Y-97105349D01*
X144040632Y-97096170D01*
X144022219Y-97085134D01*
X144004976Y-97072346D01*
X143989070Y-97057930D01*
X143974654Y-97042024D01*
X143961866Y-97024781D01*
X143950830Y-97006368D01*
X143941651Y-96986962D01*
X143934419Y-96966750D01*
X143929203Y-96945926D01*
X143926053Y-96924691D01*
X143925000Y-96903250D01*
X143925000Y-96390750D01*
X143926053Y-96369309D01*
X143929203Y-96348074D01*
X143934419Y-96327250D01*
X143941651Y-96307038D01*
X143950830Y-96287632D01*
X143961866Y-96269219D01*
X143974654Y-96251976D01*
X143989070Y-96236070D01*
X144004976Y-96221654D01*
X144022219Y-96208866D01*
X144040632Y-96197830D01*
X144060038Y-96188651D01*
X144080250Y-96181419D01*
X144101074Y-96176203D01*
X144122309Y-96173053D01*
X144143750Y-96172000D01*
X144581250Y-96172000D01*
X144602691Y-96173053D01*
G37*
G36*
X143027691Y-96173053D02*
G01*
X143048926Y-96176203D01*
X143069750Y-96181419D01*
X143089962Y-96188651D01*
X143109368Y-96197830D01*
X143127781Y-96208866D01*
X143145024Y-96221654D01*
X143160930Y-96236070D01*
X143175346Y-96251976D01*
X143188134Y-96269219D01*
X143199170Y-96287632D01*
X143208349Y-96307038D01*
X143215581Y-96327250D01*
X143220797Y-96348074D01*
X143223947Y-96369309D01*
X143225000Y-96390750D01*
X143225000Y-96903250D01*
X143223947Y-96924691D01*
X143220797Y-96945926D01*
X143215581Y-96966750D01*
X143208349Y-96986962D01*
X143199170Y-97006368D01*
X143188134Y-97024781D01*
X143175346Y-97042024D01*
X143160930Y-97057930D01*
X143145024Y-97072346D01*
X143127781Y-97085134D01*
X143109368Y-97096170D01*
X143089962Y-97105349D01*
X143069750Y-97112581D01*
X143048926Y-97117797D01*
X143027691Y-97120947D01*
X143006250Y-97122000D01*
X142568750Y-97122000D01*
X142547309Y-97120947D01*
X142526074Y-97117797D01*
X142505250Y-97112581D01*
X142485038Y-97105349D01*
X142465632Y-97096170D01*
X142447219Y-97085134D01*
X142429976Y-97072346D01*
X142414070Y-97057930D01*
X142399654Y-97042024D01*
X142386866Y-97024781D01*
X142375830Y-97006368D01*
X142366651Y-96986962D01*
X142359419Y-96966750D01*
X142354203Y-96945926D01*
X142351053Y-96924691D01*
X142350000Y-96903250D01*
X142350000Y-96390750D01*
X142351053Y-96369309D01*
X142354203Y-96348074D01*
X142359419Y-96327250D01*
X142366651Y-96307038D01*
X142375830Y-96287632D01*
X142386866Y-96269219D01*
X142399654Y-96251976D01*
X142414070Y-96236070D01*
X142429976Y-96221654D01*
X142447219Y-96208866D01*
X142465632Y-96197830D01*
X142485038Y-96188651D01*
X142505250Y-96181419D01*
X142526074Y-96176203D01*
X142547309Y-96173053D01*
X142568750Y-96172000D01*
X143006250Y-96172000D01*
X143027691Y-96173053D01*
G37*
G36*
X145327691Y-107026053D02*
G01*
X145348926Y-107029203D01*
X145369750Y-107034419D01*
X145389962Y-107041651D01*
X145409368Y-107050830D01*
X145427781Y-107061866D01*
X145445024Y-107074654D01*
X145460930Y-107089070D01*
X145475346Y-107104976D01*
X145488134Y-107122219D01*
X145499170Y-107140632D01*
X145508349Y-107160038D01*
X145515581Y-107180250D01*
X145520797Y-107201074D01*
X145523947Y-107222309D01*
X145525000Y-107243750D01*
X145525000Y-107681250D01*
X145523947Y-107702691D01*
X145520797Y-107723926D01*
X145515581Y-107744750D01*
X145508349Y-107764962D01*
X145499170Y-107784368D01*
X145488134Y-107802781D01*
X145475346Y-107820024D01*
X145460930Y-107835930D01*
X145445024Y-107850346D01*
X145427781Y-107863134D01*
X145409368Y-107874170D01*
X145389962Y-107883349D01*
X145369750Y-107890581D01*
X145348926Y-107895797D01*
X145327691Y-107898947D01*
X145306250Y-107900000D01*
X144793750Y-107900000D01*
X144772309Y-107898947D01*
X144751074Y-107895797D01*
X144730250Y-107890581D01*
X144710038Y-107883349D01*
X144690632Y-107874170D01*
X144672219Y-107863134D01*
X144654976Y-107850346D01*
X144639070Y-107835930D01*
X144624654Y-107820024D01*
X144611866Y-107802781D01*
X144600830Y-107784368D01*
X144591651Y-107764962D01*
X144584419Y-107744750D01*
X144579203Y-107723926D01*
X144576053Y-107702691D01*
X144575000Y-107681250D01*
X144575000Y-107243750D01*
X144576053Y-107222309D01*
X144579203Y-107201074D01*
X144584419Y-107180250D01*
X144591651Y-107160038D01*
X144600830Y-107140632D01*
X144611866Y-107122219D01*
X144624654Y-107104976D01*
X144639070Y-107089070D01*
X144654976Y-107074654D01*
X144672219Y-107061866D01*
X144690632Y-107050830D01*
X144710038Y-107041651D01*
X144730250Y-107034419D01*
X144751074Y-107029203D01*
X144772309Y-107026053D01*
X144793750Y-107025000D01*
X145306250Y-107025000D01*
X145327691Y-107026053D01*
G37*
G36*
X145327691Y-108601053D02*
G01*
X145348926Y-108604203D01*
X145369750Y-108609419D01*
X145389962Y-108616651D01*
X145409368Y-108625830D01*
X145427781Y-108636866D01*
X145445024Y-108649654D01*
X145460930Y-108664070D01*
X145475346Y-108679976D01*
X145488134Y-108697219D01*
X145499170Y-108715632D01*
X145508349Y-108735038D01*
X145515581Y-108755250D01*
X145520797Y-108776074D01*
X145523947Y-108797309D01*
X145525000Y-108818750D01*
X145525000Y-109256250D01*
X145523947Y-109277691D01*
X145520797Y-109298926D01*
X145515581Y-109319750D01*
X145508349Y-109339962D01*
X145499170Y-109359368D01*
X145488134Y-109377781D01*
X145475346Y-109395024D01*
X145460930Y-109410930D01*
X145445024Y-109425346D01*
X145427781Y-109438134D01*
X145409368Y-109449170D01*
X145389962Y-109458349D01*
X145369750Y-109465581D01*
X145348926Y-109470797D01*
X145327691Y-109473947D01*
X145306250Y-109475000D01*
X144793750Y-109475000D01*
X144772309Y-109473947D01*
X144751074Y-109470797D01*
X144730250Y-109465581D01*
X144710038Y-109458349D01*
X144690632Y-109449170D01*
X144672219Y-109438134D01*
X144654976Y-109425346D01*
X144639070Y-109410930D01*
X144624654Y-109395024D01*
X144611866Y-109377781D01*
X144600830Y-109359368D01*
X144591651Y-109339962D01*
X144584419Y-109319750D01*
X144579203Y-109298926D01*
X144576053Y-109277691D01*
X144575000Y-109256250D01*
X144575000Y-108818750D01*
X144576053Y-108797309D01*
X144579203Y-108776074D01*
X144584419Y-108755250D01*
X144591651Y-108735038D01*
X144600830Y-108715632D01*
X144611866Y-108697219D01*
X144624654Y-108679976D01*
X144639070Y-108664070D01*
X144654976Y-108649654D01*
X144672219Y-108636866D01*
X144690632Y-108625830D01*
X144710038Y-108616651D01*
X144730250Y-108609419D01*
X144751074Y-108604203D01*
X144772309Y-108601053D01*
X144793750Y-108600000D01*
X145306250Y-108600000D01*
X145327691Y-108601053D01*
G37*
G36*
X139202691Y-105576053D02*
G01*
X139223926Y-105579203D01*
X139244750Y-105584419D01*
X139264962Y-105591651D01*
X139284368Y-105600830D01*
X139302781Y-105611866D01*
X139320024Y-105624654D01*
X139335930Y-105639070D01*
X139350346Y-105654976D01*
X139363134Y-105672219D01*
X139374170Y-105690632D01*
X139383349Y-105710038D01*
X139390581Y-105730250D01*
X139395797Y-105751074D01*
X139398947Y-105772309D01*
X139400000Y-105793750D01*
X139400000Y-106231250D01*
X139398947Y-106252691D01*
X139395797Y-106273926D01*
X139390581Y-106294750D01*
X139383349Y-106314962D01*
X139374170Y-106334368D01*
X139363134Y-106352781D01*
X139350346Y-106370024D01*
X139335930Y-106385930D01*
X139320024Y-106400346D01*
X139302781Y-106413134D01*
X139284368Y-106424170D01*
X139264962Y-106433349D01*
X139244750Y-106440581D01*
X139223926Y-106445797D01*
X139202691Y-106448947D01*
X139181250Y-106450000D01*
X138668750Y-106450000D01*
X138647309Y-106448947D01*
X138626074Y-106445797D01*
X138605250Y-106440581D01*
X138585038Y-106433349D01*
X138565632Y-106424170D01*
X138547219Y-106413134D01*
X138529976Y-106400346D01*
X138514070Y-106385930D01*
X138499654Y-106370024D01*
X138486866Y-106352781D01*
X138475830Y-106334368D01*
X138466651Y-106314962D01*
X138459419Y-106294750D01*
X138454203Y-106273926D01*
X138451053Y-106252691D01*
X138450000Y-106231250D01*
X138450000Y-105793750D01*
X138451053Y-105772309D01*
X138454203Y-105751074D01*
X138459419Y-105730250D01*
X138466651Y-105710038D01*
X138475830Y-105690632D01*
X138486866Y-105672219D01*
X138499654Y-105654976D01*
X138514070Y-105639070D01*
X138529976Y-105624654D01*
X138547219Y-105611866D01*
X138565632Y-105600830D01*
X138585038Y-105591651D01*
X138605250Y-105584419D01*
X138626074Y-105579203D01*
X138647309Y-105576053D01*
X138668750Y-105575000D01*
X139181250Y-105575000D01*
X139202691Y-105576053D01*
G37*
G36*
X139202691Y-107151053D02*
G01*
X139223926Y-107154203D01*
X139244750Y-107159419D01*
X139264962Y-107166651D01*
X139284368Y-107175830D01*
X139302781Y-107186866D01*
X139320024Y-107199654D01*
X139335930Y-107214070D01*
X139350346Y-107229976D01*
X139363134Y-107247219D01*
X139374170Y-107265632D01*
X139383349Y-107285038D01*
X139390581Y-107305250D01*
X139395797Y-107326074D01*
X139398947Y-107347309D01*
X139400000Y-107368750D01*
X139400000Y-107806250D01*
X139398947Y-107827691D01*
X139395797Y-107848926D01*
X139390581Y-107869750D01*
X139383349Y-107889962D01*
X139374170Y-107909368D01*
X139363134Y-107927781D01*
X139350346Y-107945024D01*
X139335930Y-107960930D01*
X139320024Y-107975346D01*
X139302781Y-107988134D01*
X139284368Y-107999170D01*
X139264962Y-108008349D01*
X139244750Y-108015581D01*
X139223926Y-108020797D01*
X139202691Y-108023947D01*
X139181250Y-108025000D01*
X138668750Y-108025000D01*
X138647309Y-108023947D01*
X138626074Y-108020797D01*
X138605250Y-108015581D01*
X138585038Y-108008349D01*
X138565632Y-107999170D01*
X138547219Y-107988134D01*
X138529976Y-107975346D01*
X138514070Y-107960930D01*
X138499654Y-107945024D01*
X138486866Y-107927781D01*
X138475830Y-107909368D01*
X138466651Y-107889962D01*
X138459419Y-107869750D01*
X138454203Y-107848926D01*
X138451053Y-107827691D01*
X138450000Y-107806250D01*
X138450000Y-107368750D01*
X138451053Y-107347309D01*
X138454203Y-107326074D01*
X138459419Y-107305250D01*
X138466651Y-107285038D01*
X138475830Y-107265632D01*
X138486866Y-107247219D01*
X138499654Y-107229976D01*
X138514070Y-107214070D01*
X138529976Y-107199654D01*
X138547219Y-107186866D01*
X138565632Y-107175830D01*
X138585038Y-107166651D01*
X138605250Y-107159419D01*
X138626074Y-107154203D01*
X138647309Y-107151053D01*
X138668750Y-107150000D01*
X139181250Y-107150000D01*
X139202691Y-107151053D01*
G37*
G36*
X143727691Y-103726053D02*
G01*
X143748926Y-103729203D01*
X143769750Y-103734419D01*
X143789962Y-103741651D01*
X143809368Y-103750830D01*
X143827781Y-103761866D01*
X143845024Y-103774654D01*
X143860930Y-103789070D01*
X143875346Y-103804976D01*
X143888134Y-103822219D01*
X143899170Y-103840632D01*
X143908349Y-103860038D01*
X143915581Y-103880250D01*
X143920797Y-103901074D01*
X143923947Y-103922309D01*
X143925000Y-103943750D01*
X143925000Y-104456250D01*
X143923947Y-104477691D01*
X143920797Y-104498926D01*
X143915581Y-104519750D01*
X143908349Y-104539962D01*
X143899170Y-104559368D01*
X143888134Y-104577781D01*
X143875346Y-104595024D01*
X143860930Y-104610930D01*
X143845024Y-104625346D01*
X143827781Y-104638134D01*
X143809368Y-104649170D01*
X143789962Y-104658349D01*
X143769750Y-104665581D01*
X143748926Y-104670797D01*
X143727691Y-104673947D01*
X143706250Y-104675000D01*
X143268750Y-104675000D01*
X143247309Y-104673947D01*
X143226074Y-104670797D01*
X143205250Y-104665581D01*
X143185038Y-104658349D01*
X143165632Y-104649170D01*
X143147219Y-104638134D01*
X143129976Y-104625346D01*
X143114070Y-104610930D01*
X143099654Y-104595024D01*
X143086866Y-104577781D01*
X143075830Y-104559368D01*
X143066651Y-104539962D01*
X143059419Y-104519750D01*
X143054203Y-104498926D01*
X143051053Y-104477691D01*
X143050000Y-104456250D01*
X143050000Y-103943750D01*
X143051053Y-103922309D01*
X143054203Y-103901074D01*
X143059419Y-103880250D01*
X143066651Y-103860038D01*
X143075830Y-103840632D01*
X143086866Y-103822219D01*
X143099654Y-103804976D01*
X143114070Y-103789070D01*
X143129976Y-103774654D01*
X143147219Y-103761866D01*
X143165632Y-103750830D01*
X143185038Y-103741651D01*
X143205250Y-103734419D01*
X143226074Y-103729203D01*
X143247309Y-103726053D01*
X143268750Y-103725000D01*
X143706250Y-103725000D01*
X143727691Y-103726053D01*
G37*
G36*
X145302691Y-103726053D02*
G01*
X145323926Y-103729203D01*
X145344750Y-103734419D01*
X145364962Y-103741651D01*
X145384368Y-103750830D01*
X145402781Y-103761866D01*
X145420024Y-103774654D01*
X145435930Y-103789070D01*
X145450346Y-103804976D01*
X145463134Y-103822219D01*
X145474170Y-103840632D01*
X145483349Y-103860038D01*
X145490581Y-103880250D01*
X145495797Y-103901074D01*
X145498947Y-103922309D01*
X145500000Y-103943750D01*
X145500000Y-104456250D01*
X145498947Y-104477691D01*
X145495797Y-104498926D01*
X145490581Y-104519750D01*
X145483349Y-104539962D01*
X145474170Y-104559368D01*
X145463134Y-104577781D01*
X145450346Y-104595024D01*
X145435930Y-104610930D01*
X145420024Y-104625346D01*
X145402781Y-104638134D01*
X145384368Y-104649170D01*
X145364962Y-104658349D01*
X145344750Y-104665581D01*
X145323926Y-104670797D01*
X145302691Y-104673947D01*
X145281250Y-104675000D01*
X144843750Y-104675000D01*
X144822309Y-104673947D01*
X144801074Y-104670797D01*
X144780250Y-104665581D01*
X144760038Y-104658349D01*
X144740632Y-104649170D01*
X144722219Y-104638134D01*
X144704976Y-104625346D01*
X144689070Y-104610930D01*
X144674654Y-104595024D01*
X144661866Y-104577781D01*
X144650830Y-104559368D01*
X144641651Y-104539962D01*
X144634419Y-104519750D01*
X144629203Y-104498926D01*
X144626053Y-104477691D01*
X144625000Y-104456250D01*
X144625000Y-103943750D01*
X144626053Y-103922309D01*
X144629203Y-103901074D01*
X144634419Y-103880250D01*
X144641651Y-103860038D01*
X144650830Y-103840632D01*
X144661866Y-103822219D01*
X144674654Y-103804976D01*
X144689070Y-103789070D01*
X144704976Y-103774654D01*
X144722219Y-103761866D01*
X144740632Y-103750830D01*
X144760038Y-103741651D01*
X144780250Y-103734419D01*
X144801074Y-103729203D01*
X144822309Y-103726053D01*
X144843750Y-103725000D01*
X145281250Y-103725000D01*
X145302691Y-103726053D01*
G37*
G36*
X143727691Y-105376053D02*
G01*
X143748926Y-105379203D01*
X143769750Y-105384419D01*
X143789962Y-105391651D01*
X143809368Y-105400830D01*
X143827781Y-105411866D01*
X143845024Y-105424654D01*
X143860930Y-105439070D01*
X143875346Y-105454976D01*
X143888134Y-105472219D01*
X143899170Y-105490632D01*
X143908349Y-105510038D01*
X143915581Y-105530250D01*
X143920797Y-105551074D01*
X143923947Y-105572309D01*
X143925000Y-105593750D01*
X143925000Y-106106250D01*
X143923947Y-106127691D01*
X143920797Y-106148926D01*
X143915581Y-106169750D01*
X143908349Y-106189962D01*
X143899170Y-106209368D01*
X143888134Y-106227781D01*
X143875346Y-106245024D01*
X143860930Y-106260930D01*
X143845024Y-106275346D01*
X143827781Y-106288134D01*
X143809368Y-106299170D01*
X143789962Y-106308349D01*
X143769750Y-106315581D01*
X143748926Y-106320797D01*
X143727691Y-106323947D01*
X143706250Y-106325000D01*
X143268750Y-106325000D01*
X143247309Y-106323947D01*
X143226074Y-106320797D01*
X143205250Y-106315581D01*
X143185038Y-106308349D01*
X143165632Y-106299170D01*
X143147219Y-106288134D01*
X143129976Y-106275346D01*
X143114070Y-106260930D01*
X143099654Y-106245024D01*
X143086866Y-106227781D01*
X143075830Y-106209368D01*
X143066651Y-106189962D01*
X143059419Y-106169750D01*
X143054203Y-106148926D01*
X143051053Y-106127691D01*
X143050000Y-106106250D01*
X143050000Y-105593750D01*
X143051053Y-105572309D01*
X143054203Y-105551074D01*
X143059419Y-105530250D01*
X143066651Y-105510038D01*
X143075830Y-105490632D01*
X143086866Y-105472219D01*
X143099654Y-105454976D01*
X143114070Y-105439070D01*
X143129976Y-105424654D01*
X143147219Y-105411866D01*
X143165632Y-105400830D01*
X143185038Y-105391651D01*
X143205250Y-105384419D01*
X143226074Y-105379203D01*
X143247309Y-105376053D01*
X143268750Y-105375000D01*
X143706250Y-105375000D01*
X143727691Y-105376053D01*
G37*
G36*
X145302691Y-105376053D02*
G01*
X145323926Y-105379203D01*
X145344750Y-105384419D01*
X145364962Y-105391651D01*
X145384368Y-105400830D01*
X145402781Y-105411866D01*
X145420024Y-105424654D01*
X145435930Y-105439070D01*
X145450346Y-105454976D01*
X145463134Y-105472219D01*
X145474170Y-105490632D01*
X145483349Y-105510038D01*
X145490581Y-105530250D01*
X145495797Y-105551074D01*
X145498947Y-105572309D01*
X145500000Y-105593750D01*
X145500000Y-106106250D01*
X145498947Y-106127691D01*
X145495797Y-106148926D01*
X145490581Y-106169750D01*
X145483349Y-106189962D01*
X145474170Y-106209368D01*
X145463134Y-106227781D01*
X145450346Y-106245024D01*
X145435930Y-106260930D01*
X145420024Y-106275346D01*
X145402781Y-106288134D01*
X145384368Y-106299170D01*
X145364962Y-106308349D01*
X145344750Y-106315581D01*
X145323926Y-106320797D01*
X145302691Y-106323947D01*
X145281250Y-106325000D01*
X144843750Y-106325000D01*
X144822309Y-106323947D01*
X144801074Y-106320797D01*
X144780250Y-106315581D01*
X144760038Y-106308349D01*
X144740632Y-106299170D01*
X144722219Y-106288134D01*
X144704976Y-106275346D01*
X144689070Y-106260930D01*
X144674654Y-106245024D01*
X144661866Y-106227781D01*
X144650830Y-106209368D01*
X144641651Y-106189962D01*
X144634419Y-106169750D01*
X144629203Y-106148926D01*
X144626053Y-106127691D01*
X144625000Y-106106250D01*
X144625000Y-105593750D01*
X144626053Y-105572309D01*
X144629203Y-105551074D01*
X144634419Y-105530250D01*
X144641651Y-105510038D01*
X144650830Y-105490632D01*
X144661866Y-105472219D01*
X144674654Y-105454976D01*
X144689070Y-105439070D01*
X144704976Y-105424654D01*
X144722219Y-105411866D01*
X144740632Y-105400830D01*
X144760038Y-105391651D01*
X144780250Y-105384419D01*
X144801074Y-105379203D01*
X144822309Y-105376053D01*
X144843750Y-105375000D01*
X145281250Y-105375000D01*
X145302691Y-105376053D01*
G37*
G36*
X141177691Y-99176053D02*
G01*
X141198926Y-99179203D01*
X141219750Y-99184419D01*
X141239962Y-99191651D01*
X141259368Y-99200830D01*
X141277781Y-99211866D01*
X141295024Y-99224654D01*
X141310930Y-99239070D01*
X141325346Y-99254976D01*
X141338134Y-99272219D01*
X141349170Y-99290632D01*
X141358349Y-99310038D01*
X141365581Y-99330250D01*
X141370797Y-99351074D01*
X141373947Y-99372309D01*
X141375000Y-99393750D01*
X141375000Y-99831250D01*
X141373947Y-99852691D01*
X141370797Y-99873926D01*
X141365581Y-99894750D01*
X141358349Y-99914962D01*
X141349170Y-99934368D01*
X141338134Y-99952781D01*
X141325346Y-99970024D01*
X141310930Y-99985930D01*
X141295024Y-100000346D01*
X141277781Y-100013134D01*
X141259368Y-100024170D01*
X141239962Y-100033349D01*
X141219750Y-100040581D01*
X141198926Y-100045797D01*
X141177691Y-100048947D01*
X141156250Y-100050000D01*
X140643750Y-100050000D01*
X140622309Y-100048947D01*
X140601074Y-100045797D01*
X140580250Y-100040581D01*
X140560038Y-100033349D01*
X140540632Y-100024170D01*
X140522219Y-100013134D01*
X140504976Y-100000346D01*
X140489070Y-99985930D01*
X140474654Y-99970024D01*
X140461866Y-99952781D01*
X140450830Y-99934368D01*
X140441651Y-99914962D01*
X140434419Y-99894750D01*
X140429203Y-99873926D01*
X140426053Y-99852691D01*
X140425000Y-99831250D01*
X140425000Y-99393750D01*
X140426053Y-99372309D01*
X140429203Y-99351074D01*
X140434419Y-99330250D01*
X140441651Y-99310038D01*
X140450830Y-99290632D01*
X140461866Y-99272219D01*
X140474654Y-99254976D01*
X140489070Y-99239070D01*
X140504976Y-99224654D01*
X140522219Y-99211866D01*
X140540632Y-99200830D01*
X140560038Y-99191651D01*
X140580250Y-99184419D01*
X140601074Y-99179203D01*
X140622309Y-99176053D01*
X140643750Y-99175000D01*
X141156250Y-99175000D01*
X141177691Y-99176053D01*
G37*
G36*
X141177691Y-97601053D02*
G01*
X141198926Y-97604203D01*
X141219750Y-97609419D01*
X141239962Y-97616651D01*
X141259368Y-97625830D01*
X141277781Y-97636866D01*
X141295024Y-97649654D01*
X141310930Y-97664070D01*
X141325346Y-97679976D01*
X141338134Y-97697219D01*
X141349170Y-97715632D01*
X141358349Y-97735038D01*
X141365581Y-97755250D01*
X141370797Y-97776074D01*
X141373947Y-97797309D01*
X141375000Y-97818750D01*
X141375000Y-98256250D01*
X141373947Y-98277691D01*
X141370797Y-98298926D01*
X141365581Y-98319750D01*
X141358349Y-98339962D01*
X141349170Y-98359368D01*
X141338134Y-98377781D01*
X141325346Y-98395024D01*
X141310930Y-98410930D01*
X141295024Y-98425346D01*
X141277781Y-98438134D01*
X141259368Y-98449170D01*
X141239962Y-98458349D01*
X141219750Y-98465581D01*
X141198926Y-98470797D01*
X141177691Y-98473947D01*
X141156250Y-98475000D01*
X140643750Y-98475000D01*
X140622309Y-98473947D01*
X140601074Y-98470797D01*
X140580250Y-98465581D01*
X140560038Y-98458349D01*
X140540632Y-98449170D01*
X140522219Y-98438134D01*
X140504976Y-98425346D01*
X140489070Y-98410930D01*
X140474654Y-98395024D01*
X140461866Y-98377781D01*
X140450830Y-98359368D01*
X140441651Y-98339962D01*
X140434419Y-98319750D01*
X140429203Y-98298926D01*
X140426053Y-98277691D01*
X140425000Y-98256250D01*
X140425000Y-97818750D01*
X140426053Y-97797309D01*
X140429203Y-97776074D01*
X140434419Y-97755250D01*
X140441651Y-97735038D01*
X140450830Y-97715632D01*
X140461866Y-97697219D01*
X140474654Y-97679976D01*
X140489070Y-97664070D01*
X140504976Y-97649654D01*
X140522219Y-97636866D01*
X140540632Y-97625830D01*
X140560038Y-97616651D01*
X140580250Y-97609419D01*
X140601074Y-97604203D01*
X140622309Y-97601053D01*
X140643750Y-97600000D01*
X141156250Y-97600000D01*
X141177691Y-97601053D01*
G37*
G36*
X137952691Y-95538053D02*
G01*
X137973926Y-95541203D01*
X137994750Y-95546419D01*
X138014962Y-95553651D01*
X138034368Y-95562830D01*
X138052781Y-95573866D01*
X138070024Y-95586654D01*
X138085930Y-95601070D01*
X138100346Y-95616976D01*
X138113134Y-95634219D01*
X138124170Y-95652632D01*
X138133349Y-95672038D01*
X138140581Y-95692250D01*
X138145797Y-95713074D01*
X138148947Y-95734309D01*
X138150000Y-95755750D01*
X138150000Y-96268250D01*
X138148947Y-96289691D01*
X138145797Y-96310926D01*
X138140581Y-96331750D01*
X138133349Y-96351962D01*
X138124170Y-96371368D01*
X138113134Y-96389781D01*
X138100346Y-96407024D01*
X138085930Y-96422930D01*
X138070024Y-96437346D01*
X138052781Y-96450134D01*
X138034368Y-96461170D01*
X138014962Y-96470349D01*
X137994750Y-96477581D01*
X137973926Y-96482797D01*
X137952691Y-96485947D01*
X137931250Y-96487000D01*
X137493750Y-96487000D01*
X137472309Y-96485947D01*
X137451074Y-96482797D01*
X137430250Y-96477581D01*
X137410038Y-96470349D01*
X137390632Y-96461170D01*
X137372219Y-96450134D01*
X137354976Y-96437346D01*
X137339070Y-96422930D01*
X137324654Y-96407024D01*
X137311866Y-96389781D01*
X137300830Y-96371368D01*
X137291651Y-96351962D01*
X137284419Y-96331750D01*
X137279203Y-96310926D01*
X137276053Y-96289691D01*
X137275000Y-96268250D01*
X137275000Y-95755750D01*
X137276053Y-95734309D01*
X137279203Y-95713074D01*
X137284419Y-95692250D01*
X137291651Y-95672038D01*
X137300830Y-95652632D01*
X137311866Y-95634219D01*
X137324654Y-95616976D01*
X137339070Y-95601070D01*
X137354976Y-95586654D01*
X137372219Y-95573866D01*
X137390632Y-95562830D01*
X137410038Y-95553651D01*
X137430250Y-95546419D01*
X137451074Y-95541203D01*
X137472309Y-95538053D01*
X137493750Y-95537000D01*
X137931250Y-95537000D01*
X137952691Y-95538053D01*
G37*
G36*
X139527691Y-95538053D02*
G01*
X139548926Y-95541203D01*
X139569750Y-95546419D01*
X139589962Y-95553651D01*
X139609368Y-95562830D01*
X139627781Y-95573866D01*
X139645024Y-95586654D01*
X139660930Y-95601070D01*
X139675346Y-95616976D01*
X139688134Y-95634219D01*
X139699170Y-95652632D01*
X139708349Y-95672038D01*
X139715581Y-95692250D01*
X139720797Y-95713074D01*
X139723947Y-95734309D01*
X139725000Y-95755750D01*
X139725000Y-96268250D01*
X139723947Y-96289691D01*
X139720797Y-96310926D01*
X139715581Y-96331750D01*
X139708349Y-96351962D01*
X139699170Y-96371368D01*
X139688134Y-96389781D01*
X139675346Y-96407024D01*
X139660930Y-96422930D01*
X139645024Y-96437346D01*
X139627781Y-96450134D01*
X139609368Y-96461170D01*
X139589962Y-96470349D01*
X139569750Y-96477581D01*
X139548926Y-96482797D01*
X139527691Y-96485947D01*
X139506250Y-96487000D01*
X139068750Y-96487000D01*
X139047309Y-96485947D01*
X139026074Y-96482797D01*
X139005250Y-96477581D01*
X138985038Y-96470349D01*
X138965632Y-96461170D01*
X138947219Y-96450134D01*
X138929976Y-96437346D01*
X138914070Y-96422930D01*
X138899654Y-96407024D01*
X138886866Y-96389781D01*
X138875830Y-96371368D01*
X138866651Y-96351962D01*
X138859419Y-96331750D01*
X138854203Y-96310926D01*
X138851053Y-96289691D01*
X138850000Y-96268250D01*
X138850000Y-95755750D01*
X138851053Y-95734309D01*
X138854203Y-95713074D01*
X138859419Y-95692250D01*
X138866651Y-95672038D01*
X138875830Y-95652632D01*
X138886866Y-95634219D01*
X138899654Y-95616976D01*
X138914070Y-95601070D01*
X138929976Y-95586654D01*
X138947219Y-95573866D01*
X138965632Y-95562830D01*
X138985038Y-95553651D01*
X139005250Y-95546419D01*
X139026074Y-95541203D01*
X139047309Y-95538053D01*
X139068750Y-95537000D01*
X139506250Y-95537000D01*
X139527691Y-95538053D01*
G37*
G36*
X137952691Y-92451053D02*
G01*
X137973926Y-92454203D01*
X137994750Y-92459419D01*
X138014962Y-92466651D01*
X138034368Y-92475830D01*
X138052781Y-92486866D01*
X138070024Y-92499654D01*
X138085930Y-92514070D01*
X138100346Y-92529976D01*
X138113134Y-92547219D01*
X138124170Y-92565632D01*
X138133349Y-92585038D01*
X138140581Y-92605250D01*
X138145797Y-92626074D01*
X138148947Y-92647309D01*
X138150000Y-92668750D01*
X138150000Y-93181250D01*
X138148947Y-93202691D01*
X138145797Y-93223926D01*
X138140581Y-93244750D01*
X138133349Y-93264962D01*
X138124170Y-93284368D01*
X138113134Y-93302781D01*
X138100346Y-93320024D01*
X138085930Y-93335930D01*
X138070024Y-93350346D01*
X138052781Y-93363134D01*
X138034368Y-93374170D01*
X138014962Y-93383349D01*
X137994750Y-93390581D01*
X137973926Y-93395797D01*
X137952691Y-93398947D01*
X137931250Y-93400000D01*
X137493750Y-93400000D01*
X137472309Y-93398947D01*
X137451074Y-93395797D01*
X137430250Y-93390581D01*
X137410038Y-93383349D01*
X137390632Y-93374170D01*
X137372219Y-93363134D01*
X137354976Y-93350346D01*
X137339070Y-93335930D01*
X137324654Y-93320024D01*
X137311866Y-93302781D01*
X137300830Y-93284368D01*
X137291651Y-93264962D01*
X137284419Y-93244750D01*
X137279203Y-93223926D01*
X137276053Y-93202691D01*
X137275000Y-93181250D01*
X137275000Y-92668750D01*
X137276053Y-92647309D01*
X137279203Y-92626074D01*
X137284419Y-92605250D01*
X137291651Y-92585038D01*
X137300830Y-92565632D01*
X137311866Y-92547219D01*
X137324654Y-92529976D01*
X137339070Y-92514070D01*
X137354976Y-92499654D01*
X137372219Y-92486866D01*
X137390632Y-92475830D01*
X137410038Y-92466651D01*
X137430250Y-92459419D01*
X137451074Y-92454203D01*
X137472309Y-92451053D01*
X137493750Y-92450000D01*
X137931250Y-92450000D01*
X137952691Y-92451053D01*
G37*
G36*
X139527691Y-92451053D02*
G01*
X139548926Y-92454203D01*
X139569750Y-92459419D01*
X139589962Y-92466651D01*
X139609368Y-92475830D01*
X139627781Y-92486866D01*
X139645024Y-92499654D01*
X139660930Y-92514070D01*
X139675346Y-92529976D01*
X139688134Y-92547219D01*
X139699170Y-92565632D01*
X139708349Y-92585038D01*
X139715581Y-92605250D01*
X139720797Y-92626074D01*
X139723947Y-92647309D01*
X139725000Y-92668750D01*
X139725000Y-93181250D01*
X139723947Y-93202691D01*
X139720797Y-93223926D01*
X139715581Y-93244750D01*
X139708349Y-93264962D01*
X139699170Y-93284368D01*
X139688134Y-93302781D01*
X139675346Y-93320024D01*
X139660930Y-93335930D01*
X139645024Y-93350346D01*
X139627781Y-93363134D01*
X139609368Y-93374170D01*
X139589962Y-93383349D01*
X139569750Y-93390581D01*
X139548926Y-93395797D01*
X139527691Y-93398947D01*
X139506250Y-93400000D01*
X139068750Y-93400000D01*
X139047309Y-93398947D01*
X139026074Y-93395797D01*
X139005250Y-93390581D01*
X138985038Y-93383349D01*
X138965632Y-93374170D01*
X138947219Y-93363134D01*
X138929976Y-93350346D01*
X138914070Y-93335930D01*
X138899654Y-93320024D01*
X138886866Y-93302781D01*
X138875830Y-93284368D01*
X138866651Y-93264962D01*
X138859419Y-93244750D01*
X138854203Y-93223926D01*
X138851053Y-93202691D01*
X138850000Y-93181250D01*
X138850000Y-92668750D01*
X138851053Y-92647309D01*
X138854203Y-92626074D01*
X138859419Y-92605250D01*
X138866651Y-92585038D01*
X138875830Y-92565632D01*
X138886866Y-92547219D01*
X138899654Y-92529976D01*
X138914070Y-92514070D01*
X138929976Y-92499654D01*
X138947219Y-92486866D01*
X138965632Y-92475830D01*
X138985038Y-92466651D01*
X139005250Y-92459419D01*
X139026074Y-92454203D01*
X139047309Y-92451053D01*
X139068750Y-92450000D01*
X139506250Y-92450000D01*
X139527691Y-92451053D01*
G37*
G36*
X144577691Y-94649053D02*
G01*
X144598926Y-94652203D01*
X144619750Y-94657419D01*
X144639962Y-94664651D01*
X144659368Y-94673830D01*
X144677781Y-94684866D01*
X144695024Y-94697654D01*
X144710930Y-94712070D01*
X144725346Y-94727976D01*
X144738134Y-94745219D01*
X144749170Y-94763632D01*
X144758349Y-94783038D01*
X144765581Y-94803250D01*
X144770797Y-94824074D01*
X144773947Y-94845309D01*
X144775000Y-94866750D01*
X144775000Y-95379250D01*
X144773947Y-95400691D01*
X144770797Y-95421926D01*
X144765581Y-95442750D01*
X144758349Y-95462962D01*
X144749170Y-95482368D01*
X144738134Y-95500781D01*
X144725346Y-95518024D01*
X144710930Y-95533930D01*
X144695024Y-95548346D01*
X144677781Y-95561134D01*
X144659368Y-95572170D01*
X144639962Y-95581349D01*
X144619750Y-95588581D01*
X144598926Y-95593797D01*
X144577691Y-95596947D01*
X144556250Y-95598000D01*
X144118750Y-95598000D01*
X144097309Y-95596947D01*
X144076074Y-95593797D01*
X144055250Y-95588581D01*
X144035038Y-95581349D01*
X144015632Y-95572170D01*
X143997219Y-95561134D01*
X143979976Y-95548346D01*
X143964070Y-95533930D01*
X143949654Y-95518024D01*
X143936866Y-95500781D01*
X143925830Y-95482368D01*
X143916651Y-95462962D01*
X143909419Y-95442750D01*
X143904203Y-95421926D01*
X143901053Y-95400691D01*
X143900000Y-95379250D01*
X143900000Y-94866750D01*
X143901053Y-94845309D01*
X143904203Y-94824074D01*
X143909419Y-94803250D01*
X143916651Y-94783038D01*
X143925830Y-94763632D01*
X143936866Y-94745219D01*
X143949654Y-94727976D01*
X143964070Y-94712070D01*
X143979976Y-94697654D01*
X143997219Y-94684866D01*
X144015632Y-94673830D01*
X144035038Y-94664651D01*
X144055250Y-94657419D01*
X144076074Y-94652203D01*
X144097309Y-94649053D01*
X144118750Y-94648000D01*
X144556250Y-94648000D01*
X144577691Y-94649053D01*
G37*
G36*
X143002691Y-94649053D02*
G01*
X143023926Y-94652203D01*
X143044750Y-94657419D01*
X143064962Y-94664651D01*
X143084368Y-94673830D01*
X143102781Y-94684866D01*
X143120024Y-94697654D01*
X143135930Y-94712070D01*
X143150346Y-94727976D01*
X143163134Y-94745219D01*
X143174170Y-94763632D01*
X143183349Y-94783038D01*
X143190581Y-94803250D01*
X143195797Y-94824074D01*
X143198947Y-94845309D01*
X143200000Y-94866750D01*
X143200000Y-95379250D01*
X143198947Y-95400691D01*
X143195797Y-95421926D01*
X143190581Y-95442750D01*
X143183349Y-95462962D01*
X143174170Y-95482368D01*
X143163134Y-95500781D01*
X143150346Y-95518024D01*
X143135930Y-95533930D01*
X143120024Y-95548346D01*
X143102781Y-95561134D01*
X143084368Y-95572170D01*
X143064962Y-95581349D01*
X143044750Y-95588581D01*
X143023926Y-95593797D01*
X143002691Y-95596947D01*
X142981250Y-95598000D01*
X142543750Y-95598000D01*
X142522309Y-95596947D01*
X142501074Y-95593797D01*
X142480250Y-95588581D01*
X142460038Y-95581349D01*
X142440632Y-95572170D01*
X142422219Y-95561134D01*
X142404976Y-95548346D01*
X142389070Y-95533930D01*
X142374654Y-95518024D01*
X142361866Y-95500781D01*
X142350830Y-95482368D01*
X142341651Y-95462962D01*
X142334419Y-95442750D01*
X142329203Y-95421926D01*
X142326053Y-95400691D01*
X142325000Y-95379250D01*
X142325000Y-94866750D01*
X142326053Y-94845309D01*
X142329203Y-94824074D01*
X142334419Y-94803250D01*
X142341651Y-94783038D01*
X142350830Y-94763632D01*
X142361866Y-94745219D01*
X142374654Y-94727976D01*
X142389070Y-94712070D01*
X142404976Y-94697654D01*
X142422219Y-94684866D01*
X142440632Y-94673830D01*
X142460038Y-94664651D01*
X142480250Y-94657419D01*
X142501074Y-94652203D01*
X142522309Y-94649053D01*
X142543750Y-94648000D01*
X142981250Y-94648000D01*
X143002691Y-94649053D01*
G37*
G36*
X144552691Y-92998053D02*
G01*
X144573926Y-93001203D01*
X144594750Y-93006419D01*
X144614962Y-93013651D01*
X144634368Y-93022830D01*
X144652781Y-93033866D01*
X144670024Y-93046654D01*
X144685930Y-93061070D01*
X144700346Y-93076976D01*
X144713134Y-93094219D01*
X144724170Y-93112632D01*
X144733349Y-93132038D01*
X144740581Y-93152250D01*
X144745797Y-93173074D01*
X144748947Y-93194309D01*
X144750000Y-93215750D01*
X144750000Y-93728250D01*
X144748947Y-93749691D01*
X144745797Y-93770926D01*
X144740581Y-93791750D01*
X144733349Y-93811962D01*
X144724170Y-93831368D01*
X144713134Y-93849781D01*
X144700346Y-93867024D01*
X144685930Y-93882930D01*
X144670024Y-93897346D01*
X144652781Y-93910134D01*
X144634368Y-93921170D01*
X144614962Y-93930349D01*
X144594750Y-93937581D01*
X144573926Y-93942797D01*
X144552691Y-93945947D01*
X144531250Y-93947000D01*
X144093750Y-93947000D01*
X144072309Y-93945947D01*
X144051074Y-93942797D01*
X144030250Y-93937581D01*
X144010038Y-93930349D01*
X143990632Y-93921170D01*
X143972219Y-93910134D01*
X143954976Y-93897346D01*
X143939070Y-93882930D01*
X143924654Y-93867024D01*
X143911866Y-93849781D01*
X143900830Y-93831368D01*
X143891651Y-93811962D01*
X143884419Y-93791750D01*
X143879203Y-93770926D01*
X143876053Y-93749691D01*
X143875000Y-93728250D01*
X143875000Y-93215750D01*
X143876053Y-93194309D01*
X143879203Y-93173074D01*
X143884419Y-93152250D01*
X143891651Y-93132038D01*
X143900830Y-93112632D01*
X143911866Y-93094219D01*
X143924654Y-93076976D01*
X143939070Y-93061070D01*
X143954976Y-93046654D01*
X143972219Y-93033866D01*
X143990632Y-93022830D01*
X144010038Y-93013651D01*
X144030250Y-93006419D01*
X144051074Y-93001203D01*
X144072309Y-92998053D01*
X144093750Y-92997000D01*
X144531250Y-92997000D01*
X144552691Y-92998053D01*
G37*
G36*
X142977691Y-92998053D02*
G01*
X142998926Y-93001203D01*
X143019750Y-93006419D01*
X143039962Y-93013651D01*
X143059368Y-93022830D01*
X143077781Y-93033866D01*
X143095024Y-93046654D01*
X143110930Y-93061070D01*
X143125346Y-93076976D01*
X143138134Y-93094219D01*
X143149170Y-93112632D01*
X143158349Y-93132038D01*
X143165581Y-93152250D01*
X143170797Y-93173074D01*
X143173947Y-93194309D01*
X143175000Y-93215750D01*
X143175000Y-93728250D01*
X143173947Y-93749691D01*
X143170797Y-93770926D01*
X143165581Y-93791750D01*
X143158349Y-93811962D01*
X143149170Y-93831368D01*
X143138134Y-93849781D01*
X143125346Y-93867024D01*
X143110930Y-93882930D01*
X143095024Y-93897346D01*
X143077781Y-93910134D01*
X143059368Y-93921170D01*
X143039962Y-93930349D01*
X143019750Y-93937581D01*
X142998926Y-93942797D01*
X142977691Y-93945947D01*
X142956250Y-93947000D01*
X142518750Y-93947000D01*
X142497309Y-93945947D01*
X142476074Y-93942797D01*
X142455250Y-93937581D01*
X142435038Y-93930349D01*
X142415632Y-93921170D01*
X142397219Y-93910134D01*
X142379976Y-93897346D01*
X142364070Y-93882930D01*
X142349654Y-93867024D01*
X142336866Y-93849781D01*
X142325830Y-93831368D01*
X142316651Y-93811962D01*
X142309419Y-93791750D01*
X142304203Y-93770926D01*
X142301053Y-93749691D01*
X142300000Y-93728250D01*
X142300000Y-93215750D01*
X142301053Y-93194309D01*
X142304203Y-93173074D01*
X142309419Y-93152250D01*
X142316651Y-93132038D01*
X142325830Y-93112632D01*
X142336866Y-93094219D01*
X142349654Y-93076976D01*
X142364070Y-93061070D01*
X142379976Y-93046654D01*
X142397219Y-93033866D01*
X142415632Y-93022830D01*
X142435038Y-93013651D01*
X142455250Y-93006419D01*
X142476074Y-93001203D01*
X142497309Y-92998053D01*
X142518750Y-92997000D01*
X142956250Y-92997000D01*
X142977691Y-92998053D01*
G37*
G36*
X149302691Y-95626053D02*
G01*
X149323926Y-95629203D01*
X149344750Y-95634419D01*
X149364962Y-95641651D01*
X149384368Y-95650830D01*
X149402781Y-95661866D01*
X149420024Y-95674654D01*
X149435930Y-95689070D01*
X149450346Y-95704976D01*
X149463134Y-95722219D01*
X149474170Y-95740632D01*
X149483349Y-95760038D01*
X149490581Y-95780250D01*
X149495797Y-95801074D01*
X149498947Y-95822309D01*
X149500000Y-95843750D01*
X149500000Y-96281250D01*
X149498947Y-96302691D01*
X149495797Y-96323926D01*
X149490581Y-96344750D01*
X149483349Y-96364962D01*
X149474170Y-96384368D01*
X149463134Y-96402781D01*
X149450346Y-96420024D01*
X149435930Y-96435930D01*
X149420024Y-96450346D01*
X149402781Y-96463134D01*
X149384368Y-96474170D01*
X149364962Y-96483349D01*
X149344750Y-96490581D01*
X149323926Y-96495797D01*
X149302691Y-96498947D01*
X149281250Y-96500000D01*
X148768750Y-96500000D01*
X148747309Y-96498947D01*
X148726074Y-96495797D01*
X148705250Y-96490581D01*
X148685038Y-96483349D01*
X148665632Y-96474170D01*
X148647219Y-96463134D01*
X148629976Y-96450346D01*
X148614070Y-96435930D01*
X148599654Y-96420024D01*
X148586866Y-96402781D01*
X148575830Y-96384368D01*
X148566651Y-96364962D01*
X148559419Y-96344750D01*
X148554203Y-96323926D01*
X148551053Y-96302691D01*
X148550000Y-96281250D01*
X148550000Y-95843750D01*
X148551053Y-95822309D01*
X148554203Y-95801074D01*
X148559419Y-95780250D01*
X148566651Y-95760038D01*
X148575830Y-95740632D01*
X148586866Y-95722219D01*
X148599654Y-95704976D01*
X148614070Y-95689070D01*
X148629976Y-95674654D01*
X148647219Y-95661866D01*
X148665632Y-95650830D01*
X148685038Y-95641651D01*
X148705250Y-95634419D01*
X148726074Y-95629203D01*
X148747309Y-95626053D01*
X148768750Y-95625000D01*
X149281250Y-95625000D01*
X149302691Y-95626053D01*
G37*
G36*
X149302691Y-97201053D02*
G01*
X149323926Y-97204203D01*
X149344750Y-97209419D01*
X149364962Y-97216651D01*
X149384368Y-97225830D01*
X149402781Y-97236866D01*
X149420024Y-97249654D01*
X149435930Y-97264070D01*
X149450346Y-97279976D01*
X149463134Y-97297219D01*
X149474170Y-97315632D01*
X149483349Y-97335038D01*
X149490581Y-97355250D01*
X149495797Y-97376074D01*
X149498947Y-97397309D01*
X149500000Y-97418750D01*
X149500000Y-97856250D01*
X149498947Y-97877691D01*
X149495797Y-97898926D01*
X149490581Y-97919750D01*
X149483349Y-97939962D01*
X149474170Y-97959368D01*
X149463134Y-97977781D01*
X149450346Y-97995024D01*
X149435930Y-98010930D01*
X149420024Y-98025346D01*
X149402781Y-98038134D01*
X149384368Y-98049170D01*
X149364962Y-98058349D01*
X149344750Y-98065581D01*
X149323926Y-98070797D01*
X149302691Y-98073947D01*
X149281250Y-98075000D01*
X148768750Y-98075000D01*
X148747309Y-98073947D01*
X148726074Y-98070797D01*
X148705250Y-98065581D01*
X148685038Y-98058349D01*
X148665632Y-98049170D01*
X148647219Y-98038134D01*
X148629976Y-98025346D01*
X148614070Y-98010930D01*
X148599654Y-97995024D01*
X148586866Y-97977781D01*
X148575830Y-97959368D01*
X148566651Y-97939962D01*
X148559419Y-97919750D01*
X148554203Y-97898926D01*
X148551053Y-97877691D01*
X148550000Y-97856250D01*
X148550000Y-97418750D01*
X148551053Y-97397309D01*
X148554203Y-97376074D01*
X148559419Y-97355250D01*
X148566651Y-97335038D01*
X148575830Y-97315632D01*
X148586866Y-97297219D01*
X148599654Y-97279976D01*
X148614070Y-97264070D01*
X148629976Y-97249654D01*
X148647219Y-97236866D01*
X148665632Y-97225830D01*
X148685038Y-97216651D01*
X148705250Y-97209419D01*
X148726074Y-97204203D01*
X148747309Y-97201053D01*
X148768750Y-97200000D01*
X149281250Y-97200000D01*
X149302691Y-97201053D01*
G37*
G36*
X151827691Y-103676053D02*
G01*
X151848926Y-103679203D01*
X151869750Y-103684419D01*
X151889962Y-103691651D01*
X151909368Y-103700830D01*
X151927781Y-103711866D01*
X151945024Y-103724654D01*
X151960930Y-103739070D01*
X151975346Y-103754976D01*
X151988134Y-103772219D01*
X151999170Y-103790632D01*
X152008349Y-103810038D01*
X152015581Y-103830250D01*
X152020797Y-103851074D01*
X152023947Y-103872309D01*
X152025000Y-103893750D01*
X152025000Y-104406250D01*
X152023947Y-104427691D01*
X152020797Y-104448926D01*
X152015581Y-104469750D01*
X152008349Y-104489962D01*
X151999170Y-104509368D01*
X151988134Y-104527781D01*
X151975346Y-104545024D01*
X151960930Y-104560930D01*
X151945024Y-104575346D01*
X151927781Y-104588134D01*
X151909368Y-104599170D01*
X151889962Y-104608349D01*
X151869750Y-104615581D01*
X151848926Y-104620797D01*
X151827691Y-104623947D01*
X151806250Y-104625000D01*
X151368750Y-104625000D01*
X151347309Y-104623947D01*
X151326074Y-104620797D01*
X151305250Y-104615581D01*
X151285038Y-104608349D01*
X151265632Y-104599170D01*
X151247219Y-104588134D01*
X151229976Y-104575346D01*
X151214070Y-104560930D01*
X151199654Y-104545024D01*
X151186866Y-104527781D01*
X151175830Y-104509368D01*
X151166651Y-104489962D01*
X151159419Y-104469750D01*
X151154203Y-104448926D01*
X151151053Y-104427691D01*
X151150000Y-104406250D01*
X151150000Y-103893750D01*
X151151053Y-103872309D01*
X151154203Y-103851074D01*
X151159419Y-103830250D01*
X151166651Y-103810038D01*
X151175830Y-103790632D01*
X151186866Y-103772219D01*
X151199654Y-103754976D01*
X151214070Y-103739070D01*
X151229976Y-103724654D01*
X151247219Y-103711866D01*
X151265632Y-103700830D01*
X151285038Y-103691651D01*
X151305250Y-103684419D01*
X151326074Y-103679203D01*
X151347309Y-103676053D01*
X151368750Y-103675000D01*
X151806250Y-103675000D01*
X151827691Y-103676053D01*
G37*
G36*
X153402691Y-103676053D02*
G01*
X153423926Y-103679203D01*
X153444750Y-103684419D01*
X153464962Y-103691651D01*
X153484368Y-103700830D01*
X153502781Y-103711866D01*
X153520024Y-103724654D01*
X153535930Y-103739070D01*
X153550346Y-103754976D01*
X153563134Y-103772219D01*
X153574170Y-103790632D01*
X153583349Y-103810038D01*
X153590581Y-103830250D01*
X153595797Y-103851074D01*
X153598947Y-103872309D01*
X153600000Y-103893750D01*
X153600000Y-104406250D01*
X153598947Y-104427691D01*
X153595797Y-104448926D01*
X153590581Y-104469750D01*
X153583349Y-104489962D01*
X153574170Y-104509368D01*
X153563134Y-104527781D01*
X153550346Y-104545024D01*
X153535930Y-104560930D01*
X153520024Y-104575346D01*
X153502781Y-104588134D01*
X153484368Y-104599170D01*
X153464962Y-104608349D01*
X153444750Y-104615581D01*
X153423926Y-104620797D01*
X153402691Y-104623947D01*
X153381250Y-104625000D01*
X152943750Y-104625000D01*
X152922309Y-104623947D01*
X152901074Y-104620797D01*
X152880250Y-104615581D01*
X152860038Y-104608349D01*
X152840632Y-104599170D01*
X152822219Y-104588134D01*
X152804976Y-104575346D01*
X152789070Y-104560930D01*
X152774654Y-104545024D01*
X152761866Y-104527781D01*
X152750830Y-104509368D01*
X152741651Y-104489962D01*
X152734419Y-104469750D01*
X152729203Y-104448926D01*
X152726053Y-104427691D01*
X152725000Y-104406250D01*
X152725000Y-103893750D01*
X152726053Y-103872309D01*
X152729203Y-103851074D01*
X152734419Y-103830250D01*
X152741651Y-103810038D01*
X152750830Y-103790632D01*
X152761866Y-103772219D01*
X152774654Y-103754976D01*
X152789070Y-103739070D01*
X152804976Y-103724654D01*
X152822219Y-103711866D01*
X152840632Y-103700830D01*
X152860038Y-103691651D01*
X152880250Y-103684419D01*
X152901074Y-103679203D01*
X152922309Y-103676053D01*
X152943750Y-103675000D01*
X153381250Y-103675000D01*
X153402691Y-103676053D01*
G37*
G36*
X151827691Y-102076053D02*
G01*
X151848926Y-102079203D01*
X151869750Y-102084419D01*
X151889962Y-102091651D01*
X151909368Y-102100830D01*
X151927781Y-102111866D01*
X151945024Y-102124654D01*
X151960930Y-102139070D01*
X151975346Y-102154976D01*
X151988134Y-102172219D01*
X151999170Y-102190632D01*
X152008349Y-102210038D01*
X152015581Y-102230250D01*
X152020797Y-102251074D01*
X152023947Y-102272309D01*
X152025000Y-102293750D01*
X152025000Y-102806250D01*
X152023947Y-102827691D01*
X152020797Y-102848926D01*
X152015581Y-102869750D01*
X152008349Y-102889962D01*
X151999170Y-102909368D01*
X151988134Y-102927781D01*
X151975346Y-102945024D01*
X151960930Y-102960930D01*
X151945024Y-102975346D01*
X151927781Y-102988134D01*
X151909368Y-102999170D01*
X151889962Y-103008349D01*
X151869750Y-103015581D01*
X151848926Y-103020797D01*
X151827691Y-103023947D01*
X151806250Y-103025000D01*
X151368750Y-103025000D01*
X151347309Y-103023947D01*
X151326074Y-103020797D01*
X151305250Y-103015581D01*
X151285038Y-103008349D01*
X151265632Y-102999170D01*
X151247219Y-102988134D01*
X151229976Y-102975346D01*
X151214070Y-102960930D01*
X151199654Y-102945024D01*
X151186866Y-102927781D01*
X151175830Y-102909368D01*
X151166651Y-102889962D01*
X151159419Y-102869750D01*
X151154203Y-102848926D01*
X151151053Y-102827691D01*
X151150000Y-102806250D01*
X151150000Y-102293750D01*
X151151053Y-102272309D01*
X151154203Y-102251074D01*
X151159419Y-102230250D01*
X151166651Y-102210038D01*
X151175830Y-102190632D01*
X151186866Y-102172219D01*
X151199654Y-102154976D01*
X151214070Y-102139070D01*
X151229976Y-102124654D01*
X151247219Y-102111866D01*
X151265632Y-102100830D01*
X151285038Y-102091651D01*
X151305250Y-102084419D01*
X151326074Y-102079203D01*
X151347309Y-102076053D01*
X151368750Y-102075000D01*
X151806250Y-102075000D01*
X151827691Y-102076053D01*
G37*
G36*
X153402691Y-102076053D02*
G01*
X153423926Y-102079203D01*
X153444750Y-102084419D01*
X153464962Y-102091651D01*
X153484368Y-102100830D01*
X153502781Y-102111866D01*
X153520024Y-102124654D01*
X153535930Y-102139070D01*
X153550346Y-102154976D01*
X153563134Y-102172219D01*
X153574170Y-102190632D01*
X153583349Y-102210038D01*
X153590581Y-102230250D01*
X153595797Y-102251074D01*
X153598947Y-102272309D01*
X153600000Y-102293750D01*
X153600000Y-102806250D01*
X153598947Y-102827691D01*
X153595797Y-102848926D01*
X153590581Y-102869750D01*
X153583349Y-102889962D01*
X153574170Y-102909368D01*
X153563134Y-102927781D01*
X153550346Y-102945024D01*
X153535930Y-102960930D01*
X153520024Y-102975346D01*
X153502781Y-102988134D01*
X153484368Y-102999170D01*
X153464962Y-103008349D01*
X153444750Y-103015581D01*
X153423926Y-103020797D01*
X153402691Y-103023947D01*
X153381250Y-103025000D01*
X152943750Y-103025000D01*
X152922309Y-103023947D01*
X152901074Y-103020797D01*
X152880250Y-103015581D01*
X152860038Y-103008349D01*
X152840632Y-102999170D01*
X152822219Y-102988134D01*
X152804976Y-102975346D01*
X152789070Y-102960930D01*
X152774654Y-102945024D01*
X152761866Y-102927781D01*
X152750830Y-102909368D01*
X152741651Y-102889962D01*
X152734419Y-102869750D01*
X152729203Y-102848926D01*
X152726053Y-102827691D01*
X152725000Y-102806250D01*
X152725000Y-102293750D01*
X152726053Y-102272309D01*
X152729203Y-102251074D01*
X152734419Y-102230250D01*
X152741651Y-102210038D01*
X152750830Y-102190632D01*
X152761866Y-102172219D01*
X152774654Y-102154976D01*
X152789070Y-102139070D01*
X152804976Y-102124654D01*
X152822219Y-102111866D01*
X152840632Y-102100830D01*
X152860038Y-102091651D01*
X152880250Y-102084419D01*
X152901074Y-102079203D01*
X152922309Y-102076053D01*
X152943750Y-102075000D01*
X153381250Y-102075000D01*
X153402691Y-102076053D01*
G37*
G36*
X152202691Y-95726053D02*
G01*
X152223926Y-95729203D01*
X152244750Y-95734419D01*
X152264962Y-95741651D01*
X152284368Y-95750830D01*
X152302781Y-95761866D01*
X152320024Y-95774654D01*
X152335930Y-95789070D01*
X152350346Y-95804976D01*
X152363134Y-95822219D01*
X152374170Y-95840632D01*
X152383349Y-95860038D01*
X152390581Y-95880250D01*
X152395797Y-95901074D01*
X152398947Y-95922309D01*
X152400000Y-95943750D01*
X152400000Y-96381250D01*
X152398947Y-96402691D01*
X152395797Y-96423926D01*
X152390581Y-96444750D01*
X152383349Y-96464962D01*
X152374170Y-96484368D01*
X152363134Y-96502781D01*
X152350346Y-96520024D01*
X152335930Y-96535930D01*
X152320024Y-96550346D01*
X152302781Y-96563134D01*
X152284368Y-96574170D01*
X152264962Y-96583349D01*
X152244750Y-96590581D01*
X152223926Y-96595797D01*
X152202691Y-96598947D01*
X152181250Y-96600000D01*
X151668750Y-96600000D01*
X151647309Y-96598947D01*
X151626074Y-96595797D01*
X151605250Y-96590581D01*
X151585038Y-96583349D01*
X151565632Y-96574170D01*
X151547219Y-96563134D01*
X151529976Y-96550346D01*
X151514070Y-96535930D01*
X151499654Y-96520024D01*
X151486866Y-96502781D01*
X151475830Y-96484368D01*
X151466651Y-96464962D01*
X151459419Y-96444750D01*
X151454203Y-96423926D01*
X151451053Y-96402691D01*
X151450000Y-96381250D01*
X151450000Y-95943750D01*
X151451053Y-95922309D01*
X151454203Y-95901074D01*
X151459419Y-95880250D01*
X151466651Y-95860038D01*
X151475830Y-95840632D01*
X151486866Y-95822219D01*
X151499654Y-95804976D01*
X151514070Y-95789070D01*
X151529976Y-95774654D01*
X151547219Y-95761866D01*
X151565632Y-95750830D01*
X151585038Y-95741651D01*
X151605250Y-95734419D01*
X151626074Y-95729203D01*
X151647309Y-95726053D01*
X151668750Y-95725000D01*
X152181250Y-95725000D01*
X152202691Y-95726053D01*
G37*
G36*
X152202691Y-97301053D02*
G01*
X152223926Y-97304203D01*
X152244750Y-97309419D01*
X152264962Y-97316651D01*
X152284368Y-97325830D01*
X152302781Y-97336866D01*
X152320024Y-97349654D01*
X152335930Y-97364070D01*
X152350346Y-97379976D01*
X152363134Y-97397219D01*
X152374170Y-97415632D01*
X152383349Y-97435038D01*
X152390581Y-97455250D01*
X152395797Y-97476074D01*
X152398947Y-97497309D01*
X152400000Y-97518750D01*
X152400000Y-97956250D01*
X152398947Y-97977691D01*
X152395797Y-97998926D01*
X152390581Y-98019750D01*
X152383349Y-98039962D01*
X152374170Y-98059368D01*
X152363134Y-98077781D01*
X152350346Y-98095024D01*
X152335930Y-98110930D01*
X152320024Y-98125346D01*
X152302781Y-98138134D01*
X152284368Y-98149170D01*
X152264962Y-98158349D01*
X152244750Y-98165581D01*
X152223926Y-98170797D01*
X152202691Y-98173947D01*
X152181250Y-98175000D01*
X151668750Y-98175000D01*
X151647309Y-98173947D01*
X151626074Y-98170797D01*
X151605250Y-98165581D01*
X151585038Y-98158349D01*
X151565632Y-98149170D01*
X151547219Y-98138134D01*
X151529976Y-98125346D01*
X151514070Y-98110930D01*
X151499654Y-98095024D01*
X151486866Y-98077781D01*
X151475830Y-98059368D01*
X151466651Y-98039962D01*
X151459419Y-98019750D01*
X151454203Y-97998926D01*
X151451053Y-97977691D01*
X151450000Y-97956250D01*
X151450000Y-97518750D01*
X151451053Y-97497309D01*
X151454203Y-97476074D01*
X151459419Y-97455250D01*
X151466651Y-97435038D01*
X151475830Y-97415632D01*
X151486866Y-97397219D01*
X151499654Y-97379976D01*
X151514070Y-97364070D01*
X151529976Y-97349654D01*
X151547219Y-97336866D01*
X151565632Y-97325830D01*
X151585038Y-97316651D01*
X151605250Y-97309419D01*
X151626074Y-97304203D01*
X151647309Y-97301053D01*
X151668750Y-97300000D01*
X152181250Y-97300000D01*
X152202691Y-97301053D01*
G37*
G36*
X140802691Y-107101053D02*
G01*
X140823926Y-107104203D01*
X140844750Y-107109419D01*
X140864962Y-107116651D01*
X140884368Y-107125830D01*
X140902781Y-107136866D01*
X140920024Y-107149654D01*
X140935930Y-107164070D01*
X140950346Y-107179976D01*
X140963134Y-107197219D01*
X140974170Y-107215632D01*
X140983349Y-107235038D01*
X140990581Y-107255250D01*
X140995797Y-107276074D01*
X140998947Y-107297309D01*
X141000000Y-107318750D01*
X141000000Y-107831250D01*
X140998947Y-107852691D01*
X140995797Y-107873926D01*
X140990581Y-107894750D01*
X140983349Y-107914962D01*
X140974170Y-107934368D01*
X140963134Y-107952781D01*
X140950346Y-107970024D01*
X140935930Y-107985930D01*
X140920024Y-108000346D01*
X140902781Y-108013134D01*
X140884368Y-108024170D01*
X140864962Y-108033349D01*
X140844750Y-108040581D01*
X140823926Y-108045797D01*
X140802691Y-108048947D01*
X140781250Y-108050000D01*
X140343750Y-108050000D01*
X140322309Y-108048947D01*
X140301074Y-108045797D01*
X140280250Y-108040581D01*
X140260038Y-108033349D01*
X140240632Y-108024170D01*
X140222219Y-108013134D01*
X140204976Y-108000346D01*
X140189070Y-107985930D01*
X140174654Y-107970024D01*
X140161866Y-107952781D01*
X140150830Y-107934368D01*
X140141651Y-107914962D01*
X140134419Y-107894750D01*
X140129203Y-107873926D01*
X140126053Y-107852691D01*
X140125000Y-107831250D01*
X140125000Y-107318750D01*
X140126053Y-107297309D01*
X140129203Y-107276074D01*
X140134419Y-107255250D01*
X140141651Y-107235038D01*
X140150830Y-107215632D01*
X140161866Y-107197219D01*
X140174654Y-107179976D01*
X140189070Y-107164070D01*
X140204976Y-107149654D01*
X140222219Y-107136866D01*
X140240632Y-107125830D01*
X140260038Y-107116651D01*
X140280250Y-107109419D01*
X140301074Y-107104203D01*
X140322309Y-107101053D01*
X140343750Y-107100000D01*
X140781250Y-107100000D01*
X140802691Y-107101053D01*
G37*
G36*
X142377691Y-107101053D02*
G01*
X142398926Y-107104203D01*
X142419750Y-107109419D01*
X142439962Y-107116651D01*
X142459368Y-107125830D01*
X142477781Y-107136866D01*
X142495024Y-107149654D01*
X142510930Y-107164070D01*
X142525346Y-107179976D01*
X142538134Y-107197219D01*
X142549170Y-107215632D01*
X142558349Y-107235038D01*
X142565581Y-107255250D01*
X142570797Y-107276074D01*
X142573947Y-107297309D01*
X142575000Y-107318750D01*
X142575000Y-107831250D01*
X142573947Y-107852691D01*
X142570797Y-107873926D01*
X142565581Y-107894750D01*
X142558349Y-107914962D01*
X142549170Y-107934368D01*
X142538134Y-107952781D01*
X142525346Y-107970024D01*
X142510930Y-107985930D01*
X142495024Y-108000346D01*
X142477781Y-108013134D01*
X142459368Y-108024170D01*
X142439962Y-108033349D01*
X142419750Y-108040581D01*
X142398926Y-108045797D01*
X142377691Y-108048947D01*
X142356250Y-108050000D01*
X141918750Y-108050000D01*
X141897309Y-108048947D01*
X141876074Y-108045797D01*
X141855250Y-108040581D01*
X141835038Y-108033349D01*
X141815632Y-108024170D01*
X141797219Y-108013134D01*
X141779976Y-108000346D01*
X141764070Y-107985930D01*
X141749654Y-107970024D01*
X141736866Y-107952781D01*
X141725830Y-107934368D01*
X141716651Y-107914962D01*
X141709419Y-107894750D01*
X141704203Y-107873926D01*
X141701053Y-107852691D01*
X141700000Y-107831250D01*
X141700000Y-107318750D01*
X141701053Y-107297309D01*
X141704203Y-107276074D01*
X141709419Y-107255250D01*
X141716651Y-107235038D01*
X141725830Y-107215632D01*
X141736866Y-107197219D01*
X141749654Y-107179976D01*
X141764070Y-107164070D01*
X141779976Y-107149654D01*
X141797219Y-107136866D01*
X141815632Y-107125830D01*
X141835038Y-107116651D01*
X141855250Y-107109419D01*
X141876074Y-107104203D01*
X141897309Y-107101053D01*
X141918750Y-107100000D01*
X142356250Y-107100000D01*
X142377691Y-107101053D01*
G37*
G36*
X146902691Y-105301053D02*
G01*
X146923926Y-105304203D01*
X146944750Y-105309419D01*
X146964962Y-105316651D01*
X146984368Y-105325830D01*
X147002781Y-105336866D01*
X147020024Y-105349654D01*
X147035930Y-105364070D01*
X147050346Y-105379976D01*
X147063134Y-105397219D01*
X147074170Y-105415632D01*
X147083349Y-105435038D01*
X147090581Y-105455250D01*
X147095797Y-105476074D01*
X147098947Y-105497309D01*
X147100000Y-105518750D01*
X147100000Y-105956250D01*
X147098947Y-105977691D01*
X147095797Y-105998926D01*
X147090581Y-106019750D01*
X147083349Y-106039962D01*
X147074170Y-106059368D01*
X147063134Y-106077781D01*
X147050346Y-106095024D01*
X147035930Y-106110930D01*
X147020024Y-106125346D01*
X147002781Y-106138134D01*
X146984368Y-106149170D01*
X146964962Y-106158349D01*
X146944750Y-106165581D01*
X146923926Y-106170797D01*
X146902691Y-106173947D01*
X146881250Y-106175000D01*
X146368750Y-106175000D01*
X146347309Y-106173947D01*
X146326074Y-106170797D01*
X146305250Y-106165581D01*
X146285038Y-106158349D01*
X146265632Y-106149170D01*
X146247219Y-106138134D01*
X146229976Y-106125346D01*
X146214070Y-106110930D01*
X146199654Y-106095024D01*
X146186866Y-106077781D01*
X146175830Y-106059368D01*
X146166651Y-106039962D01*
X146159419Y-106019750D01*
X146154203Y-105998926D01*
X146151053Y-105977691D01*
X146150000Y-105956250D01*
X146150000Y-105518750D01*
X146151053Y-105497309D01*
X146154203Y-105476074D01*
X146159419Y-105455250D01*
X146166651Y-105435038D01*
X146175830Y-105415632D01*
X146186866Y-105397219D01*
X146199654Y-105379976D01*
X146214070Y-105364070D01*
X146229976Y-105349654D01*
X146247219Y-105336866D01*
X146265632Y-105325830D01*
X146285038Y-105316651D01*
X146305250Y-105309419D01*
X146326074Y-105304203D01*
X146347309Y-105301053D01*
X146368750Y-105300000D01*
X146881250Y-105300000D01*
X146902691Y-105301053D01*
G37*
G36*
X146902691Y-103726053D02*
G01*
X146923926Y-103729203D01*
X146944750Y-103734419D01*
X146964962Y-103741651D01*
X146984368Y-103750830D01*
X147002781Y-103761866D01*
X147020024Y-103774654D01*
X147035930Y-103789070D01*
X147050346Y-103804976D01*
X147063134Y-103822219D01*
X147074170Y-103840632D01*
X147083349Y-103860038D01*
X147090581Y-103880250D01*
X147095797Y-103901074D01*
X147098947Y-103922309D01*
X147100000Y-103943750D01*
X147100000Y-104381250D01*
X147098947Y-104402691D01*
X147095797Y-104423926D01*
X147090581Y-104444750D01*
X147083349Y-104464962D01*
X147074170Y-104484368D01*
X147063134Y-104502781D01*
X147050346Y-104520024D01*
X147035930Y-104535930D01*
X147020024Y-104550346D01*
X147002781Y-104563134D01*
X146984368Y-104574170D01*
X146964962Y-104583349D01*
X146944750Y-104590581D01*
X146923926Y-104595797D01*
X146902691Y-104598947D01*
X146881250Y-104600000D01*
X146368750Y-104600000D01*
X146347309Y-104598947D01*
X146326074Y-104595797D01*
X146305250Y-104590581D01*
X146285038Y-104583349D01*
X146265632Y-104574170D01*
X146247219Y-104563134D01*
X146229976Y-104550346D01*
X146214070Y-104535930D01*
X146199654Y-104520024D01*
X146186866Y-104502781D01*
X146175830Y-104484368D01*
X146166651Y-104464962D01*
X146159419Y-104444750D01*
X146154203Y-104423926D01*
X146151053Y-104402691D01*
X146150000Y-104381250D01*
X146150000Y-103943750D01*
X146151053Y-103922309D01*
X146154203Y-103901074D01*
X146159419Y-103880250D01*
X146166651Y-103860038D01*
X146175830Y-103840632D01*
X146186866Y-103822219D01*
X146199654Y-103804976D01*
X146214070Y-103789070D01*
X146229976Y-103774654D01*
X146247219Y-103761866D01*
X146265632Y-103750830D01*
X146285038Y-103741651D01*
X146305250Y-103734419D01*
X146326074Y-103729203D01*
X146347309Y-103726053D01*
X146368750Y-103725000D01*
X146881250Y-103725000D01*
X146902691Y-103726053D01*
G37*
G36*
X148502691Y-105288553D02*
G01*
X148523926Y-105291703D01*
X148544750Y-105296919D01*
X148564962Y-105304151D01*
X148584368Y-105313330D01*
X148602781Y-105324366D01*
X148620024Y-105337154D01*
X148635930Y-105351570D01*
X148650346Y-105367476D01*
X148663134Y-105384719D01*
X148674170Y-105403132D01*
X148683349Y-105422538D01*
X148690581Y-105442750D01*
X148695797Y-105463574D01*
X148698947Y-105484809D01*
X148700000Y-105506250D01*
X148700000Y-105943750D01*
X148698947Y-105965191D01*
X148695797Y-105986426D01*
X148690581Y-106007250D01*
X148683349Y-106027462D01*
X148674170Y-106046868D01*
X148663134Y-106065281D01*
X148650346Y-106082524D01*
X148635930Y-106098430D01*
X148620024Y-106112846D01*
X148602781Y-106125634D01*
X148584368Y-106136670D01*
X148564962Y-106145849D01*
X148544750Y-106153081D01*
X148523926Y-106158297D01*
X148502691Y-106161447D01*
X148481250Y-106162500D01*
X147968750Y-106162500D01*
X147947309Y-106161447D01*
X147926074Y-106158297D01*
X147905250Y-106153081D01*
X147885038Y-106145849D01*
X147865632Y-106136670D01*
X147847219Y-106125634D01*
X147829976Y-106112846D01*
X147814070Y-106098430D01*
X147799654Y-106082524D01*
X147786866Y-106065281D01*
X147775830Y-106046868D01*
X147766651Y-106027462D01*
X147759419Y-106007250D01*
X147754203Y-105986426D01*
X147751053Y-105965191D01*
X147750000Y-105943750D01*
X147750000Y-105506250D01*
X147751053Y-105484809D01*
X147754203Y-105463574D01*
X147759419Y-105442750D01*
X147766651Y-105422538D01*
X147775830Y-105403132D01*
X147786866Y-105384719D01*
X147799654Y-105367476D01*
X147814070Y-105351570D01*
X147829976Y-105337154D01*
X147847219Y-105324366D01*
X147865632Y-105313330D01*
X147885038Y-105304151D01*
X147905250Y-105296919D01*
X147926074Y-105291703D01*
X147947309Y-105288553D01*
X147968750Y-105287500D01*
X148481250Y-105287500D01*
X148502691Y-105288553D01*
G37*
G36*
X148502691Y-103713553D02*
G01*
X148523926Y-103716703D01*
X148544750Y-103721919D01*
X148564962Y-103729151D01*
X148584368Y-103738330D01*
X148602781Y-103749366D01*
X148620024Y-103762154D01*
X148635930Y-103776570D01*
X148650346Y-103792476D01*
X148663134Y-103809719D01*
X148674170Y-103828132D01*
X148683349Y-103847538D01*
X148690581Y-103867750D01*
X148695797Y-103888574D01*
X148698947Y-103909809D01*
X148700000Y-103931250D01*
X148700000Y-104368750D01*
X148698947Y-104390191D01*
X148695797Y-104411426D01*
X148690581Y-104432250D01*
X148683349Y-104452462D01*
X148674170Y-104471868D01*
X148663134Y-104490281D01*
X148650346Y-104507524D01*
X148635930Y-104523430D01*
X148620024Y-104537846D01*
X148602781Y-104550634D01*
X148584368Y-104561670D01*
X148564962Y-104570849D01*
X148544750Y-104578081D01*
X148523926Y-104583297D01*
X148502691Y-104586447D01*
X148481250Y-104587500D01*
X147968750Y-104587500D01*
X147947309Y-104586447D01*
X147926074Y-104583297D01*
X147905250Y-104578081D01*
X147885038Y-104570849D01*
X147865632Y-104561670D01*
X147847219Y-104550634D01*
X147829976Y-104537846D01*
X147814070Y-104523430D01*
X147799654Y-104507524D01*
X147786866Y-104490281D01*
X147775830Y-104471868D01*
X147766651Y-104452462D01*
X147759419Y-104432250D01*
X147754203Y-104411426D01*
X147751053Y-104390191D01*
X147750000Y-104368750D01*
X147750000Y-103931250D01*
X147751053Y-103909809D01*
X147754203Y-103888574D01*
X147759419Y-103867750D01*
X147766651Y-103847538D01*
X147775830Y-103828132D01*
X147786866Y-103809719D01*
X147799654Y-103792476D01*
X147814070Y-103776570D01*
X147829976Y-103762154D01*
X147847219Y-103749366D01*
X147865632Y-103738330D01*
X147885038Y-103729151D01*
X147905250Y-103721919D01*
X147926074Y-103716703D01*
X147947309Y-103713553D01*
X147968750Y-103712500D01*
X148481250Y-103712500D01*
X148502691Y-103713553D01*
G37*
G36*
X139577691Y-100851053D02*
G01*
X139598926Y-100854203D01*
X139619750Y-100859419D01*
X139639962Y-100866651D01*
X139659368Y-100875830D01*
X139677781Y-100886866D01*
X139695024Y-100899654D01*
X139710930Y-100914070D01*
X139725346Y-100929976D01*
X139738134Y-100947219D01*
X139749170Y-100965632D01*
X139758349Y-100985038D01*
X139765581Y-101005250D01*
X139770797Y-101026074D01*
X139773947Y-101047309D01*
X139775000Y-101068750D01*
X139775000Y-101506250D01*
X139773947Y-101527691D01*
X139770797Y-101548926D01*
X139765581Y-101569750D01*
X139758349Y-101589962D01*
X139749170Y-101609368D01*
X139738134Y-101627781D01*
X139725346Y-101645024D01*
X139710930Y-101660930D01*
X139695024Y-101675346D01*
X139677781Y-101688134D01*
X139659368Y-101699170D01*
X139639962Y-101708349D01*
X139619750Y-101715581D01*
X139598926Y-101720797D01*
X139577691Y-101723947D01*
X139556250Y-101725000D01*
X139043750Y-101725000D01*
X139022309Y-101723947D01*
X139001074Y-101720797D01*
X138980250Y-101715581D01*
X138960038Y-101708349D01*
X138940632Y-101699170D01*
X138922219Y-101688134D01*
X138904976Y-101675346D01*
X138889070Y-101660930D01*
X138874654Y-101645024D01*
X138861866Y-101627781D01*
X138850830Y-101609368D01*
X138841651Y-101589962D01*
X138834419Y-101569750D01*
X138829203Y-101548926D01*
X138826053Y-101527691D01*
X138825000Y-101506250D01*
X138825000Y-101068750D01*
X138826053Y-101047309D01*
X138829203Y-101026074D01*
X138834419Y-101005250D01*
X138841651Y-100985038D01*
X138850830Y-100965632D01*
X138861866Y-100947219D01*
X138874654Y-100929976D01*
X138889070Y-100914070D01*
X138904976Y-100899654D01*
X138922219Y-100886866D01*
X138940632Y-100875830D01*
X138960038Y-100866651D01*
X138980250Y-100859419D01*
X139001074Y-100854203D01*
X139022309Y-100851053D01*
X139043750Y-100850000D01*
X139556250Y-100850000D01*
X139577691Y-100851053D01*
G37*
G36*
X139577691Y-99276053D02*
G01*
X139598926Y-99279203D01*
X139619750Y-99284419D01*
X139639962Y-99291651D01*
X139659368Y-99300830D01*
X139677781Y-99311866D01*
X139695024Y-99324654D01*
X139710930Y-99339070D01*
X139725346Y-99354976D01*
X139738134Y-99372219D01*
X139749170Y-99390632D01*
X139758349Y-99410038D01*
X139765581Y-99430250D01*
X139770797Y-99451074D01*
X139773947Y-99472309D01*
X139775000Y-99493750D01*
X139775000Y-99931250D01*
X139773947Y-99952691D01*
X139770797Y-99973926D01*
X139765581Y-99994750D01*
X139758349Y-100014962D01*
X139749170Y-100034368D01*
X139738134Y-100052781D01*
X139725346Y-100070024D01*
X139710930Y-100085930D01*
X139695024Y-100100346D01*
X139677781Y-100113134D01*
X139659368Y-100124170D01*
X139639962Y-100133349D01*
X139619750Y-100140581D01*
X139598926Y-100145797D01*
X139577691Y-100148947D01*
X139556250Y-100150000D01*
X139043750Y-100150000D01*
X139022309Y-100148947D01*
X139001074Y-100145797D01*
X138980250Y-100140581D01*
X138960038Y-100133349D01*
X138940632Y-100124170D01*
X138922219Y-100113134D01*
X138904976Y-100100346D01*
X138889070Y-100085930D01*
X138874654Y-100070024D01*
X138861866Y-100052781D01*
X138850830Y-100034368D01*
X138841651Y-100014962D01*
X138834419Y-99994750D01*
X138829203Y-99973926D01*
X138826053Y-99952691D01*
X138825000Y-99931250D01*
X138825000Y-99493750D01*
X138826053Y-99472309D01*
X138829203Y-99451074D01*
X138834419Y-99430250D01*
X138841651Y-99410038D01*
X138850830Y-99390632D01*
X138861866Y-99372219D01*
X138874654Y-99354976D01*
X138889070Y-99339070D01*
X138904976Y-99324654D01*
X138922219Y-99311866D01*
X138940632Y-99300830D01*
X138960038Y-99291651D01*
X138980250Y-99284419D01*
X139001074Y-99279203D01*
X139022309Y-99276053D01*
X139043750Y-99275000D01*
X139556250Y-99275000D01*
X139577691Y-99276053D01*
G37*
G36*
X147470691Y-95296053D02*
G01*
X147491926Y-95299203D01*
X147512750Y-95304419D01*
X147532962Y-95311651D01*
X147552368Y-95320830D01*
X147570781Y-95331866D01*
X147588024Y-95344654D01*
X147603930Y-95359070D01*
X147618346Y-95374976D01*
X147631134Y-95392219D01*
X147642170Y-95410632D01*
X147651349Y-95430038D01*
X147658581Y-95450250D01*
X147663797Y-95471074D01*
X147666947Y-95492309D01*
X147668000Y-95513750D01*
X147668000Y-95951250D01*
X147666947Y-95972691D01*
X147663797Y-95993926D01*
X147658581Y-96014750D01*
X147651349Y-96034962D01*
X147642170Y-96054368D01*
X147631134Y-96072781D01*
X147618346Y-96090024D01*
X147603930Y-96105930D01*
X147588024Y-96120346D01*
X147570781Y-96133134D01*
X147552368Y-96144170D01*
X147532962Y-96153349D01*
X147512750Y-96160581D01*
X147491926Y-96165797D01*
X147470691Y-96168947D01*
X147449250Y-96170000D01*
X146936750Y-96170000D01*
X146915309Y-96168947D01*
X146894074Y-96165797D01*
X146873250Y-96160581D01*
X146853038Y-96153349D01*
X146833632Y-96144170D01*
X146815219Y-96133134D01*
X146797976Y-96120346D01*
X146782070Y-96105930D01*
X146767654Y-96090024D01*
X146754866Y-96072781D01*
X146743830Y-96054368D01*
X146734651Y-96034962D01*
X146727419Y-96014750D01*
X146722203Y-95993926D01*
X146719053Y-95972691D01*
X146718000Y-95951250D01*
X146718000Y-95513750D01*
X146719053Y-95492309D01*
X146722203Y-95471074D01*
X146727419Y-95450250D01*
X146734651Y-95430038D01*
X146743830Y-95410632D01*
X146754866Y-95392219D01*
X146767654Y-95374976D01*
X146782070Y-95359070D01*
X146797976Y-95344654D01*
X146815219Y-95331866D01*
X146833632Y-95320830D01*
X146853038Y-95311651D01*
X146873250Y-95304419D01*
X146894074Y-95299203D01*
X146915309Y-95296053D01*
X146936750Y-95295000D01*
X147449250Y-95295000D01*
X147470691Y-95296053D01*
G37*
G36*
X147470691Y-96871053D02*
G01*
X147491926Y-96874203D01*
X147512750Y-96879419D01*
X147532962Y-96886651D01*
X147552368Y-96895830D01*
X147570781Y-96906866D01*
X147588024Y-96919654D01*
X147603930Y-96934070D01*
X147618346Y-96949976D01*
X147631134Y-96967219D01*
X147642170Y-96985632D01*
X147651349Y-97005038D01*
X147658581Y-97025250D01*
X147663797Y-97046074D01*
X147666947Y-97067309D01*
X147668000Y-97088750D01*
X147668000Y-97526250D01*
X147666947Y-97547691D01*
X147663797Y-97568926D01*
X147658581Y-97589750D01*
X147651349Y-97609962D01*
X147642170Y-97629368D01*
X147631134Y-97647781D01*
X147618346Y-97665024D01*
X147603930Y-97680930D01*
X147588024Y-97695346D01*
X147570781Y-97708134D01*
X147552368Y-97719170D01*
X147532962Y-97728349D01*
X147512750Y-97735581D01*
X147491926Y-97740797D01*
X147470691Y-97743947D01*
X147449250Y-97745000D01*
X146936750Y-97745000D01*
X146915309Y-97743947D01*
X146894074Y-97740797D01*
X146873250Y-97735581D01*
X146853038Y-97728349D01*
X146833632Y-97719170D01*
X146815219Y-97708134D01*
X146797976Y-97695346D01*
X146782070Y-97680930D01*
X146767654Y-97665024D01*
X146754866Y-97647781D01*
X146743830Y-97629368D01*
X146734651Y-97609962D01*
X146727419Y-97589750D01*
X146722203Y-97568926D01*
X146719053Y-97547691D01*
X146718000Y-97526250D01*
X146718000Y-97088750D01*
X146719053Y-97067309D01*
X146722203Y-97046074D01*
X146727419Y-97025250D01*
X146734651Y-97005038D01*
X146743830Y-96985632D01*
X146754866Y-96967219D01*
X146767654Y-96949976D01*
X146782070Y-96934070D01*
X146797976Y-96919654D01*
X146815219Y-96906866D01*
X146833632Y-96895830D01*
X146853038Y-96886651D01*
X146873250Y-96879419D01*
X146894074Y-96874203D01*
X146915309Y-96871053D01*
X146936750Y-96870000D01*
X147449250Y-96870000D01*
X147470691Y-96871053D01*
G37*
G36*
X149302691Y-98826053D02*
G01*
X149323926Y-98829203D01*
X149344750Y-98834419D01*
X149364962Y-98841651D01*
X149384368Y-98850830D01*
X149402781Y-98861866D01*
X149420024Y-98874654D01*
X149435930Y-98889070D01*
X149450346Y-98904976D01*
X149463134Y-98922219D01*
X149474170Y-98940632D01*
X149483349Y-98960038D01*
X149490581Y-98980250D01*
X149495797Y-99001074D01*
X149498947Y-99022309D01*
X149500000Y-99043750D01*
X149500000Y-99481250D01*
X149498947Y-99502691D01*
X149495797Y-99523926D01*
X149490581Y-99544750D01*
X149483349Y-99564962D01*
X149474170Y-99584368D01*
X149463134Y-99602781D01*
X149450346Y-99620024D01*
X149435930Y-99635930D01*
X149420024Y-99650346D01*
X149402781Y-99663134D01*
X149384368Y-99674170D01*
X149364962Y-99683349D01*
X149344750Y-99690581D01*
X149323926Y-99695797D01*
X149302691Y-99698947D01*
X149281250Y-99700000D01*
X148768750Y-99700000D01*
X148747309Y-99698947D01*
X148726074Y-99695797D01*
X148705250Y-99690581D01*
X148685038Y-99683349D01*
X148665632Y-99674170D01*
X148647219Y-99663134D01*
X148629976Y-99650346D01*
X148614070Y-99635930D01*
X148599654Y-99620024D01*
X148586866Y-99602781D01*
X148575830Y-99584368D01*
X148566651Y-99564962D01*
X148559419Y-99544750D01*
X148554203Y-99523926D01*
X148551053Y-99502691D01*
X148550000Y-99481250D01*
X148550000Y-99043750D01*
X148551053Y-99022309D01*
X148554203Y-99001074D01*
X148559419Y-98980250D01*
X148566651Y-98960038D01*
X148575830Y-98940632D01*
X148586866Y-98922219D01*
X148599654Y-98904976D01*
X148614070Y-98889070D01*
X148629976Y-98874654D01*
X148647219Y-98861866D01*
X148665632Y-98850830D01*
X148685038Y-98841651D01*
X148705250Y-98834419D01*
X148726074Y-98829203D01*
X148747309Y-98826053D01*
X148768750Y-98825000D01*
X149281250Y-98825000D01*
X149302691Y-98826053D01*
G37*
G36*
X149302691Y-100401053D02*
G01*
X149323926Y-100404203D01*
X149344750Y-100409419D01*
X149364962Y-100416651D01*
X149384368Y-100425830D01*
X149402781Y-100436866D01*
X149420024Y-100449654D01*
X149435930Y-100464070D01*
X149450346Y-100479976D01*
X149463134Y-100497219D01*
X149474170Y-100515632D01*
X149483349Y-100535038D01*
X149490581Y-100555250D01*
X149495797Y-100576074D01*
X149498947Y-100597309D01*
X149500000Y-100618750D01*
X149500000Y-101056250D01*
X149498947Y-101077691D01*
X149495797Y-101098926D01*
X149490581Y-101119750D01*
X149483349Y-101139962D01*
X149474170Y-101159368D01*
X149463134Y-101177781D01*
X149450346Y-101195024D01*
X149435930Y-101210930D01*
X149420024Y-101225346D01*
X149402781Y-101238134D01*
X149384368Y-101249170D01*
X149364962Y-101258349D01*
X149344750Y-101265581D01*
X149323926Y-101270797D01*
X149302691Y-101273947D01*
X149281250Y-101275000D01*
X148768750Y-101275000D01*
X148747309Y-101273947D01*
X148726074Y-101270797D01*
X148705250Y-101265581D01*
X148685038Y-101258349D01*
X148665632Y-101249170D01*
X148647219Y-101238134D01*
X148629976Y-101225346D01*
X148614070Y-101210930D01*
X148599654Y-101195024D01*
X148586866Y-101177781D01*
X148575830Y-101159368D01*
X148566651Y-101139962D01*
X148559419Y-101119750D01*
X148554203Y-101098926D01*
X148551053Y-101077691D01*
X148550000Y-101056250D01*
X148550000Y-100618750D01*
X148551053Y-100597309D01*
X148554203Y-100576074D01*
X148559419Y-100555250D01*
X148566651Y-100535038D01*
X148575830Y-100515632D01*
X148586866Y-100497219D01*
X148599654Y-100479976D01*
X148614070Y-100464070D01*
X148629976Y-100449654D01*
X148647219Y-100436866D01*
X148665632Y-100425830D01*
X148685038Y-100416651D01*
X148705250Y-100409419D01*
X148726074Y-100404203D01*
X148747309Y-100401053D01*
X148768750Y-100400000D01*
X149281250Y-100400000D01*
X149302691Y-100401053D01*
G37*
G36*
X150202691Y-105276053D02*
G01*
X150223926Y-105279203D01*
X150244750Y-105284419D01*
X150264962Y-105291651D01*
X150284368Y-105300830D01*
X150302781Y-105311866D01*
X150320024Y-105324654D01*
X150335930Y-105339070D01*
X150350346Y-105354976D01*
X150363134Y-105372219D01*
X150374170Y-105390632D01*
X150383349Y-105410038D01*
X150390581Y-105430250D01*
X150395797Y-105451074D01*
X150398947Y-105472309D01*
X150400000Y-105493750D01*
X150400000Y-105931250D01*
X150398947Y-105952691D01*
X150395797Y-105973926D01*
X150390581Y-105994750D01*
X150383349Y-106014962D01*
X150374170Y-106034368D01*
X150363134Y-106052781D01*
X150350346Y-106070024D01*
X150335930Y-106085930D01*
X150320024Y-106100346D01*
X150302781Y-106113134D01*
X150284368Y-106124170D01*
X150264962Y-106133349D01*
X150244750Y-106140581D01*
X150223926Y-106145797D01*
X150202691Y-106148947D01*
X150181250Y-106150000D01*
X149668750Y-106150000D01*
X149647309Y-106148947D01*
X149626074Y-106145797D01*
X149605250Y-106140581D01*
X149585038Y-106133349D01*
X149565632Y-106124170D01*
X149547219Y-106113134D01*
X149529976Y-106100346D01*
X149514070Y-106085930D01*
X149499654Y-106070024D01*
X149486866Y-106052781D01*
X149475830Y-106034368D01*
X149466651Y-106014962D01*
X149459419Y-105994750D01*
X149454203Y-105973926D01*
X149451053Y-105952691D01*
X149450000Y-105931250D01*
X149450000Y-105493750D01*
X149451053Y-105472309D01*
X149454203Y-105451074D01*
X149459419Y-105430250D01*
X149466651Y-105410038D01*
X149475830Y-105390632D01*
X149486866Y-105372219D01*
X149499654Y-105354976D01*
X149514070Y-105339070D01*
X149529976Y-105324654D01*
X149547219Y-105311866D01*
X149565632Y-105300830D01*
X149585038Y-105291651D01*
X149605250Y-105284419D01*
X149626074Y-105279203D01*
X149647309Y-105276053D01*
X149668750Y-105275000D01*
X150181250Y-105275000D01*
X150202691Y-105276053D01*
G37*
G36*
X150202691Y-106851053D02*
G01*
X150223926Y-106854203D01*
X150244750Y-106859419D01*
X150264962Y-106866651D01*
X150284368Y-106875830D01*
X150302781Y-106886866D01*
X150320024Y-106899654D01*
X150335930Y-106914070D01*
X150350346Y-106929976D01*
X150363134Y-106947219D01*
X150374170Y-106965632D01*
X150383349Y-106985038D01*
X150390581Y-107005250D01*
X150395797Y-107026074D01*
X150398947Y-107047309D01*
X150400000Y-107068750D01*
X150400000Y-107506250D01*
X150398947Y-107527691D01*
X150395797Y-107548926D01*
X150390581Y-107569750D01*
X150383349Y-107589962D01*
X150374170Y-107609368D01*
X150363134Y-107627781D01*
X150350346Y-107645024D01*
X150335930Y-107660930D01*
X150320024Y-107675346D01*
X150302781Y-107688134D01*
X150284368Y-107699170D01*
X150264962Y-107708349D01*
X150244750Y-107715581D01*
X150223926Y-107720797D01*
X150202691Y-107723947D01*
X150181250Y-107725000D01*
X149668750Y-107725000D01*
X149647309Y-107723947D01*
X149626074Y-107720797D01*
X149605250Y-107715581D01*
X149585038Y-107708349D01*
X149565632Y-107699170D01*
X149547219Y-107688134D01*
X149529976Y-107675346D01*
X149514070Y-107660930D01*
X149499654Y-107645024D01*
X149486866Y-107627781D01*
X149475830Y-107609368D01*
X149466651Y-107589962D01*
X149459419Y-107569750D01*
X149454203Y-107548926D01*
X149451053Y-107527691D01*
X149450000Y-107506250D01*
X149450000Y-107068750D01*
X149451053Y-107047309D01*
X149454203Y-107026074D01*
X149459419Y-107005250D01*
X149466651Y-106985038D01*
X149475830Y-106965632D01*
X149486866Y-106947219D01*
X149499654Y-106929976D01*
X149514070Y-106914070D01*
X149529976Y-106899654D01*
X149547219Y-106886866D01*
X149565632Y-106875830D01*
X149585038Y-106866651D01*
X149605250Y-106859419D01*
X149626074Y-106854203D01*
X149647309Y-106851053D01*
X149668750Y-106850000D01*
X150181250Y-106850000D01*
X150202691Y-106851053D01*
G37*
G36*
X151802691Y-105276053D02*
G01*
X151823926Y-105279203D01*
X151844750Y-105284419D01*
X151864962Y-105291651D01*
X151884368Y-105300830D01*
X151902781Y-105311866D01*
X151920024Y-105324654D01*
X151935930Y-105339070D01*
X151950346Y-105354976D01*
X151963134Y-105372219D01*
X151974170Y-105390632D01*
X151983349Y-105410038D01*
X151990581Y-105430250D01*
X151995797Y-105451074D01*
X151998947Y-105472309D01*
X152000000Y-105493750D01*
X152000000Y-105931250D01*
X151998947Y-105952691D01*
X151995797Y-105973926D01*
X151990581Y-105994750D01*
X151983349Y-106014962D01*
X151974170Y-106034368D01*
X151963134Y-106052781D01*
X151950346Y-106070024D01*
X151935930Y-106085930D01*
X151920024Y-106100346D01*
X151902781Y-106113134D01*
X151884368Y-106124170D01*
X151864962Y-106133349D01*
X151844750Y-106140581D01*
X151823926Y-106145797D01*
X151802691Y-106148947D01*
X151781250Y-106150000D01*
X151268750Y-106150000D01*
X151247309Y-106148947D01*
X151226074Y-106145797D01*
X151205250Y-106140581D01*
X151185038Y-106133349D01*
X151165632Y-106124170D01*
X151147219Y-106113134D01*
X151129976Y-106100346D01*
X151114070Y-106085930D01*
X151099654Y-106070024D01*
X151086866Y-106052781D01*
X151075830Y-106034368D01*
X151066651Y-106014962D01*
X151059419Y-105994750D01*
X151054203Y-105973926D01*
X151051053Y-105952691D01*
X151050000Y-105931250D01*
X151050000Y-105493750D01*
X151051053Y-105472309D01*
X151054203Y-105451074D01*
X151059419Y-105430250D01*
X151066651Y-105410038D01*
X151075830Y-105390632D01*
X151086866Y-105372219D01*
X151099654Y-105354976D01*
X151114070Y-105339070D01*
X151129976Y-105324654D01*
X151147219Y-105311866D01*
X151165632Y-105300830D01*
X151185038Y-105291651D01*
X151205250Y-105284419D01*
X151226074Y-105279203D01*
X151247309Y-105276053D01*
X151268750Y-105275000D01*
X151781250Y-105275000D01*
X151802691Y-105276053D01*
G37*
G36*
X151802691Y-106851053D02*
G01*
X151823926Y-106854203D01*
X151844750Y-106859419D01*
X151864962Y-106866651D01*
X151884368Y-106875830D01*
X151902781Y-106886866D01*
X151920024Y-106899654D01*
X151935930Y-106914070D01*
X151950346Y-106929976D01*
X151963134Y-106947219D01*
X151974170Y-106965632D01*
X151983349Y-106985038D01*
X151990581Y-107005250D01*
X151995797Y-107026074D01*
X151998947Y-107047309D01*
X152000000Y-107068750D01*
X152000000Y-107506250D01*
X151998947Y-107527691D01*
X151995797Y-107548926D01*
X151990581Y-107569750D01*
X151983349Y-107589962D01*
X151974170Y-107609368D01*
X151963134Y-107627781D01*
X151950346Y-107645024D01*
X151935930Y-107660930D01*
X151920024Y-107675346D01*
X151902781Y-107688134D01*
X151884368Y-107699170D01*
X151864962Y-107708349D01*
X151844750Y-107715581D01*
X151823926Y-107720797D01*
X151802691Y-107723947D01*
X151781250Y-107725000D01*
X151268750Y-107725000D01*
X151247309Y-107723947D01*
X151226074Y-107720797D01*
X151205250Y-107715581D01*
X151185038Y-107708349D01*
X151165632Y-107699170D01*
X151147219Y-107688134D01*
X151129976Y-107675346D01*
X151114070Y-107660930D01*
X151099654Y-107645024D01*
X151086866Y-107627781D01*
X151075830Y-107609368D01*
X151066651Y-107589962D01*
X151059419Y-107569750D01*
X151054203Y-107548926D01*
X151051053Y-107527691D01*
X151050000Y-107506250D01*
X151050000Y-107068750D01*
X151051053Y-107047309D01*
X151054203Y-107026074D01*
X151059419Y-107005250D01*
X151066651Y-106985038D01*
X151075830Y-106965632D01*
X151086866Y-106947219D01*
X151099654Y-106929976D01*
X151114070Y-106914070D01*
X151129976Y-106899654D01*
X151147219Y-106886866D01*
X151165632Y-106875830D01*
X151185038Y-106866651D01*
X151205250Y-106859419D01*
X151226074Y-106854203D01*
X151247309Y-106851053D01*
X151268750Y-106850000D01*
X151781250Y-106850000D01*
X151802691Y-106851053D01*
G37*
G36*
X153402691Y-105276053D02*
G01*
X153423926Y-105279203D01*
X153444750Y-105284419D01*
X153464962Y-105291651D01*
X153484368Y-105300830D01*
X153502781Y-105311866D01*
X153520024Y-105324654D01*
X153535930Y-105339070D01*
X153550346Y-105354976D01*
X153563134Y-105372219D01*
X153574170Y-105390632D01*
X153583349Y-105410038D01*
X153590581Y-105430250D01*
X153595797Y-105451074D01*
X153598947Y-105472309D01*
X153600000Y-105493750D01*
X153600000Y-105931250D01*
X153598947Y-105952691D01*
X153595797Y-105973926D01*
X153590581Y-105994750D01*
X153583349Y-106014962D01*
X153574170Y-106034368D01*
X153563134Y-106052781D01*
X153550346Y-106070024D01*
X153535930Y-106085930D01*
X153520024Y-106100346D01*
X153502781Y-106113134D01*
X153484368Y-106124170D01*
X153464962Y-106133349D01*
X153444750Y-106140581D01*
X153423926Y-106145797D01*
X153402691Y-106148947D01*
X153381250Y-106150000D01*
X152868750Y-106150000D01*
X152847309Y-106148947D01*
X152826074Y-106145797D01*
X152805250Y-106140581D01*
X152785038Y-106133349D01*
X152765632Y-106124170D01*
X152747219Y-106113134D01*
X152729976Y-106100346D01*
X152714070Y-106085930D01*
X152699654Y-106070024D01*
X152686866Y-106052781D01*
X152675830Y-106034368D01*
X152666651Y-106014962D01*
X152659419Y-105994750D01*
X152654203Y-105973926D01*
X152651053Y-105952691D01*
X152650000Y-105931250D01*
X152650000Y-105493750D01*
X152651053Y-105472309D01*
X152654203Y-105451074D01*
X152659419Y-105430250D01*
X152666651Y-105410038D01*
X152675830Y-105390632D01*
X152686866Y-105372219D01*
X152699654Y-105354976D01*
X152714070Y-105339070D01*
X152729976Y-105324654D01*
X152747219Y-105311866D01*
X152765632Y-105300830D01*
X152785038Y-105291651D01*
X152805250Y-105284419D01*
X152826074Y-105279203D01*
X152847309Y-105276053D01*
X152868750Y-105275000D01*
X153381250Y-105275000D01*
X153402691Y-105276053D01*
G37*
G36*
X153402691Y-106851053D02*
G01*
X153423926Y-106854203D01*
X153444750Y-106859419D01*
X153464962Y-106866651D01*
X153484368Y-106875830D01*
X153502781Y-106886866D01*
X153520024Y-106899654D01*
X153535930Y-106914070D01*
X153550346Y-106929976D01*
X153563134Y-106947219D01*
X153574170Y-106965632D01*
X153583349Y-106985038D01*
X153590581Y-107005250D01*
X153595797Y-107026074D01*
X153598947Y-107047309D01*
X153600000Y-107068750D01*
X153600000Y-107506250D01*
X153598947Y-107527691D01*
X153595797Y-107548926D01*
X153590581Y-107569750D01*
X153583349Y-107589962D01*
X153574170Y-107609368D01*
X153563134Y-107627781D01*
X153550346Y-107645024D01*
X153535930Y-107660930D01*
X153520024Y-107675346D01*
X153502781Y-107688134D01*
X153484368Y-107699170D01*
X153464962Y-107708349D01*
X153444750Y-107715581D01*
X153423926Y-107720797D01*
X153402691Y-107723947D01*
X153381250Y-107725000D01*
X152868750Y-107725000D01*
X152847309Y-107723947D01*
X152826074Y-107720797D01*
X152805250Y-107715581D01*
X152785038Y-107708349D01*
X152765632Y-107699170D01*
X152747219Y-107688134D01*
X152729976Y-107675346D01*
X152714070Y-107660930D01*
X152699654Y-107645024D01*
X152686866Y-107627781D01*
X152675830Y-107609368D01*
X152666651Y-107589962D01*
X152659419Y-107569750D01*
X152654203Y-107548926D01*
X152651053Y-107527691D01*
X152650000Y-107506250D01*
X152650000Y-107068750D01*
X152651053Y-107047309D01*
X152654203Y-107026074D01*
X152659419Y-107005250D01*
X152666651Y-106985038D01*
X152675830Y-106965632D01*
X152686866Y-106947219D01*
X152699654Y-106929976D01*
X152714070Y-106914070D01*
X152729976Y-106899654D01*
X152747219Y-106886866D01*
X152765632Y-106875830D01*
X152785038Y-106866651D01*
X152805250Y-106859419D01*
X152826074Y-106854203D01*
X152847309Y-106851053D01*
X152868750Y-106850000D01*
X153381250Y-106850000D01*
X153402691Y-106851053D01*
G37*
M02*
